<?xml version="1.0" encoding="utf-8"?>
<!-- Generator: Adobe Illustrator 27.5.0, SVG Export Plug-In . SVG Version: 6.00 Build 0)  -->
<svg version="1.1" xmlns="http://www.w3.org/2000/svg" xmlns:xlink="http://www.w3.org/1999/xlink" x="0px" y="0px"
	 viewBox="0 0 750 500" style="enable-background:new 0 0 750 500;" xml:space="preserve">
<g id="BACKGROUND">
	<rect style="fill:#FFFFFF;" width="750" height="500"/>
	<path style="opacity:0.2;fill:#59B3F7;" d="M520.711,304.108c91.5-51.958,77.76-214.926,18.11-231.278
		c-59.651-16.352-85.756,48.398-212.467,36.382C140.428,91.58,128.155,256.37,161.355,341.474
		C194.555,426.578,427.637,356.961,520.711,304.108z"/>
</g>
<g id="OBJECTS">
	<g>
		<g>
			<g>
				<path style="fill:#0D142D;" d="M506.585,123.222c0,0-2.634,18.106-8.744,24.24c-7.028,7.056-15.93,29.116,25.613,34.697
					c41.543,5.581,39.107-18.208,35.011-25.247c-3.438-5.909-1.999-28.37-1.999-28.37L506.585,123.222z"/>
				<g>
					
						<linearGradient id="SVGID_1_" gradientUnits="userSpaceOnUse" x1="325.7043" y1="181.9034" x2="304.6641" y2="178.2965" gradientTransform="matrix(-0.8561 0.5169 0.5169 0.8561 643.7765 -168.6494)">
						<stop  offset="0" style="stop-color:#FFB69C"/>
						<stop  offset="1" style="stop-color:#FF6161"/>
					</linearGradient>
					<path style="fill:url(#SVGID_1_);" d="M417.241,114.704c0.783-0.993,2.201-1.211,3.246-0.498l6.38,3.832l-8.3-8.283
						c-0.902-0.974-0.846-2.493,0.125-3.398l0.339-0.316c0.913-0.851,2.325-0.862,3.252-0.027l6.832,6.603l-6.18-9.915
						c-0.761-1.101-0.477-2.611,0.631-3.362l0.362-0.245c1.033-0.699,2.428-0.494,3.216,0.472l6.543,8.803l-1.851-7.986
						c-0.374-1.273,0.353-2.609,1.625-2.987l0.444-0.132c1.197-0.355,2.466,0.263,2.924,1.424l4.159,13.224l2.469-5.219
						c0.48-1.015,1.672-1.475,2.71-1.047c0.747,0.309,1.252,1.017,1.299,1.824l0.52,8.825c2.168,5.947,0.249,7.314,0.249,7.314
						l19.614,25.216l38.582,14.304c0,0,34.19,37.391-4.169,26.689c-19.272-5.377-41.072-16.288-45.092-22.228L434.8,134.536
						c0,0-0.729-0.85-1.706-2.229l0,0.001l-15.643-14.388C416.568,117.06,416.477,115.672,417.241,114.704z"/>
					
						<path style="fill:none;stroke:#0D142D;stroke-width:1.5;stroke-linecap:round;stroke-linejoin:round;stroke-miterlimit:10;" d="
						M448.234,123.612c0,0-2.08,3.332-5.099,4.183"/>
					<path style="fill:#1664AB;" d="M506.461,163.004l-21.371-7.783c0,0-18.429,24.728-3.362,33.921
						c15.067,9.193,34.627,7.182,37.397,0.992C521.896,183.945,520.48,171.095,506.461,163.004z"/>
				</g>
				<g>
					
						<linearGradient id="SVGID_00000102519982236552482200000015988041414326276745_" gradientUnits="userSpaceOnUse" x1="483.8111" y1="26.825" x2="462.7709" y2="23.2181" gradientTransform="matrix(0.7497 0.6618 -0.6618 0.7497 251.4712 -179.526)">
						<stop  offset="0" style="stop-color:#FFB69C"/>
						<stop  offset="1" style="stop-color:#FF6161"/>
					</linearGradient>
					<path style="fill:url(#SVGID_00000102519982236552482200000015988041414326276745_);" d="M644.774,128.166
						c-0.593-1.117-1.949-1.585-3.105-1.071l-6.963,2.628l9.648-6.664c1.062-0.796,1.279-2.302,0.485-3.366l-0.277-0.371
						c-0.746-1-2.133-1.264-3.195-0.608l-7.903,5.273l7.855-8.649c0.945-0.947,0.937-2.484-0.019-3.42l-0.312-0.306
						c-0.891-0.873-2.3-0.921-3.248-0.111l-8.013,7.49l3.25-7.526c0.596-1.186,0.12-2.63-1.064-3.229l-0.413-0.209
						c-1.114-0.563-2.473-0.182-3.132,0.878l-6.459,12.266l-1.495-5.577c-0.291-1.085-1.381-1.751-2.479-1.515
						c-0.79,0.17-1.413,0.777-1.605,1.562l-2.091,8.59c-3.198,5.463-1.554,7.151-1.554,7.151l-23.81,21.298l-40.519,7.167
						c0,0-40.331,30.667-0.676,27.004c19.923-1.84,43.324-8.673,48.342-13.798l27.925-28.519c0,0,0.87-0.706,2.077-1.888l0,0.001
						l17.966-11.356C645.015,130.604,645.352,129.255,644.774,128.166z"/>
					
						<path style="fill:none;stroke:#0D142D;stroke-width:1.5;stroke-linecap:round;stroke-linejoin:round;stroke-miterlimit:10;" d="
						M612.687,131.382c0,0,1.45,3.651,4.268,5.028"/>
					<path style="fill:#1664AB;" d="M548.349,159.716l22.419-3.832c0,0,18.143,28.199,1.674,34.547
						c-16.469,6.348-39.791,0.296-41.409-6.289S533.109,165.167,548.349,159.716z"/>
				</g>
				<g>
					<g>
						
							<linearGradient id="SVGID_00000123418529465630365650000013085989781639331211_" gradientUnits="userSpaceOnUse" x1="521.0731" y1="373.2341" x2="515.7999" y2="313.0314">
							<stop  offset="0" style="stop-color:#FFB69C"/>
							<stop  offset="1" style="stop-color:#FF6161"/>
						</linearGradient>
						<polygon style="fill:url(#SVGID_00000123418529465630365650000013085989781639331211_);" points="500.059,242.68 
							468.183,453.495 489.221,464.895 534.992,260.215 546.007,464.895 570.666,453.495 569.04,236.77 						"/>
						<polygon style="fill:#0D142D;" points="468.183,453.495 490.414,459.56 489.221,464.895 438.585,464.895 						"/>
						<polygon style="fill:#0D142D;" points="570.666,453.495 545.565,459.879 546.007,464.895 600.264,464.895 						"/>
					</g>
					
						<path style="fill:none;stroke:#0D142D;stroke-width:1.5;stroke-linecap:round;stroke-linejoin:round;stroke-miterlimit:10;" d="
						M485.184,352.859c0,0,7.497,5.073,17.125,0"/>
					
						<path style="fill:none;stroke:#0D142D;stroke-width:1.5;stroke-linecap:round;stroke-linejoin:round;stroke-miterlimit:10;" d="
						M546.045,352.859c0,0,7.497,5.073,17.125,0"/>
				</g>
				<g>
					<g>
						<g>
							
								<linearGradient id="SVGID_00000171717900287700046660000001335932318595055277_" gradientUnits="userSpaceOnUse" x1="529.7791" y1="174.9427" x2="528.0945" y2="152.3694">
								<stop  offset="0" style="stop-color:#FFB69C"/>
								<stop  offset="1" style="stop-color:#FF6161"/>
							</linearGradient>
							<path style="fill:url(#SVGID_00000171717900287700046660000001335932318595055277_);" d="M572.43,226.969
								c0.939,18.997-76.023,26.295-76.963,5.922c0,0-7.662-67.809,10.044-69.836c2.696-0.31,4.911-0.813,6.726-1.474
								c12.487-4.495,5.943-15.868,5.943-15.868l14.801-1.139c0,0-4.79,12.554,8.57,14.878c1.835,0.317,4.02,0.45,6.603,0.322
								C565.951,158.911,572.43,226.969,572.43,226.969z"/>
							<path style="fill:#0D142D;" d="M533.953,155.412c-7.838,4.277-13.833-1.921-14.104-2.173c0.396-3.939-1.67-7.521-1.67-7.521
								l14.8-1.139C532.979,144.579,530.565,150.911,533.953,155.412z"/>
						</g>
						<path style="fill:#1664AB;" d="M572.434,226.964c0.936,19.007-76.028,26.299-76.964,5.922c0,0-7.666-67.8,10.042-69.836
							c2.692-0.304,4.916-0.808,6.73-1.475c1.404-0.503,2.575-1.1,3.534-1.756c0.222,0.374,5.021,8.438,11.926,7.432
							c6.952-1.03,9.422-8.93,9.504-9.176c1.17,0.597,2.598,1.077,4.342,1.381c1.837,0.316,4.026,0.445,6.613,0.316
							C565.95,158.907,572.434,226.964,572.434,226.964z"/>
					</g>
					<path style="fill:#0D142D;" d="M506.246,162.963c0,0-1.247,36.587-12.414,41.937l-10.965,115.135
						c0,0,59.354,14.759,112.275-6.018c0,0-16.299-69.823-27.411-117.464c0,0-17.307-19.349-19.576-36.78l-6.603-0.322
						l13.016,38.894l-47.752,3.193l5.423-39.958L506.246,162.963z"/>
					
						<path style="fill:none;stroke:#FFFFFF;stroke-width:1.5;stroke-linecap:round;stroke-linejoin:round;stroke-miterlimit:10;" d="
						M502.555,235.83c0,0,12.681-3.475,12.373-20.865l35.351-2.514c0,0,2.63,19.206,12.891,19.904"/>
					<path style="fill:#FFFFFF;" d="M522.671,220.783c0,1.078-0.874,1.951-1.951,1.951s-1.951-0.874-1.951-1.951
						c0-1.078,0.874-1.951,1.951-1.951S522.671,219.706,522.671,220.783z"/>
					<path style="fill:#FFFFFF;" d="M547.436,218.875c0,1.078-0.874,1.951-1.951,1.951s-1.951-0.874-1.951-1.951
						s0.874-1.951,1.951-1.951S547.436,217.797,547.436,218.875z"/>
					
						<line style="fill:none;stroke:#0D142D;stroke-width:1.5;stroke-linecap:round;stroke-linejoin:round;stroke-miterlimit:10;" x1="562.476" y1="177.14" x2="570.429" y2="209.559"/>
				</g>
				<g>
					<g>
						<path style="fill:#59B3F7;" d="M547.545,103.265c0,0-9.969-5.194-0.004-17.232C547.542,86.033,558.329,95.914,547.545,103.265
							z"/>
						<path style="fill:#59B3F7;" d="M547.156,104.429c0,0,8.746,7.061,15.797-6.886C562.953,97.543,549.583,91.605,547.156,104.429
							z"/>
					</g>
					<path style="fill:#59B3F7;" d="M550.567,138.55c0,0,7.184-6.783,7.394-14.912c6.056-28.539-44.447-39.106-50.503-10.568
						c0,0-3.306,9.724,0.245,16.461l2.918-14.324c4.197-24.398,47.886-16.883,43.69,7.515L550.567,138.55z"/>
					<g>
						<path style="fill:#FF6161;" d="M557.301,139.825c-0.834,4.407-5.33,7.257-10.041,6.366c-4.711-0.892-7.854-5.188-7.02-9.595
							c0.834-4.407,5.33-7.257,10.041-6.366C554.993,131.121,558.135,135.417,557.301,139.825z"/>
						<path style="fill:#FF6161;" d="M518.354,132.452c-0.834,4.407-5.33,7.257-10.041,6.366c-4.711-0.892-7.854-5.188-7.02-9.595
							c0.834-4.407,5.33-7.257,10.041-6.366C516.045,123.749,519.188,128.045,518.354,132.452z"/>
						
							<line style="fill:none;stroke:#0D142D;stroke-width:1.5;stroke-linecap:round;stroke-linejoin:round;stroke-miterlimit:10;" x1="505.096" y1="127.557" x2="509.788" y2="134.081"/>
						
							<line style="fill:none;stroke:#0D142D;stroke-width:1.5;stroke-linecap:round;stroke-linejoin:round;stroke-miterlimit:10;" x1="505.324" y1="133.572" x2="507.604" y2="131.044"/>
						
							<line style="fill:none;stroke:#0D142D;stroke-width:1.5;stroke-linecap:round;stroke-linejoin:round;stroke-miterlimit:10;" x1="554.371" y1="136.884" x2="547.619" y2="141.242"/>
						
							<line style="fill:none;stroke:#0D142D;stroke-width:1.5;stroke-linecap:round;stroke-linejoin:round;stroke-miterlimit:10;" x1="551.959" y1="142.4" x2="550.762" y2="139.213"/>
					</g>
					<g>
						
							<linearGradient id="SVGID_00000140006212118367913170000010381414728953740214_" gradientUnits="userSpaceOnUse" x1="515.8457" y1="121.5156" x2="515.8457" y2="75.8476" gradientTransform="matrix(0.9826 0.186 -0.186 0.9826 41.7973 -63.752)">
							<stop  offset="0" style="stop-color:#FFB69C"/>
							<stop  offset="1" style="stop-color:#FF6161"/>
						</linearGradient>
						<path style="fill:url(#SVGID_00000140006212118367913170000010381414728953740214_);" d="M554.401,128.314
							c-2.259,11.936-15.577,25.698-28.336,23.283c-12.758-2.415-20.125-20.092-17.866-32.028
							c2.259-11.936,13.602-15.26,26.36-12.845C547.318,109.138,556.66,116.378,554.401,128.314z"/>
						<path style="opacity:0.5;fill:#FFFFFF;" d="M551.24,136.584c-5.166,9.118-15.34,16.872-25.174,15.011
							c-9.833-1.861-16.47-12.797-17.946-23.173c2.465,9.387,9.158,18.474,18.501,20.243
							C535.964,150.434,545.514,144.421,551.24,136.584z"/>
						<g style="opacity:0.5;">
							<path style="fill:#FFFFFF;" d="M520.274,131.913c-0.552,1.125-2.681,1.279-4.756,0.343c-2.075-0.936-3.309-2.607-2.757-3.732
								c0.552-1.125,2.681-1.279,4.756-0.343C519.592,129.117,520.826,130.788,520.274,131.913z"/>
							<path style="fill:#FFFFFF;" d="M538.851,135.43c0.103,1.249,2.028,2.17,4.302,2.057s4.033-1.217,3.93-2.466
								c-0.102-1.249-2.028-2.17-4.302-2.057C540.509,133.077,538.749,134.181,538.851,135.43z"/>
						</g>
					</g>
					<g>
						<path style="fill:#0D142D;" d="M522.635,124.655c1.711,0.663,2.899,1.714,2.653,2.347c-0.245,0.633-1.831,0.608-3.542-0.055
							c-1.711-0.663-2.898-1.714-2.653-2.346S520.925,123.992,522.635,124.655z"/>
						
							<line style="fill:none;stroke:#0D142D;stroke-width:1.5;stroke-linecap:round;stroke-linejoin:round;stroke-miterlimit:10;" x1="531.067" y1="129.995" x2="530.231" y2="132.998"/>
						<path style="fill:#FFFFFF;" d="M532.939,141.848c0,0-0.677,2.726-5.238,1.727c-4.367-0.956-4.47-3.565-4.47-3.565
							L532.939,141.848z"/>
						<path style="fill:#0D142D;" d="M519.259,119.463l6.604,1.25c0.696,0.132,1.301-0.274,1.277-0.839
							c-0.031-0.697-0.319-1.395-1.285-1.702C521.228,116.706,517.587,118.796,519.259,119.463z"/>
						<path style="fill:#0D142D;" d="M544.13,124.171l-6.604-1.25c-0.696-0.132-1.111-0.731-0.881-1.248
							c0.283-0.638,0.806-1.183,1.818-1.114C543.305,120.885,545.93,124.161,544.13,124.171z"/>
						
							<path style="fill:none;stroke:#0D142D;stroke-width:1.5;stroke-linecap:round;stroke-linejoin:round;stroke-miterlimit:10;" d="
							M528.798,133.224c0,0,4.351-1.086,4.546,1.207c0.155,1.835-4.91,2.305-4.91,2.305"/>
						<path style="fill:#0D142D;" d="M539.465,128.092c-1.83-0.14-3.355,0.294-3.406,0.971c-0.052,0.677,1.389,1.339,3.218,1.479
							c1.829,0.141,3.354-0.294,3.406-0.971C542.735,128.895,541.294,128.232,539.465,128.092z"/>
					</g>
					<path style="fill:#0D142D;" d="M548.789,140.32c0,0,6.805-6.855,7.1-14.968c6.014-28.547-41.115-38.476-47.129-9.929
						c0,0-3.211,9.742,0.029,16.42l3.903-16.162c0.085-0.384,0.193-0.751,0.312-1.109c0,0,0,0,0,0c0,0,19.999,2.797,22.068-7.686
						c-1.848,10.196,16.563,14.93,17.677,15.206L548.789,140.32z"/>
				</g>
			</g>
			<g>
				<path style="fill:#0092A0;" d="M606.566,309.13l-0.31,85.092v70.673h-176.83V312.246c-23.5,0-42.542-19.05-42.542-42.55
					c0-23.5,19.041-42.55,42.542-42.55c23.44,0,42.456,18.964,42.542,42.378h0.009v39.606H606.566z"/>
				<path style="fill:#03D1D4;" d="M606.566,309.132c18.515,0,33.525,15.01,33.525,33.525c0,18.487-14.964,33.477-33.44,33.523
					l0.226,88.716h-33.837V342.657C573.041,324.141,588.051,309.132,606.566,309.132z"/>
				<g>
					<g>
						<path style="fill:#0092A0;" d="M614.057,354.427c-0.64,0-1.28-0.244-1.768-0.732l-14.982-14.981
							c-0.977-0.976-0.977-2.559,0-3.535c0.976-0.977,2.56-0.977,3.535,0l14.982,14.981c0.977,0.977,0.977,2.559,0,3.535
							C615.337,354.183,614.697,354.427,614.057,354.427z"/>
					</g>
					<g>
						<path style="fill:#0092A0;" d="M599.075,354.427c-0.64,0-1.28-0.244-1.768-0.732c-0.977-0.977-0.977-2.559,0-3.535
							l14.982-14.981c0.976-0.977,2.56-0.977,3.535,0c0.977,0.977,0.977,2.56,0,3.535l-14.982,14.981
							C600.355,354.183,599.715,354.427,599.075,354.427z"/>
					</g>
				</g>
			</g>
			<g>
				<path style="fill:#03D1D4;" d="M346.976,347.23h192.011c11.396,0,20.635,9.239,20.635,20.635v96.044H346.976V347.23z"/>
				<rect x="346.976" y="395.24" style="fill:#00B5BF;" width="212.646" height="69.657"/>
				<polygon style="fill:#0092A0;" points="346.976,395.24 559.623,395.24 559.623,405.57 346.976,435.921 				"/>
				<path style="fill:#03D1D4;" d="M472.029,309.13v38.1h-317.29V227.145h274.688c23.44,0,42.456,18.964,42.542,42.378h0.009v39.606
					H472.029z"/>
			</g>
			<g>
				<g>
					
						<linearGradient id="SVGID_00000026153237815436006800000001352089191278074554_" gradientUnits="userSpaceOnUse" x1="473.6158" y1="457.4669" x2="477.6517" y2="420.4715">
						<stop  offset="0" style="stop-color:#FFB69C"/>
						<stop  offset="1" style="stop-color:#FF6161"/>
					</linearGradient>
					<path style="fill:url(#SVGID_00000026153237815436006800000001352089191278074554_);" d="M494.649,439.974l9.099-87.12
						c0,0-57.336,5.745-72.578-14.095c-15.23-19.84-6.444-68.511-6.444-68.511l44.761,32.041l54.729,21.155
						c6.384,4.115,9.92,11.453,9.172,19.007l-16.932,97.522l-2.1,12.128l28.046,12.792h-50.36L494.649,439.974z"/>
				</g>
				<g>
					
						<linearGradient id="SVGID_00000124147216785717846290000000546888043964782760_" gradientUnits="userSpaceOnUse" x1="447.8793" y1="454.6591" x2="451.9151" y2="417.6637">
						<stop  offset="0" style="stop-color:#FFB69C"/>
						<stop  offset="1" style="stop-color:#FF6161"/>
					</linearGradient>
					<path style="fill:url(#SVGID_00000124147216785717846290000000546888043964782760_);" d="M468.606,439.974l9.099-87.12
						c0,0-57.336,5.745-72.566-14.095c-15.242-19.84-6.456-68.511-6.456-68.511l44.773,32.041l54.729,21.155
						c6.372,4.115,9.908,11.453,9.172,19.007l-16.932,97.522l-2.1,12.128l28.034,12.792h-50.36L468.606,439.974z"/>
				</g>
				<path style="fill:#0D142D;" d="M533.388,342.452l-16.932,97.522h-21.807l9.099-87.12c0,0-57.336,5.745-72.578-14.095
					c-15.23-19.84-6.444-68.511-6.444-68.511l44.761,32.041l54.729,21.155C530.6,327.559,534.136,334.897,533.388,342.452z"/>
				<path style="fill:#1664AB;" d="M523.924,455.612c-1.399,4.044-15.254,4.051-31.211,2.868l-0.974,6.414h50.663l-15.759-10.369
					C525.662,453.879,524.38,454.295,523.924,455.612z"/>
				<path style="fill:#0D142D;" d="M507.357,342.452l-16.932,97.522h-21.819l9.099-87.12c0,0-57.336,5.745-72.566-14.095
					c-15.242-19.84-6.456-68.511-6.456-68.511l44.773,32.041l54.729,21.155C504.557,327.559,508.093,334.897,507.357,342.452z"/>
				<path style="fill:#1664AB;" d="M497.881,455.612c-1.399,4.044-15.254,4.051-31.211,2.868l-0.974,6.414h50.663l-15.759-10.369
					C499.619,453.879,498.337,454.295,497.881,455.612z"/>
			</g>
			<path style="fill:#0D142D;" d="M407.41,162.233c0,0-4.437,22.931-12.204,32.73c-7.767,9.799-36.994,46.205,27.053,49.953
				c64.047,3.748,45.04-32.903,42.226-38.751c-2.814-5.848-8.648-16.886-7.551-35.642L407.41,162.233z"/>
			<path style="fill:#1664AB;" d="M384.162,217.536l51.096,71.928c0,0-10.497,15.215-29.92,2.605
				C385.915,279.459,373.637,247.582,384.162,217.536z"/>
			<g>
				
					<linearGradient id="SVGID_00000118361980691477466930000009123217540121493154_" gradientUnits="userSpaceOnUse" x1="482.42" y1="174.1777" x2="445.5581" y2="167.8585" gradientTransform="matrix(0.9574 0.2889 -0.2889 0.9574 89.8838 -76.472)">
					<stop  offset="0" style="stop-color:#FFB69C"/>
					<stop  offset="1" style="stop-color:#FF6161"/>
				</linearGradient>
				<path style="fill:url(#SVGID_00000118361980691477466930000009123217540121493154_);" d="M531.143,195.003
					c-1.186-0.907-2.871-0.741-3.858,0.379l-6.176,6.245l7.071-11.896c0.747-1.377,0.239-3.098-1.136-3.849l-0.48-0.262
					c-1.293-0.706-2.911-0.307-3.727,0.919l-5.883,9.545l4.171-13.142c0.548-1.481-0.217-3.125-1.703-3.66l-0.486-0.174
					c-1.385-0.498-2.921,0.144-3.539,1.479l-4.91,11.977l-0.216-9.672c0.056-1.565-1.165-2.881-2.73-2.941l-0.546-0.021
					c-1.472-0.057-2.743,1.021-2.928,2.482l-0.893,16.336l-4.348-5.247c-0.846-1.021-2.343-1.199-3.404-0.405
					c-0.764,0.571-1.134,1.529-0.953,2.465l1.983,10.243c-0.742,7.434,1.852,8.436,1.852,8.436l-15.062,34.563l-21.081-26.13
					c0,0-39.414-5.863-12.364,32.573c10.048,14.278,22.213,20.09,31.643,22.37c8.228,1.989,16.634-2.508,19.495-10.475
					l15.923-44.334c0,0,0.585-1.185,1.299-3.047l0,0.001l13.685-21.022C532.601,197.5,532.299,195.887,531.143,195.003z"/>
				<path style="fill:#59B3F7;" d="M462.161,222.676c0,0,8.594,7.659,13.886,12.118c5.293,4.458-10.905,33.025-24.385,21.103
					c-13.48-11.922-18.199-26.747-12.388-32.669C445.085,217.306,452.038,216.08,462.161,222.676z"/>
				<path style="fill:none;stroke:#0D142D;stroke-width:1.5;stroke-linecap:round;stroke-linejoin:round;stroke-miterlimit:10;" d="
					M498.305,214.243c0,0,3.352,3.203,7.053,3.293"/>
			</g>
			<g>
				
					<linearGradient id="SVGID_00000026882180615291835550000008509854615686170249_" gradientUnits="userSpaceOnUse" x1="429.3127" y1="296.967" x2="436.6695" y2="183.7545">
					<stop  offset="0" style="stop-color:#FFB69C"/>
					<stop  offset="1" style="stop-color:#FF6161"/>
				</linearGradient>
				<path style="fill:url(#SVGID_00000026882180615291835550000008509854615686170249_);" d="M462.255,264.074
					c11.213-6.2-0.099-41.393-0.099-41.393s-13.386-5.697-19.862-11.714c-0.376-0.346-0.706-0.699-0.984-1.059
					c-4.635-5.747,2.021-11.975,2.021-11.975l-27.27-1.886c0,0,1.33,2.667,0.759,5.912c-0.533,3.08-3.186,5.72-9.48,9.007
					c-12.494,6.526-20.846,9.852-20.846,9.852c12.242,11.298,7.137,66.576,12.512,77.643c14.309,29.461,55.625,16.485,70.216,11.423
					c4.552-1.579,7.625-5.838,7.695-10.656C470.478,286.879,465.126,280.117,462.255,264.074z"/>
				<path style="fill:#0D142D;" d="M441.311,209.908c-12.846,5.837-20.343-0.781-24.49-7.948c0.571-3.245-0.759-5.912-0.759-5.912
					l27.27,1.886C443.331,197.934,436.675,204.161,441.311,209.908z"/>
				<path style="fill:#59B3F7;" d="M476.921,299.236c-0.072,4.815-3.15,9.075-7.699,10.656c-14.59,5.057-55.9,18.03-70.212-11.428
					c-5.382-11.066-0.674-65.242-12.515-77.644c0,0-0.109-0.014,6.867-3.683c1.798-0.941,3.729-1.907,5.781-2.848
					c5.213,2.015,11.477,6.215,14.18,14.977c5.02,16.28,25.753,10.161,39.692,6.722c9.98-2.45,4.489-12.165,0.555-17.487
					c2.245,1.207,4.332,2.221,5.877,2.957c1.665,0.772,2.715,1.219,2.715,1.219s20.142,34.69,0.094,41.399
					C465.116,280.113,470.476,286.878,476.921,299.236z"/>
				<path style="fill:#FFFFFF;" d="M461.15,236.734c-2.233,3.56-7.378,5.653-27.936,8.45c-17.153,2.334-20.037-4.021-27.58-18.032
					c-3.681-6.843-8.4-9.292-12.273-10.016c1.798-0.941,3.729-1.907,5.781-2.848c5.213,2.015,11.477,6.215,14.18,14.977
					c5.02,16.28,25.753,10.161,39.692,6.722c9.98-2.45,4.489-12.165,0.555-17.487c2.245,1.207,4.332,2.221,5.877,2.957
					C462.632,227.31,462.973,233.826,461.15,236.734z"/>
				<path style="fill:none;stroke:#0D142D;stroke-width:1.5;stroke-linecap:round;stroke-linejoin:round;stroke-miterlimit:10;" d="
					M466.484,231.546c0,0,12.617,27.838-4.229,32.528c0,0,5.979,22.83,13.65,33.245"/>
			</g>
			<g>
				<g>
					<g>
						<path style="fill:#FF6161;" d="M459.424,187.115c-0.283,4.827-4.425,8.511-9.252,8.229c-4.827-0.283-8.511-4.425-8.229-9.252
							c0.283-4.827,4.425-8.511,9.252-8.229C456.023,178.146,459.707,182.288,459.424,187.115z"/>
						<path style="fill:#FF6161;" d="M419.518,184.779c-0.283,4.827-4.425,8.511-9.252,8.229c-4.827-0.282-8.511-4.424-8.229-9.252
							c0.282-4.827,4.424-8.511,9.252-8.229C416.116,175.81,419.8,179.952,419.518,184.779z"/>
						
							<line style="fill:none;stroke:#0D142D;stroke-width:1.5;stroke-linecap:round;stroke-linejoin:round;stroke-miterlimit:10;" x1="405.634" y1="181.435" x2="411.149" y2="187.738"/>
						
							<line style="fill:none;stroke:#0D142D;stroke-width:1.5;stroke-linecap:round;stroke-linejoin:round;stroke-miterlimit:10;" x1="406.617" y1="187.829" x2="408.582" y2="184.804"/>
						
							<line style="fill:none;stroke:#0D142D;stroke-width:1.5;stroke-linecap:round;stroke-linejoin:round;stroke-miterlimit:10;" x1="456.123" y1="184.39" x2="449.911" y2="190.006"/>
						
							<line style="fill:none;stroke:#0D142D;stroke-width:1.5;stroke-linecap:round;stroke-linejoin:round;stroke-miterlimit:10;" x1="454.401" y1="190.625" x2="452.803" y2="187.392"/>
					</g>
					<g>
						
							<linearGradient id="SVGID_00000091008185542526251660000013418895964316845494_" gradientUnits="userSpaceOnUse" x1="433.3774" y1="199.7831" x2="433.3774" y2="145.7329" gradientTransform="matrix(0.9983 0.0584 -0.0584 0.9983 8.6639 -20.6188)">
							<stop  offset="0" style="stop-color:#FFB69C"/>
							<stop  offset="1" style="stop-color:#FF6161"/>
						</linearGradient>
						<path style="fill:url(#SVGID_00000091008185542526251660000013418895964316845494_);" d="M455.079,175.23
							c-0.765,13.072-12.37,29.669-25.442,28.904s-22.662-18.602-21.897-31.674c0.765-13.072,11.982-23.049,25.055-22.284
							C445.867,150.941,455.844,162.158,455.079,175.23z"/>
						<path style="opacity:0.5;fill:#FFFFFF;" d="M452.951,184.516c-4.027,10.476-13.239,20.206-23.314,19.617
							c-10.076-0.59-18.089-11.328-20.867-22.202c3.644,9.678,11.482,18.433,21.055,18.993
							C439.398,201.484,448.203,193.702,452.951,184.516z"/>
						<path style="fill:#FF6161;" d="M455.078,175.228c-0.155,2.653-0.762,5.457-1.738,8.231
							c-2.6-9.537-10.658-23.594-21.077-24.204c-10.419-0.61-20.062,12.412-23.757,21.58c-0.646-2.868-0.921-5.724-0.766-8.377
							c0.765-13.073,11.981-23.049,25.054-22.284S455.843,162.156,455.078,175.228z"/>
						<g style="opacity:0.5;">
							<path style="fill:#FFFFFF;" d="M421.33,184.122c-0.411,1.281-2.523,1.748-4.717,1.043c-2.194-0.705-3.639-2.314-3.227-3.595
								c0.411-1.281,2.523-1.748,4.717-1.043C420.297,181.232,421.742,182.842,421.33,184.122z"/>
							<path style="fill:#FFFFFF;" d="M440.365,185.236c0.259,1.32,2.302,2.03,4.563,1.586c2.261-0.444,3.884-1.874,3.625-3.194
								c-0.259-1.32-2.302-2.03-4.563-1.586C441.729,182.486,440.106,183.916,440.365,185.236z"/>
						</g>
					</g>
					<g>
						<path style="fill:#0D142D;" d="M423.77,178.35c-0.067,1.151-0.825,2.043-1.691,1.992c-0.867-0.051-1.515-1.025-1.447-2.176
							c0.067-1.151,0.825-2.043,1.691-1.992C423.189,176.224,423.837,177.199,423.77,178.35z"/>
						<path style="fill:#0D142D;" d="M441.609,179.393c-0.067,1.151-0.825,2.043-1.691,1.992c-0.867-0.051-1.515-1.025-1.447-2.176
							c0.067-1.151,0.825-2.043,1.691-1.992C441.029,177.268,441.677,178.242,441.609,179.393z"/>
						<g>
							
								<path style="fill:none;stroke:#0D142D;stroke-width:1.5;stroke-linecap:round;stroke-linejoin:round;stroke-miterlimit:10;" d="
								M430.068,184.118c0,0,4.219-1.779,4.701,0.643c0.386,1.939-4.626,3.16-4.626,3.16"/>
							
								<line style="fill:none;stroke:#0D142D;stroke-width:1.5;stroke-linecap:round;stroke-linejoin:round;stroke-miterlimit:10;" x1="431.934" y1="180.345" x2="431.474" y2="183.672"/>
						</g>
						<path style="fill:#FFFFFF;" d="M435.572,191.724c0,0-1.382,3.54-5.402,3.305c-3.536-0.207-4.98-3.912-4.98-3.912
							L435.572,191.724z"/>
						<path style="fill:#0D142D;" d="M418.576,172.531l6.715,1.277c0.713,0.042,1.268-0.478,1.172-1.078
							c-0.118-0.74-0.479-1.575-1.5-1.635C423.107,170.986,418.576,172.531,418.576,172.531z"/>
						<path style="fill:#0D142D;" d="M444.308,174.036l-6.818,0.486c-0.713-0.042-1.204-0.623-1.039-1.208
							c0.204-0.721,0.659-1.509,1.68-1.449C439.988,171.974,444.308,174.036,444.308,174.036z"/>
						<g>
							<path style="fill:#0D142D;" d="M420.029,176.039c0,0-0.116,1.837,1.004,2.234c1.237,0.438,1.238-1.225,1.238-1.225
								S420.849,177.157,420.029,176.039z"/>
							<path style="fill:#0D142D;" d="M443.155,177.393c0,0-0.099,1.838-1.258,2.102c-1.279,0.291-1.087-1.361-1.087-1.361
								S442.21,178.407,443.155,177.393z"/>
						</g>
					</g>
					<path style="fill:#0D142D;" d="M408.906,186.386l23.358-27.14l19.377,30.861c0,0,4.405-4.395,5.294-19.584
						c0.889-15.189-14.962-23.314-23.85-23.834c-8.888-0.52-25.679,4.49-26.638,20.88
						C405.486,183.958,408.906,186.386,408.906,186.386z"/>
				</g>
			</g>
			<path style="fill:#0D142D;" d="M412.269,464.897h50.359l-25.629-12.798l1.69-17.124h14.829l5.714-92.523
				c0.745-7.552-2.794-14.887-9.17-19.003l-54.727-21.164l-44.769-32.039c0,0-8.782,48.677,6.452,68.514
				s63.859,14.096,63.859,14.096L412.269,464.897z"/>
			<path style="fill:#0D142D;" d="M420.363,323.449l-54.727-21.164l-44.769-32.039c0,0-8.782,48.677,6.452,68.514
				c15.234,19.837,63.859,14.096,63.859,14.096l-27.13,112.04h50.359l-25.629-12.798l3.986-17.124h12.572l24.196-92.523
				C430.279,334.9,426.739,327.565,420.363,323.449z"/>
			<g>
				
					<linearGradient id="SVGID_00000005966049250779558800000016606452556187986836_" gradientUnits="userSpaceOnUse" x1="346.4187" y1="296.3211" x2="354.1298" y2="177.6569">
					<stop  offset="0" style="stop-color:#FFB69C"/>
					<stop  offset="1" style="stop-color:#FF6161"/>
				</linearGradient>
				<path style="fill:url(#SVGID_00000005966049250779558800000016606452556187986836_);" d="M394.846,289.943
					c-0.07,4.818-3.143,9.077-7.695,10.656c-14.591,5.062-51.488,25.46-68.918,10.548c-23.048-19.72-14.614-92.129-14.614-92.129
					s11.956-8.418,25.726-13.196c6.708-2.329,8.947-5.927,9.48-9.007c0.571-3.245-0.759-5.912-0.759-5.912l27.27,1.886
					c0,0-6.656,6.228-2.021,11.975c0.278,0.361,0.609,0.714,0.984,1.059c6.475,6.017,19.862,11.714,19.862,11.714L394.846,289.943z"
					/>
				<path style="fill:#0D142D;" d="M363.316,204.762c-12.846,5.837-20.343-0.781-24.49-7.948c0.571-3.245-0.759-5.912-0.759-5.912
					l27.27,1.886C365.337,192.788,358.681,199.015,363.316,204.762z"/>
			</g>
			<g>
				<path style="fill:#1664AB;" d="M394.846,289.943c-0.07,4.818-3.143,9.077-7.695,10.656
					c-14.591,5.062-51.488,25.46-68.918,10.548c-23.048-19.72-14.614-92.129-14.614-92.129s11.956-8.418,25.726-13.196
					c3.974-1.382,6.378-3.2,7.783-5.101c0,0,8.782,20.922,18.428,15.205c0,0,10.172-6.1,7.76-11.163
					c0.278,0.361,0.609,0.714,0.984,1.059c6.475,6.017,19.862,11.714,19.862,11.714L394.846,289.943z"/>
				<path style="fill:#FFFFFF;" d="M335.928,199.732l19.627,16.193C355.555,215.925,329.582,245.099,335.928,199.732z"/>
				<path style="fill:#FFFFFF;" d="M355.555,215.925l8.748-12.57c0,0,7.081,10.356,1.664,15.904
					C360.549,224.807,355.555,215.925,355.555,215.925z"/>
				
					<line style="fill:none;stroke:#0D142D;stroke-width:1.5;stroke-linecap:round;stroke-linejoin:round;stroke-miterlimit:10;" x1="386.885" y1="235.989" x2="393.131" y2="278.319"/>
			</g>
			<g>
				<g>
					<path style="fill:#FF6161;" d="M384.16,179.678c0.115,5.295-4.083,9.681-9.378,9.796c-5.295,0.115-9.681-4.083-9.796-9.378
						c-0.116-5.295,4.083-9.681,9.378-9.796C379.658,170.184,384.044,174.383,384.16,179.678z"/>
					<path style="fill:#FF6161;" d="M340.384,180.632c0.116,5.295-4.083,9.681-9.378,9.796c-5.295,0.115-9.681-4.083-9.797-9.378
						c-0.115-5.295,4.083-9.681,9.378-9.796C335.883,171.138,340.269,175.337,340.384,180.632z"/>
					
						<line style="fill:none;stroke:#0D142D;stroke-width:1.5;stroke-linecap:round;stroke-linejoin:round;stroke-miterlimit:10;" x1="324.933" y1="178.2" x2="331.507" y2="184.597"/>
					
						<line style="fill:none;stroke:#0D142D;stroke-width:1.5;stroke-linecap:round;stroke-linejoin:round;stroke-miterlimit:10;" x1="326.568" y1="185.094" x2="328.447" y2="181.619"/>
					
						<line style="fill:none;stroke:#0D142D;stroke-width:1.5;stroke-linecap:round;stroke-linejoin:round;stroke-miterlimit:10;" x1="380.316" y1="176.992" x2="374.027" y2="183.67"/>
					
						<line style="fill:none;stroke:#0D142D;stroke-width:1.5;stroke-linecap:round;stroke-linejoin:round;stroke-miterlimit:10;" x1="378.983" y1="183.952" x2="376.954" y2="180.561"/>
				</g>
				<g>
					
						<linearGradient id="SVGID_00000014625990459883332800000005050504565363869093_" gradientUnits="userSpaceOnUse" x1="354.3407" y1="192.087" x2="354.3407" y2="132.8864" gradientTransform="matrix(0.9998 -0.0218 0.0218 0.9998 -5.3255 16.5506)">
						<stop  offset="0" style="stop-color:#FFB69C"/>
						<stop  offset="1" style="stop-color:#FF6161"/>
					</linearGradient>
					<path style="fill:url(#SVGID_00000014625990459883332800000005050504565363869093_);" d="M378.371,167.084
						c0.313,14.34-10.9,33.478-25.24,33.791c-14.34,0.313-26.376-18.319-26.688-32.659c-0.313-14.34,11.058-26.218,25.398-26.53
						C366.181,141.373,378.059,152.744,378.371,167.084z"/>
					<path style="opacity:0.5;fill:#FFFFFF;" d="M376.864,177.408c-3.477,11.791-12.68,23.224-23.732,23.465
						c-11.052,0.241-20.744-10.78-24.732-22.408c4.828,10.246,14.154,19.117,24.655,18.888
						C363.556,197.124,372.487,187.855,376.864,177.408z"/>
					<path style="fill:#FF6161;" d="M378.37,167.082c0.064,2.911-0.352,6.025-1.174,9.139
						c-3.676-10.184-13.596-19.705-25.026-19.455c-11.43,0.249-20.926,10.193-24.154,20.528c-0.957-3.075-1.508-6.168-1.572-9.079
						c-0.313-14.34,11.057-26.216,25.397-26.529C366.181,141.372,378.058,152.742,378.37,167.082z"/>
					<g style="opacity:0.5;">
						<path style="fill:#FFFFFF;" d="M342.335,179.542c-0.337,1.434-2.602,2.13-5.059,1.553c-2.457-0.577-4.176-2.207-3.839-3.641
							c0.337-1.434,2.602-2.129,5.059-1.553C340.953,176.478,342.672,178.108,342.335,179.542z"/>
						<path style="fill:#FFFFFF;" d="M363.215,179.087c0.399,1.418,2.692,2.014,5.121,1.331c2.43-0.683,4.076-2.387,3.677-3.805
							c-0.399-1.418-2.692-2.014-5.121-1.331C364.462,175.965,362.816,177.669,363.215,179.087z"/>
					</g>
				</g>
				<path style="fill:#0D142D;" d="M329.606,181.581l-0.731-13.965c0,0,4.429-0.242,4.359-5.544c0,0,3.941-9.158,17.826-9.861
					c14.428-0.731,17.948,6.499,17.948,6.499c1.157,2.174,1.925,5.424,5.97,5.25l0.905,16.485c0,0,4.172-10.265,3.757-20.428
					c0,0,0.413-12.336-2.307-17.333l-2.498,0.204c0,0,1.096-7.795-3.907-12.018c0,0-11.513-3.694-20.203,1.609l-1.748-1.953
					c0,0-20.908,7.956-21.907,20.628c0,0-8.745,6.254-9.676,11.85C316.463,168.598,329.606,181.581,329.606,181.581z"/>
				<g>
					<path style="fill:#0D142D;" d="M342.954,173.18c1.815,0.483,3.16,1.35,3.003,1.938c-0.156,0.587-1.754,0.672-3.569,0.189
						c-1.815-0.483-3.16-1.35-3.003-1.938C339.541,172.782,341.139,172.697,342.954,173.18z"/>
					<path style="fill:#0D142D;" d="M363.527,174.68c-1.785,0.584-3.388,0.58-3.581-0.008c-0.192-0.588,1.099-1.539,2.884-2.122
						c1.785-0.584,3.388-0.58,3.581,0.008C366.603,173.146,365.312,174.096,363.527,174.68z"/>
					
						<line style="fill:none;stroke:#0D142D;stroke-width:1.5;stroke-linecap:round;stroke-linejoin:round;stroke-miterlimit:10;" x1="353.613" y1="173.94" x2="353.478" y2="177.488"/>
					<path style="fill:#FFFFFF;" d="M359.382,186.005c0,0-0.884,3.972-5.68,4.143c-4.155,0.148-6-3.665-6-3.665L359.382,186.005z"/>
					<path style="fill:#0D142D;" d="M338.629,164.322l7.197,0.64c0.755-0.031,1.284-0.636,1.12-1.257
						c-0.202-0.766-0.669-1.607-1.749-1.563C343.233,162.223,338.629,164.322,338.629,164.322z"/>
					<path style="fill:#0D142D;" d="M365.854,163.209l-7.121,1.225c-0.755,0.031-1.332-0.529-1.219-1.161
						c0.138-0.78,0.535-1.656,1.615-1.7C361.094,161.492,365.854,163.209,365.854,163.209z"/>
					
						<path style="fill:none;stroke:#0D142D;stroke-width:1.5;stroke-linecap:round;stroke-linejoin:round;stroke-miterlimit:10;" d="
						M352.046,178.104c0,0,4.252-2.314,5.012,0.183c0.609,1.999-4.535,3.809-4.535,3.809"/>
				</g>
			</g>
			<g>
				<path style="fill:#0092A0;" d="M331.879,309.132H197.286v-39.605h-0.004c-0.092-23.42-19.102-42.378-42.543-42.378
					c-23.498,0-42.547,19.049-42.547,42.547s19.049,42.547,42.547,42.547v81.983v70.67h176.828v-70.67L331.879,309.132z"/>
				<path style="fill:#03D1D4;" d="M331.879,309.132c-18.515,0-33.525,15.01-33.525,33.525c0,18.487,14.964,33.477,33.44,33.523
					l-0.226,88.716h33.837V342.657C365.404,324.141,350.394,309.132,331.879,309.132z"/>
				<g>
					<g>
						<path style="fill:#0092A0;" d="M342.101,354.427c-0.64,0-1.28-0.244-1.768-0.732l-14.981-14.981
							c-0.977-0.977-0.977-2.559,0-3.535c0.975-0.977,2.559-0.977,3.535,0l14.981,14.981c0.977,0.977,0.977,2.559,0,3.535
							C343.38,354.183,342.74,354.427,342.101,354.427z"/>
					</g>
					<g>
						<path style="fill:#0092A0;" d="M327.119,354.427c-0.64,0-1.28-0.244-1.767-0.732c-0.977-0.977-0.977-2.559,0-3.535
							l14.981-14.981c0.976-0.977,2.56-0.977,3.535,0c0.977,0.977,0.977,2.559,0,3.535l-14.981,14.981
							C328.399,354.183,327.759,354.427,327.119,354.427z"/>
					</g>
				</g>
				<g>
					
						<path style="fill:none;stroke:#0D142D;stroke-width:1.5;stroke-linecap:round;stroke-linejoin:round;stroke-miterlimit:10;" d="
						M177.643,342.657c0,18.487,14.964,33.477,33.44,33.523h120.71"/>
				</g>
			</g>
			<g>
				<path style="fill:#1664AB;" d="M303.62,219.017c0,0-19.123,11.353-19.123,56.972c0,26.431,19.123,33.143,19.123,33.143
					C316.718,309.132,336.076,246.055,303.62,219.017z"/>
				<path style="fill:none;stroke:#0D142D;stroke-width:1.5;stroke-linecap:round;stroke-linejoin:round;stroke-miterlimit:10;" d="
					M303.62,309.132c0,0,21.595-5.368,16.65-61.625"/>
				
					<line style="fill:none;stroke:#0D142D;stroke-width:1.5;stroke-linecap:round;stroke-linejoin:round;stroke-miterlimit:10;" x1="326.437" y1="253.705" x2="321.006" y2="263.996"/>
			</g>
			<g>
				
					<linearGradient id="SVGID_00000021825186017915452560000009713110346568910003_" gradientUnits="userSpaceOnUse" x1="341.4896" y1="333.7481" x2="325.1367" y2="299.2648">
					<stop  offset="0" style="stop-color:#FFB69C"/>
					<stop  offset="1" style="stop-color:#FF6161"/>
				</linearGradient>
				<path style="fill:url(#SVGID_00000021825186017915452560000009713110346568910003_);" d="M287.003,291.062
					c0,0-4.461,18.07,16.616,18.07s38.481,3.101,38.481,3.101l5.947,21.901l15.995-0.946c4.188-15.339,3.741-31.638-4.115-37.923
					C359.927,295.264,299.581,262.684,287.003,291.062z"/>
				<path style="fill:#1664AB;" d="M353.478,292.069c0,0-9.953-1.441-11.378,20.163c0,0-60.742,12.854-57.604-25.045
					C287.285,253.506,353.478,292.069,353.478,292.069z"/>
				<path style="fill:none;stroke:#0D142D;stroke-width:1.5;stroke-linecap:round;stroke-linejoin:round;stroke-miterlimit:10;" d="
					M353.478,292.069c0,0-28.657-17.234-50.522-18.625"/>
				
					<line style="fill:none;stroke:#0D142D;stroke-width:1.5;stroke-linecap:round;stroke-linejoin:round;stroke-miterlimit:10;" x1="352.343" y1="334.133" x2="351.046" y2="322.472"/>
				
					<line style="fill:none;stroke:#0D142D;stroke-width:1.5;stroke-linecap:round;stroke-linejoin:round;stroke-miterlimit:10;" x1="356.596" y1="333.628" x2="356.596" y2="322.472"/>
				
					<line style="fill:none;stroke:#0D142D;stroke-width:1.5;stroke-linecap:round;stroke-linejoin:round;stroke-miterlimit:10;" x1="360.887" y1="333.374" x2="362.164" y2="322.472"/>
			</g>
			<g>
				<g>
					
						<linearGradient id="SVGID_00000047052685497424972180000001501349170327187598_" gradientUnits="userSpaceOnUse" x1="306.4749" y1="257.8754" x2="285.4346" y2="254.2685" gradientTransform="matrix(0.9873 0.159 -0.159 0.9873 34.384 -169.4661)">
						<stop  offset="0" style="stop-color:#FFB69C"/>
						<stop  offset="1" style="stop-color:#FF6161"/>
					</linearGradient>
					<path style="fill:url(#SVGID_00000047052685497424972180000001501349170327187598_);" d="M308.815,83.308l0.83-11.829
						c0.293-1.306-0.535-2.6-1.843-2.881l-0.427-0.092c-1.219-0.262-2.436,0.45-2.805,1.641l-2.773,10.612l-1.272-8.098
						c-0.129-1.321-1.303-2.288-2.625-2.162l-0.461,0.044c-1.242,0.118-2.188,1.167-2.179,2.415l1.092,13.819
						c-3.55-0.853-5.082,1.511-4.849,6.684c0.215,6.327,2.506,6.876,2.506,6.876l-12.629,37.232l-26.549,21.195
						c0,0-17.714,47.468,13.853,23.19c15.86-12.198,31.993-30.474,33.498-37.487l8.373-39.026c0,0,0.358-1.061,0.748-2.705l0,0.001
						l3.567-8C319.708,83.1,308.815,83.308,308.815,83.308z"/>
					
						<path style="fill:none;stroke:#0D142D;stroke-width:1.5;stroke-linecap:round;stroke-linejoin:round;stroke-miterlimit:10;" d="
						M294.009,100.337c0,0,3.176,2.312,6.294,1.97"/>
					
						<path style="fill:none;stroke:#0D142D;stroke-width:1.5;stroke-linecap:round;stroke-linejoin:round;stroke-miterlimit:10;" d="
						M308.815,83.308c0,0-6.806,0.53-7.209,5.669c-0.403,5.138,4.108,6.337,4.108,6.337"/>
					<path style="fill:#59B3F7;" d="M308.814,113.555c0,0-0.435,7.434-1.231,16.377c-0.603,6.71-1.412,14.264-2.389,20.202
						c-2.281,13.842-42.238,48.49-54.681,42.938c-12.442-5.539-23.325-27.184,30.87-55.501c0,0-1.183-10.149,1.617-18.513
						c1.484-4.417,4.067-8.327,8.52-10.005C291.52,109.054,295.466,117.586,308.814,113.555z"/>
					<path style="fill:#FFFFFF;" d="M308.814,113.555c0,0-0.435,7.434-1.231,16.377c-16.388,2.51-22.519-3.958-24.583-10.873
						c1.484-4.417,4.067-8.327,8.52-10.005C291.52,109.054,295.466,117.586,308.814,113.555z"/>
					
						<line style="fill:none;stroke:#0D142D;stroke-width:1.5;stroke-linecap:round;stroke-linejoin:round;stroke-miterlimit:10;" x1="296.352" y1="86.777" x2="301.606" y2="88.977"/>
					
						<path style="fill:none;stroke:#0D142D;stroke-width:1.5;stroke-linecap:round;stroke-linejoin:round;stroke-miterlimit:10;" d="
						M311.183,91.431c0,0,2.833,0.369,2.587,2.217c-0.246,1.848-2.094,4.434-4.188,3.695c-2.094-0.739-5.274-2.152-3.449-8.032
						c1.825-5.881,7.171-2.227,7.171-2.227"/>
					
						<path style="fill:none;stroke:#0D142D;stroke-width:1.5;stroke-linecap:round;stroke-linejoin:round;stroke-miterlimit:10;" d="
						M289.279,152.601c-0.28-1.232-2.349-9.223-7.896-15.03c0,0,11.07,2.047,14.524,10.163"/>
				</g>
				<g>
					<g>
						
							<linearGradient id="SVGID_00000179639599207555924720000011949723680057418670_" gradientUnits="userSpaceOnUse" x1="236.4281" y1="170.8832" x2="234.72" y2="147.9938">
							<stop  offset="0" style="stop-color:#FFB69C"/>
							<stop  offset="1" style="stop-color:#FF6161"/>
						</linearGradient>
						<path style="fill:url(#SVGID_00000179639599207555924720000011949723680057418670_);" d="M279.677,223.638
							c0.952,19.264-77.088,26.663-78.041,6.005c0,0-7.769-68.759,10.185-70.814c2.734-0.315,4.98-0.824,6.82-1.495
							c12.662-4.558,6.026-16.09,6.026-16.09l15.009-1.155c0,0-4.857,12.729,8.69,15.086c1.861,0.322,4.076,0.456,6.696,0.327
							C273.107,154.626,279.677,223.638,279.677,223.638z"/>
						<path style="fill:#0D142D;" d="M240.66,151.079c-7.947,4.337-14.026-1.948-14.301-2.204c0.402-3.995-1.693-7.627-1.693-7.627
							l15.007-1.155C239.673,140.094,237.225,146.515,240.66,151.079z"/>
					</g>
					<g>
						<g>
							<path style="fill:#FF6161;" d="M261.015,128.785c0.386,4.242-2.977,8.016-7.511,8.429c-4.534,0.413-8.523-2.691-8.91-6.934
								c-0.386-4.242,2.976-8.016,7.511-8.429C256.639,121.439,260.629,124.543,261.015,128.785z"/>
							<path style="fill:#FF6161;" d="M223.527,132.198c0.386,4.242-2.976,8.016-7.511,8.429c-4.535,0.413-8.523-2.691-8.91-6.934
								c-0.386-4.242,2.976-8.016,7.511-8.429C219.152,124.852,223.141,127.956,223.527,132.198z"/>
							
								<line style="fill:none;stroke:#0D142D;stroke-width:1.5;stroke-linecap:round;stroke-linejoin:round;stroke-miterlimit:10;" x1="210.145" y1="131.181" x2="216.13" y2="135.917"/>
							
								<line style="fill:none;stroke:#0D142D;stroke-width:1.5;stroke-linecap:round;stroke-linejoin:round;stroke-miterlimit:10;" x1="211.921" y1="136.615" x2="213.344" y2="133.712"/>
							
								<line style="fill:none;stroke:#0D142D;stroke-width:1.5;stroke-linecap:round;stroke-linejoin:round;stroke-miterlimit:10;" x1="257.573" y1="126.863" x2="252.542" y2="132.601"/>
							
								<line style="fill:none;stroke:#0D142D;stroke-width:1.5;stroke-linecap:round;stroke-linejoin:round;stroke-miterlimit:10;" x1="256.807" y1="132.528" x2="254.884" y2="129.93"/>
						</g>
						<g>
							
								<linearGradient id="SVGID_00000041292944485678810140000013687238219597627285_" gradientUnits="userSpaceOnUse" x1="235.6802" y1="172.1818" x2="235.6802" y2="128.8131" gradientTransform="matrix(0.9959 -0.0907 0.0907 0.9959 -14.7733 -2.4279)">
								<stop  offset="0" style="stop-color:#FFB69C"/>
								<stop  offset="1" style="stop-color:#FF6161"/>
							</linearGradient>
							<path style="fill:url(#SVGID_00000041292944485678810140000013687238219597627285_);" d="M255.368,119.029
								c1.046,11.488-7.531,27.525-19.811,28.643c-12.28,1.118-23.612-13.106-24.658-24.594
								c-1.046-11.489,8.446-17.479,20.726-18.597C243.904,103.363,254.322,107.54,255.368,119.029z"/>
							<path style="opacity:0.5;fill:#FFFFFF;" d="M254.635,127.405c-2.342,9.673-9.613,19.404-19.078,20.265
								c-9.465,0.862-18.374-7.396-22.425-16.486c4.697,7.93,13.175,14.485,22.168,13.666
								C244.293,144.032,251.448,136.053,254.635,127.405z"/>
							<g style="opacity:0.5;">
								<path style="fill:#FFFFFF;" d="M225.141,131.206c-0.211,1.171-2.115,1.866-4.254,1.552c-2.138-0.314-3.701-1.519-3.49-2.69
									c0.211-1.171,2.115-1.866,4.254-1.552C223.789,128.83,225.352,130.035,225.141,131.206z"/>
								<path style="fill:#FFFFFF;" d="M243.022,129.578c0.419,1.114,2.418,1.453,4.464,0.758c2.047-0.695,3.366-2.162,2.947-3.276
									c-0.419-1.114-2.418-1.453-4.464-0.758C243.922,126.997,242.603,128.464,243.022,129.578z"/>
							</g>
						</g>
						<g>
							<path style="fill:#0D142D;" d="M227.174,125.19c0.131,1.438-0.701,2.689-1.858,2.795c-1.157,0.105-2.202-0.975-2.333-2.413
								c-0.131-1.438,0.701-2.689,1.858-2.795C225.999,122.671,227.043,123.752,227.174,125.19z"/>
							<path style="fill:#0D142D;" d="M243.932,123.664c0.131,1.438-0.701,2.689-1.858,2.795c-1.157,0.105-2.202-0.975-2.333-2.413
								c-0.131-1.438,0.701-2.689,1.858-2.795C242.757,121.146,243.801,122.226,243.932,123.664z"/>
							
								<line style="fill:none;stroke:#0D142D;stroke-width:1.5;stroke-linecap:round;stroke-linejoin:round;stroke-miterlimit:10;" x1="234.497" y1="126.642" x2="234.516" y2="129.602"/>
							<path style="fill:#FFFFFF;" d="M239.294,136.979l-9.344,0.851c0,0,1.653,3.565,5.378,3.593
								C239.054,141.451,239.294,136.979,239.294,136.979z"/>
							<path style="fill:#0D142D;" d="M220.971,120.101l6.356-0.579c0.67-0.061,1.117-0.589,0.947-1.099
								c-0.209-0.628-0.654-1.191-1.617-1.219C222.051,117.07,219.27,119.927,220.971,120.101z"/>
							<path style="fill:#0D142D;" d="M244.91,117.921l-6.356,0.579c-0.67,0.061-1.205-0.378-1.13-0.91
								c0.093-0.656,0.428-1.29,1.37-1.491C243.3,115.135,246.551,117.443,244.91,117.921z"/>
							<path style="fill:#0D142D;" d="M210.33,119.146c0,0-1.283,11.835,4.304,14.987l-0.645-15.776
								c-0.755-12.525,37.876-14.853,38.631-2.328l0.75,15.425c0,0,4.429-8.033,2.585-15.518
								C253.95,87.434,208.325,90.644,210.33,119.146z"/>
							
								<path style="fill:none;stroke:#0D142D;stroke-width:1.5;stroke-linecap:round;stroke-linejoin:round;stroke-miterlimit:10;" d="
								M233.266,130.182c0,0,3.691-2.125,4.465-0.082c0.62,1.636-3.884,3.384-3.884,3.384"/>
						</g>
					</g>
				</g>
				<g>
					
						<linearGradient id="SVGID_00000046331697478900915040000015812984613824196236_" gradientUnits="userSpaceOnUse" x1="67.8436" y1="273.3699" x2="55.8068" y2="182.793" gradientTransform="matrix(-0.9682 0.2502 0.2502 0.9682 194.0253 -32.1194)">
						<stop  offset="0" style="stop-color:#FFB69C"/>
						<stop  offset="1" style="stop-color:#FF6161"/>
					</linearGradient>
					<path style="fill:url(#SVGID_00000046331697478900915040000015812984613824196236_);" d="M208.645,159.986
						c0,0-39.312,20.758-40.657,52.321c-0.783,18.385,23.928,25.489,23.928,25.489l-5.464,11.609c0,0,11.578,7.225,18.042-7.114
						c6.465-14.339-6.737-37.085-6.737-37.085S218.437,171.977,208.645,159.986z"/>
					<path style="fill:#59B3F7;" d="M202.722,212.254c2.271,5.775,2.541,12.298,2.541,12.298
						c-13.482-2.785-19.152,10.987-19.152,10.987s-7.821-1.146-13.999-6.527c-5.087-4.437-9.062-11.751-6.628-23.667
						c5.395-26.387,43.161-45.358,43.161-45.358c12.877,13.453-10.887,45.212-10.887,45.212
						C200.02,206.805,201.614,209.438,202.722,212.254z"/>
					
						<path style="fill:none;stroke:#0D142D;stroke-width:1.5;stroke-linecap:round;stroke-linejoin:round;stroke-miterlimit:10;" d="
						M181.238,212.146c0,0,8.865-6.391,16.519-6.94c0,0-8.21-2.717-14.921,0.182"/>
					<path style="fill:#FFFFFF;" d="M205.263,224.552c-13.482-2.785-19.152,10.987-19.152,10.987s-7.821-1.146-13.999-6.527
						c5.902-8.164,16.189-18.126,30.61-16.758C204.993,218.029,205.263,224.552,205.263,224.552z"/>
				</g>
				<g>
					<g>
						
							<linearGradient id="SVGID_00000116201195585956302250000015653177075899313061_" gradientUnits="userSpaceOnUse" x1="217.9569" y1="408.9791" x2="204.9881" y2="255.4442">
							<stop  offset="0" style="stop-color:#FFB69C"/>
							<stop  offset="1" style="stop-color:#FF6161"/>
						</linearGradient>
						<polygon style="fill:url(#SVGID_00000116201195585956302250000015653177075899313061_);" points="206.292,239.569 
							146.359,426.747 169.2,436.155 238.872,257.023 224.04,453.335 248.811,453.335 276.239,233.577 						"/>
						
							<path style="fill:none;stroke:#0D142D;stroke-width:1.5;stroke-linecap:round;stroke-linejoin:round;stroke-miterlimit:10;" d="
							M179.058,326.905c0,0,4.304,9.14,17.833,9.283"/>
						
							<path style="fill:none;stroke:#0D142D;stroke-width:1.5;stroke-linecap:round;stroke-linejoin:round;stroke-miterlimit:10;" d="
							M241.776,351.391c0,0,10.58,6.613,18.904,0"/>
						<path style="fill:#0D142D;" d="M146.359,426.747l-32.153-0.742l50.871,20.952l4.123-10.803
							C154.442,422.06,147.334,419.701,146.359,426.747z"/>
						<path style="fill:#0D142D;" d="M248.811,453.335l30.012,11.559h-55.016l0.302-11.559
							C242.032,445.247,251.3,444.384,248.811,453.335z"/>
						<polygon style="fill:#1664AB;" points="146.359,426.747 166.859,442.29 165.077,446.958 114.207,426.005 						"/>
						<polygon style="fill:#1664AB;" points="248.811,453.335 223.807,459.695 223.807,464.895 278.823,464.895 						"/>
						<path style="fill:#0D142D;" d="M191.63,285.361l-2.195,6.855c0.419,0.148,23.381,11.931,34.595,9.07L191.63,285.361z"/>
						<path style="fill:#0D142D;" d="M267.658,302.328l-1.083,8.679c-0.419,0.148-18.706-0.692-28.856-9.363L267.658,302.328z"/>
					</g>
					<g>
						<polygon style="fill:#1664AB;" points="201.636,229.643 187.067,283.133 224.03,301.286 238.872,257.023 234.971,301.671 
							279.82,302.606 279.677,223.638 						"/>
						
							<path style="fill:none;stroke:#0D142D;stroke-width:1.5;stroke-linecap:round;stroke-linejoin:round;stroke-miterlimit:10;" d="
							M231.274,254.024c6.909,4.566,17.084,2.999,17.084,2.999"/>
						<path style="fill:#0D142D;" d="M279.945,245.68c-53.266,15.333-79.094-3.598-79.094-3.598v-0.011l0.781-12.43l78.045-6.003
							L279.945,245.68z"/>
						
							<polyline style="fill:none;stroke:#0D142D;stroke-width:1.5;stroke-linecap:round;stroke-linejoin:round;stroke-miterlimit:10;" points="
							226.2,295.31 238.872,257.023 235.956,293.927 						"/>
						<polygon style="fill:#59B3F7;" points="187.067,283.133 225.801,302.485 228.669,294.993 188.063,268.237 						"/>
						<polygon style="fill:#59B3F7;" points="234.019,293.793 232.965,302.084 279.82,302.606 283.705,292.648 						"/>
					</g>
				</g>
				<g>
					<path style="fill:#59B3F7;" d="M282.707,225.509c0.953,19.259-86.71,29.921-87.663,9.262c0,0-1.182-73.89,16.78-75.944
						c0.803-0.092,1.561-0.195,2.272-0.333c1.745-0.287,3.248-0.689,4.545-1.159c0.482-0.172,8.252,8.608,15.54,8.608
						c7.036,0,14.036-10.766,14.186-10.766c1.607,0.275,3.489,0.425,5.658,0.367c0.333-0.011,0.677-0.023,1.033-0.046
						C273.112,154.626,282.707,225.509,282.707,225.509z"/>
					<path style="fill:#FFFFFF;" d="M282.707,225.509c0.953,19.259-86.71,29.921-87.663,9.262c0,0-0.275-17.468,1.503-35.66
						c9.331,2.674,21.795,4.327,37.634,2.64c18.467-1.974,31.815-7.816,40.905-13.681
						C280.113,206.354,282.707,225.509,282.707,225.509z"/>
					
						<path style="fill:none;stroke:#0D142D;stroke-width:1.5;stroke-linecap:round;stroke-linejoin:round;stroke-miterlimit:10;" d="
						M195.039,234.771c0,0-0.174-35.527,2.874-46.77"/>
					
						<line style="fill:none;stroke:#0D142D;stroke-width:1.5;stroke-linecap:round;stroke-linejoin:round;stroke-miterlimit:10;" x1="192.905" y1="191.545" x2="196.043" y2="201.749"/>
					
						<path style="fill:none;stroke:#0D142D;stroke-width:1.5;stroke-linecap:round;stroke-linejoin:round;stroke-miterlimit:10;" d="
						M261.912,158.796c0,0,14.95,19.979,20.799,66.713"/>
					
						<path style="fill:none;stroke:#0D142D;stroke-width:1.5;stroke-linecap:round;stroke-linejoin:round;stroke-miterlimit:10;" d="
						M271.713,166.009c3.232,9.689,2.091,18.588,2.091,18.588"/>
					<path style="fill:#FFFFFF;" d="M254.025,155.544c-2.456,5.107-8.631,15.196-19.121,15.919
						c-9.595,0.654-17.032-7.609-20.808-12.969c1.745-0.287,3.248-0.689,4.545-1.159c0.482-0.172,8.252,8.608,15.54,8.608
						c7.036,0,14.036-10.766,14.186-10.766C249.974,155.453,251.856,155.602,254.025,155.544z"/>
				</g>
			</g>
		</g>
		<g>
			<rect x="131.238" y="104.465" style="fill:#0D142D;" width="7.549" height="360.429"/>
			<path style="fill:#FFB640;" d="M156.144,24.223h-42.262c-8.138,0-15.118,5.804-16.603,13.806l-12.945,69.779
				c-1.524,8.216,3.173,16.339,11.079,19.043c20.077,6.866,59.122,6.866,79.199,0c7.906-2.704,12.603-10.827,11.079-19.043
				l-12.945-69.779C171.262,30.028,164.282,24.223,156.144,24.223z"/>
			<path style="fill:#0D142D;" d="M167.669,455.918h-64.457c-4.58,0-8.293,3.713-8.293,8.293v0.684h81.043v-0.684
				C175.962,459.631,172.249,455.918,167.669,455.918z"/>
			<path style="fill:#FF9929;" d="M174.614,126.848c-20.079,6.873-59.123,6.873-79.202,0c-7.902-2.706-12.6-10.825-11.074-19.04
				l12.946-69.774c1.158-6.289,6.56,98.048,87.234,63.496l1.169,6.278C187.213,116.023,182.516,124.141,174.614,126.848z"/>
		</g>
	</g>
</g>
</svg>
