<?xml version="1.0" encoding="utf-8"?>
<!-- Generator: Adobe Illustrator 27.5.0, SVG Export Plug-In . SVG Version: 6.00 Build 0)  -->
<svg version="1.1" xmlns="http://www.w3.org/2000/svg" xmlns:xlink="http://www.w3.org/1999/xlink" x="0px" y="0px"
	 viewBox="0 0 750 500" style="enable-background:new 0 0 750 500;" xml:space="preserve">
<g id="BACKGROUND">
	<rect style="fill:#FFFFFF;" width="750" height="500"/>
	<path style="opacity:0.2;fill:#59B3F7;" d="M193.299,214.477c-108.864,47.92-91.951,158.377-21.721,174.5
		c70.23,16.122,189.391-54.348,301.849-41.656c112.458,12.693,186.019-126.589,148.052-207.234
		C583.512,59.441,464.138,11.175,362.956,65.874C261.775,120.574,304.036,165.733,193.299,214.477z"/>
</g>
<g id="OBJECTS">
	<g>
		<g>
			<path style="fill:#59B3F7;" d="M544.594,130.579c0,0,24.751,9.63,24.751,63.892c0,7.094-7.817,1.992-18.568-1.298
				C533.452,187.872,544.594,130.579,544.594,130.579z"/>
			<g>
				<path style="fill:#59B3F7;" d="M480.202,132.52c0,0-18.65,18.278-27.746,45.605c-8.188,24.601-0.901,49.192,22.098,19.549
					C482.173,187.854,480.202,132.52,480.202,132.52z"/>
				<path style="fill:#59B3F7;" d="M457.771,211.209c0,0-24.964,6.91-43.002,3.206c-18.038-3.704-12.859-35.17,36.786-31.124
					C451.555,183.291,465.232,191.331,457.771,211.209z"/>
			</g>
			<g>
				<g>
					<polygon style="fill:#0D142D;" points="581.821,474.425 524.734,474.425 523.962,452.115 522.418,407.64 517.26,259.06 
						518.876,408.453 519.34,451.425 519.587,474.425 462.49,474.425 493.633,462.431 492.644,443.272 491.162,414.806 
						481.134,221.092 545.613,221.092 549.401,401.453 550.482,453.145 550.678,462.431 					"/>
				</g>
				<path style="fill:none;stroke:#0D142D;stroke-width:1.5;stroke-linecap:round;stroke-linejoin:round;stroke-miterlimit:10;" d="
					M489.932,356.542c4.807,3.253,14.062,2.085,18.019,0"/>
				<path style="fill:none;stroke:#0D142D;stroke-width:1.5;stroke-linecap:round;stroke-linejoin:round;stroke-miterlimit:10;" d="
					M524.772,356.542c4.807,3.253,14.062,2.085,18.019,0"/>
				<path style="fill:#0D142D;" d="M481.134,221.092c-12.4,22.475-2.993,139.34,0.951,232.559h37.254l-2.08-159.452l6.755,159.452
					h31.965c0.911-92.832,6.541-202.215-10.368-232.559H481.134z"/>
			</g>
			<g>
				<linearGradient id="SVGID_1_" gradientUnits="userSpaceOnUse" x1="513.4745" y1="229.14" x2="513.4745" y2="110.829">
					<stop  offset="0" style="stop-color:#FFB69C"/>
					<stop  offset="1" style="stop-color:#FF6161"/>
				</linearGradient>
				<path style="fill:url(#SVGID_1_);" d="M542.336,129.587c-28.392-9.633-19.569-18.758-19.569-18.758h-20.803
					c0,0,10.11,9.1-15.762,18.084c-30.429,10.565-5.628,94.764-5.628,94.764c27.106,6.316,47.444,7.584,65.125,1.534
					C545.699,225.21,570.755,139.23,542.336,129.587z"/>
				<path style="fill:#0D142D;" d="M528.018,123.082c-2.893,3.037-6.804,5.104-13.125,5.104c-10.357,0-12.737-8.499-12.737-8.499
					c1.713-3.117,1.874-6.09-0.195-8.855h20.806C522.768,110.831,517.559,116.215,528.018,123.082z"/>
				<path style="fill:#1664AB;" d="M545.699,225.213c-17.683,6.046-38.019,4.78-65.121-1.539c0,0-24.803-84.191,5.621-94.765
					c5.398-1.874,9.237-3.757,11.92-5.56c1.732,5.763,6.147,13.986,17.247,13.986c10.148,0,14.159-6.877,15.738-12.447
					c2.866,1.529,6.542,3.109,11.232,4.699C570.755,139.229,545.699,225.213,545.699,225.213z"/>
				<path style="fill:#FFFFFF;" d="M498.734,122.524l15.971,14.192c0,0-11.337,9.335-17.67,1.397
					C490.702,130.174,498.734,122.524,498.734,122.524z"/>
				<path style="fill:#FFFFFF;" d="M528.018,123.082l-13.313,13.634c0,0,9.248,7.694,16.155,0.667
					C540.174,127.906,528.018,123.082,528.018,123.082z"/>
				<path style="fill:none;stroke:#0D142D;stroke-width:1.5;stroke-linecap:round;stroke-linejoin:round;stroke-miterlimit:10;" d="
					M480.578,223.674c0,0-10.05-29.491-9.531-69.468"/>
				<path style="fill:none;stroke:#0D142D;stroke-width:1.5;stroke-linecap:round;stroke-linejoin:round;stroke-miterlimit:10;" d="
					M467.319,165.565c0,0-0.486,5.348,4.43,10.069"/>
			</g>
			<g>
				<g>
					<path style="fill:#FF6161;" d="M541.261,108.143c-0.271,4.63-4.244,8.164-8.874,7.893c-4.63-0.271-8.164-4.244-7.893-8.874
						c0.271-4.63,4.244-8.164,8.874-7.893C537.999,99.539,541.532,103.512,541.261,108.143z"/>
					<path style="fill:#FF6161;" d="M502.984,105.902c-0.271,4.63-4.244,8.164-8.874,7.893c-4.63-0.271-8.164-4.244-7.893-8.874
						c0.271-4.63,4.244-8.164,8.874-7.893C499.721,97.299,503.254,101.272,502.984,105.902z"/>
					
						<line style="fill:none;stroke:#0D142D;stroke-width:1.5;stroke-linecap:round;stroke-linejoin:round;stroke-miterlimit:10;" x1="489.667" y1="102.695" x2="494.956" y2="108.74"/>
					
						<line style="fill:none;stroke:#0D142D;stroke-width:1.5;stroke-linecap:round;stroke-linejoin:round;stroke-miterlimit:10;" x1="490.61" y1="108.828" x2="492.494" y2="105.926"/>
					
						<line style="fill:none;stroke:#0D142D;stroke-width:1.5;stroke-linecap:round;stroke-linejoin:round;stroke-miterlimit:10;" x1="538.095" y1="105.529" x2="532.136" y2="110.916"/>
					
						<line style="fill:none;stroke:#0D142D;stroke-width:1.5;stroke-linecap:round;stroke-linejoin:round;stroke-miterlimit:10;" x1="536.443" y1="111.51" x2="534.91" y2="108.408"/>
				</g>
				<g>
					
						<linearGradient id="SVGID_00000080919101922455592900000000801247109947612821_" gradientUnits="userSpaceOnUse" x1="511.6355" y1="115.4023" x2="511.6355" y2="63.5583" gradientTransform="matrix(0.9983 0.0584 -0.0584 0.9983 8.6639 -20.6188)">
						<stop  offset="0" style="stop-color:#FFB69C"/>
						<stop  offset="1" style="stop-color:#FF6161"/>
					</linearGradient>
					<path style="fill:url(#SVGID_00000080919101922455592900000000801247109947612821_);" d="M537.093,96.743
						c-0.734,12.539-11.865,28.457-24.404,27.724c-12.539-0.734-21.737-17.842-21.003-30.381
						c0.734-12.539,11.493-22.109,24.032-21.375C528.257,73.445,537.827,84.204,537.093,96.743z"/>
					<path style="opacity:0.5;fill:#FFFFFF;" d="M535.052,105.649c-3.863,10.048-12.698,19.382-22.363,18.816
						c-9.664-0.566-17.351-10.866-20.015-21.296c3.495,9.283,11.013,17.681,20.195,18.218
						C522.052,121.925,530.498,114.461,535.052,105.649z"/>
					<path style="fill:#FF6161;" d="M537.092,96.741c-0.149,2.545-0.731,5.234-1.667,7.895c-2.493-9.148-1.174-30.313-6.93-22.121
						c-10.863,15.46-32.53,10.81-36.074,19.604c-0.62-2.751-0.883-5.49-0.735-8.035c0.734-12.539,11.492-22.108,24.031-21.374
						C528.258,73.444,537.826,84.202,537.092,96.741z"/>
					<g style="opacity:0.5;">
						<path style="fill:#FFFFFF;" d="M504.722,105.272c-0.395,1.228-2.42,1.676-4.525,1c-2.104-0.676-3.49-2.22-3.096-3.448
							c0.395-1.228,2.42-1.676,4.525-1C503.731,102.5,505.117,104.044,504.722,105.272z"/>
						<path style="fill:#FFFFFF;" d="M522.98,106.34c0.249,1.266,2.208,1.947,4.377,1.521c2.169-0.426,3.725-1.798,3.477-3.063
							c-0.249-1.266-2.208-1.947-4.377-1.521C524.288,103.703,522.732,105.075,522.98,106.34z"/>
					</g>
				</g>
				<path style="fill:#FFFFFF;" d="M492.422,102.119c5.672-6.143,6.677-5.98,6.54-13.466c4.956,4.168,18.67-1.246,29.533-6.138
					c-0.636,8.017,2.718,15.163,6.93,22.121c0,0,3.482-8.043,3.448-12.408c-0.056-7.152-3.504-12.665-8.01-16.486
					c-4.688-3.976-23.811-7.356-28.783-6.144c-8.297,2.023-11.236,4.053-11.635,19.796
					C490.259,96.737,492.422,102.119,492.422,102.119z"/>
				<g>
					<path style="fill:#0D142D;" d="M507.062,99.735c-0.065,1.104-0.791,1.96-1.622,1.911c-0.831-0.049-1.453-0.983-1.388-2.087
						c0.065-1.104,0.791-1.96,1.622-1.911C506.505,97.696,507.127,98.631,507.062,99.735z"/>
					<path style="fill:#0D142D;" d="M524.174,100.736c-0.065,1.104-0.791,1.96-1.622,1.911c-0.831-0.049-1.453-0.983-1.388-2.087
						c0.065-1.104,0.791-1.96,1.622-1.911C523.617,98.698,524.238,99.632,524.174,100.736z"/>
					
						<line style="fill:none;stroke:#0D142D;stroke-width:1.5;stroke-linecap:round;stroke-linejoin:round;stroke-miterlimit:10;" x1="514.893" y1="101.649" x2="514.452" y2="104.84"/>
					
						<path style="fill:none;stroke:#0D142D;stroke-width:1.5;stroke-linecap:round;stroke-linejoin:round;stroke-miterlimit:10;" d="
						M516.879,112.993c0,0-0.906,2.321-3.542,2.167c-2.318-0.136-3.265-2.565-3.265-2.565"/>
					<path style="fill:#FFFFFF;" d="M501.683,95.381c6.959,2.096,8.055-0.461,7.963-1.037c-0.113-0.71-0.459-1.511-1.439-1.568
						C506.426,92.672,501.683,95.381,501.683,95.381z"/>
					<path style="fill:#FFFFFF;" d="M526.832,96.76c-7.186,1.084-7.907-1.603-7.734-2.16c0.213-0.687,0.67-1.43,1.647-1.348
						C522.523,93.403,526.832,96.76,526.832,96.76z"/>
					<path style="fill:#FFFFFF;" d="M520.691,115.976c0-8.829-14.431-8.304-14.431,0c0,0,4.899,0.553,7.069-2.306
						C515.466,116.69,520.691,115.976,520.691,115.976z"/>
					<g>
						
							<path style="fill:none;stroke:#FFFFFF;stroke-width:1.5;stroke-linecap:round;stroke-linejoin:round;stroke-miterlimit:10;" d="
							M510.616,102.846c-0.24,4.506-4.087,7.964-8.593,7.724c-4.506-0.24-7.964-4.087-7.724-8.593
							c0.24-4.506,4.087-7.964,8.593-7.724S510.856,98.34,510.616,102.846z"/>
						
							<path style="fill:none;stroke:#FFFFFF;stroke-width:1.5;stroke-linecap:round;stroke-linejoin:round;stroke-miterlimit:10;" d="
							M533.691,104.075c-0.24,4.506-4.087,7.964-8.593,7.724c-4.506-0.24-7.964-4.087-7.724-8.593
							c0.24-4.506,4.087-7.964,8.593-7.724C530.473,95.722,533.931,99.569,533.691,104.075z"/>
						
							<polyline style="fill:none;stroke:#FFFFFF;stroke-width:1.5;stroke-linecap:round;stroke-linejoin:round;stroke-miterlimit:10;" points="
							491.04,98.224 492.208,101.51 494.318,101.622 						"/>
						
							<polyline style="fill:none;stroke:#FFFFFF;stroke-width:1.5;stroke-linecap:round;stroke-linejoin:round;stroke-miterlimit:10;" points="
							537.33,100.689 535.819,103.833 533.71,103.72 						"/>
						
							<line style="fill:none;stroke:#FFFFFF;stroke-width:1.5;stroke-linecap:round;stroke-linejoin:round;stroke-miterlimit:10;" x1="510.62" y1="102.491" x2="517.393" y2="102.851"/>
					</g>
					
						<path style="fill:none;stroke:#0D142D;stroke-width:1.5;stroke-linecap:round;stroke-linejoin:round;stroke-miterlimit:10;" d="
						M513.104,105.268c0,0,4.047-1.707,4.509,0.617c0.37,1.859-4.437,3.031-4.437,3.031"/>
				</g>
			</g>
			<g>
				<path style="fill:#59B3F7;" d="M569.345,194.471c0,0,0.141,36.161-32.329,47.651c-26.638,9.426-12.318-28.845-12.318-28.845
					s20.485-24.84,31.734-31.038C567.683,176.04,569.345,194.471,569.345,194.471z"/>
				<path style="fill:none;stroke:#0D142D;stroke-width:1.5;stroke-linecap:round;stroke-linejoin:round;stroke-miterlimit:10;" d="
					M520.854,234.158c0,0-2.297-11.681,3.844-20.882c4.993-7.481,26.19-30.22,34.146-32.146"/>
				<path style="fill:#1664AB;" d="M525.55,226.209h-8.691l0,0c-3.697,0-6.695,2.997-6.695,6.695v9.088
					c0,1.842,1.493,3.335,3.335,3.335l0,0c1.852,0,3.349-1.508,3.335-3.36l-0.05-6.76c-0.008-1.07,0.861-1.946,1.932-1.947h0
					c2.312,0,4.187-0.391,4.187,6.012v230.802c0,2.917,1.53,4.351,3.417,4.351c1.887,0,3.417-1.042,3.417-3.959V232.681
					C529.737,229.106,527.862,226.209,525.55,226.209z"/>
				
					<linearGradient id="SVGID_00000072250680702730005130000002615572172808605320_" gradientUnits="userSpaceOnUse" x1="291.2545" y1="242.0527" x2="263.9632" y2="212.3473" gradientTransform="matrix(-1 0 0 1 804.7756 0)">
					<stop  offset="0" style="stop-color:#FFB69C"/>
					<stop  offset="1" style="stop-color:#FF6161"/>
				</linearGradient>
				<path style="fill:url(#SVGID_00000072250680702730005130000002615572172808605320_);" d="M533.089,228.011
					c4.874,5.102,2.453,15.1-6.699,11.404c-4.846-1.957-7.403-0.731-8.738,0.855c-1.39,1.653-3.689,2.211-5.701,1.424l-8.356-3.27
					c0,0,2.967-10.31,10.555-14.747C519.457,220.573,522.285,216.703,533.089,228.011z"/>
				<path style="fill:none;stroke:#0D142D;stroke-width:1.5;stroke-linecap:round;stroke-linejoin:round;stroke-miterlimit:10;" d="
					M554.384,183.339c0,0,3.223-13.101,0.402-32.38"/>
				<path style="fill:none;stroke:#0D142D;stroke-width:1.5;stroke-linecap:round;stroke-linejoin:round;stroke-miterlimit:10;" d="
					M506.038,239.046c0,0,0.319-4.324,5.423-9.775"/>
				<path style="fill:none;stroke:#0D142D;stroke-width:1.5;stroke-linecap:round;stroke-linejoin:round;stroke-miterlimit:10;" d="
					M508.072,240.176c0,0,3.018-5.83,5.563-7.636"/>
				<path style="fill:none;stroke:#0D142D;stroke-width:1.5;stroke-linecap:round;stroke-linejoin:round;stroke-miterlimit:10;" d="
					M510.853,241.265c0,0,2.617-3.798,5.327-5.687"/>
				<path style="fill:none;stroke:#0D142D;stroke-width:1.5;stroke-linecap:round;stroke-linejoin:round;stroke-miterlimit:10;" d="
					M523.536,238.566c10.837,6.621,12.017-4.408,12.017-4.408s-5.471-17.798-18.91-11.728"/>
			</g>
		</g>
		<g>
			<path style="fill:#59B3F7;" d="M460.964,140.437c0,0,17.669,7.417,26.188,37.189c8.52,29.771-5.156,46.257-20.602,37.824
				C451.104,207.016,460.964,140.437,460.964,140.437z"/>
			<path style="fill:#59B3F7;" d="M395.865,142.808c0,0-21.722,21.073-25.016,46.04c-3.294,24.968,17.636,32.173,27.721,25.535
				C408.654,207.745,395.865,142.808,395.865,142.808z"/>
			<g>
				<g>
					
						<linearGradient id="SVGID_00000106109544713904580780000017194628733815234997_" gradientUnits="userSpaceOnUse" x1="439.4645" y1="458.0314" x2="439.9709" y2="429.926">
						<stop  offset="0" style="stop-color:#FFB69C"/>
						<stop  offset="1" style="stop-color:#FF6161"/>
					</linearGradient>
					<polygon style="fill:url(#SVGID_00000106109544713904580780000017194628733815234997_);" points="497.124,474.425 
						441.674,474.425 440.924,452.755 439.424,409.555 434.414,265.235 435.984,410.345 436.434,452.085 436.674,474.425 
						381.214,474.425 411.464,462.775 410.504,444.165 409.064,416.515 399.324,228.355 461.954,228.355 465.634,403.545 
						466.684,453.755 466.874,462.775 					"/>
					<path style="fill:#1664AB;" d="M403.52,467.294c1.542,3.421,17.118,3.051,33.02,2.101l0.131,5.034h-55.454l19.26-8.485
						C401.691,465.41,402.975,466.085,403.52,467.294z"/>
					<path style="fill:#1664AB;" d="M476.9,466.738c-1.531,3.351-18.214,3.545-35.68,2.566l0.452,5.126h55.454l-17.249-8.592
						C478.803,465.302,477.399,465.646,476.9,466.738z"/>
				</g>
				<path style="fill:none;stroke:#0D142D;stroke-width:1.5;stroke-linecap:round;stroke-linejoin:round;stroke-miterlimit:10;" d="
					M407.87,359.922c4.669,3.16,13.659,2.025,17.503,0"/>
				<path style="fill:none;stroke:#0D142D;stroke-width:1.5;stroke-linecap:round;stroke-linejoin:round;stroke-miterlimit:10;" d="
					M441.711,359.922c4.669,3.16,13.659,2.025,17.503,0"/>
				<path style="fill:#0D142D;" d="M435.984,410.345l0.45,41.74c-10.46-1.75-19.01-4.63-25.93-7.92l-1.44-27.65L435.984,410.345z"/>
				<path style="fill:#0D142D;" d="M466.684,453.755c-9.59,0.41-18.14,0-25.76-1l-1.5-43.2l26.21-6.01L466.684,453.755z"/>
			</g>
			<g>
				
					<linearGradient id="SVGID_00000034779426797881474870000015717382813668304003_" gradientUnits="userSpaceOnUse" x1="429.8344" y1="245.3287" x2="429.8344" y2="121.2535">
					<stop  offset="0" style="stop-color:#FFB69C"/>
					<stop  offset="1" style="stop-color:#FF6161"/>
				</linearGradient>
				<path style="fill:url(#SVGID_00000034779426797881474870000015717382813668304003_);" d="M458.771,139.474
					c-27.578-9.357-19.008-18.22-19.008-18.22h-20.206c0,0,7.174,5.448-19.008,18.22c-28.298,13.805-0.99,93.368-0.99,93.368
					c0,15.879,62.513,17.003,62.513,1.124C462.073,233.966,486.375,148.84,458.771,139.474z"/>
				<path style="fill:#0D142D;" d="M444.864,133.155c-2.81,2.95-6.609,4.957-12.749,4.957c-10.06,0-13.911-9.817-13.911-9.817
					l-0.21-0.11c4.4-4.77,1.56-6.93,1.56-6.93h20.21C439.764,121.255,434.704,126.485,444.864,133.155z"/>
			</g>
			<g>
				<circle style="fill:#FFFFFF;" cx="427.603" cy="78.401" r="13.869"/>
				<g>
					<path style="fill:#FF6161;" d="M457.727,118.644c-0.263,4.497-4.122,7.93-8.619,7.667c-4.497-0.263-7.93-4.122-7.667-8.62
						c0.263-4.497,4.122-7.93,8.62-7.667C454.558,110.288,457.991,114.147,457.727,118.644z"/>
					<path style="fill:#FF6161;" d="M420.547,116.468c-0.263,4.497-4.122,7.93-8.62,7.666c-4.497-0.263-7.93-4.122-7.667-8.62
						c0.263-4.497,4.122-7.93,8.62-7.666C417.378,108.112,420.81,111.971,420.547,116.468z"/>
					
						<line style="fill:none;stroke:#0D142D;stroke-width:1.5;stroke-linecap:round;stroke-linejoin:round;stroke-miterlimit:10;" x1="407.612" y1="113.352" x2="412.75" y2="119.224"/>
					
						<line style="fill:none;stroke:#0D142D;stroke-width:1.5;stroke-linecap:round;stroke-linejoin:round;stroke-miterlimit:10;" x1="408.528" y1="119.31" x2="410.358" y2="116.491"/>
					
						<line style="fill:none;stroke:#0D142D;stroke-width:1.5;stroke-linecap:round;stroke-linejoin:round;stroke-miterlimit:10;" x1="454.651" y1="116.105" x2="448.864" y2="121.338"/>
					
						<line style="fill:none;stroke:#0D142D;stroke-width:1.5;stroke-linecap:round;stroke-linejoin:round;stroke-miterlimit:10;" x1="453.047" y1="121.915" x2="451.558" y2="118.902"/>
				</g>
				<g>
					
						<linearGradient id="SVGID_00000034778715356790530700000014039997776684880301_" gradientUnits="userSpaceOnUse" x1="429.6483" y1="130.2491" x2="429.6483" y2="79.8914" gradientTransform="matrix(0.9983 0.0584 -0.0584 0.9983 8.6639 -20.6188)">
						<stop  offset="0" style="stop-color:#FFB69C"/>
						<stop  offset="1" style="stop-color:#FF6161"/>
					</linearGradient>
					<path style="fill:url(#SVGID_00000034778715356790530700000014039997776684880301_);" d="M453.679,107.571
						c-0.713,12.179-11.525,27.642-23.704,26.929c-12.179-0.713-21.114-17.331-20.401-29.51
						c0.713-12.179,11.164-21.475,23.343-20.762C445.096,84.941,454.391,95.392,453.679,107.571z"/>
					<path style="opacity:0.5;fill:#FFFFFF;" d="M451.696,116.222c-3.752,9.76-12.334,18.826-21.722,18.277
						c-9.387-0.549-16.853-10.554-19.441-20.685c3.395,9.017,10.697,17.174,19.616,17.696
						C439.069,132.031,447.273,124.781,451.696,116.222z"/>
					<path style="fill:#FF6161;" d="M453.678,107.57c-0.145,2.472-0.71,5.084-1.619,7.668c-2.422-8.885-9.775-17.968-19.482-18.536
						c-9.708-0.568-18.847,7.549-22.289,16.091c-0.602-2.672-0.858-5.333-0.714-7.805c0.713-12.18,11.162-21.474,23.342-20.761
						C445.096,84.94,454.391,95.39,453.678,107.57z"/>
					<g style="opacity:0.5;">
						<path style="fill:#FFFFFF;" d="M422.236,115.856c-0.383,1.193-2.351,1.628-4.395,0.972c-2.044-0.657-3.39-2.156-3.007-3.349
							c0.383-1.193,2.351-1.628,4.395-0.972S422.619,114.663,422.236,115.856z"/>
						<path style="fill:#FFFFFF;" d="M439.97,116.894c0.241,1.23,2.145,1.891,4.251,1.477c2.107-0.414,3.619-1.746,3.377-2.976
							c-0.242-1.23-2.145-1.891-4.252-1.478C441.241,114.332,439.729,115.664,439.97,116.894z"/>
					</g>
				</g>
				<g>
					<path style="fill:#0D142D;" d="M424.509,110.478c-0.063,1.073-0.768,1.904-1.576,1.856c-0.808-0.047-1.411-0.955-1.348-2.027
						c0.063-1.072,0.768-1.903,1.576-1.856C423.968,108.497,424.571,109.405,424.509,110.478z"/>
					<path style="fill:#0D142D;" d="M441.129,111.45c-0.063,1.072-0.768,1.903-1.576,1.856c-0.807-0.047-1.411-0.955-1.348-2.027
						c0.063-1.072,0.768-1.903,1.576-1.856C440.589,109.47,441.192,110.378,441.129,111.45z"/>
					<g>
						
							<path style="fill:none;stroke:#0D142D;stroke-width:1.5;stroke-linecap:round;stroke-linejoin:round;stroke-miterlimit:10;" d="
							M430.377,115.852c0,0,3.931-1.658,4.38,0.599c0.359,1.806-4.31,2.944-4.31,2.944"/>
						
							<line style="fill:none;stroke:#0D142D;stroke-width:1.5;stroke-linecap:round;stroke-linejoin:round;stroke-miterlimit:10;" x1="432.115" y1="112.337" x2="431.686" y2="115.437"/>
					</g>
					
						<path style="fill:none;stroke:#0D142D;stroke-width:1.5;stroke-linecap:round;stroke-linejoin:round;stroke-miterlimit:10;" d="
						M432.907,122.786c0,0-0.596,1.527-2.33,1.425c-1.525-0.089-2.148-1.687-2.148-1.687"/>
					<path style="fill:#FFFFFF;" d="M419.67,105.056l6.256,1.19c0.665,0.039,1.182-0.445,1.092-1.005
						c-0.11-0.689-0.446-1.468-1.397-1.523C423.891,103.617,419.67,105.056,419.67,105.056z"/>
					<path style="fill:#FFFFFF;" d="M443.644,106.459l-6.352,0.452c-0.665-0.039-1.122-0.58-0.968-1.125
						c0.19-0.672,0.614-1.406,1.565-1.35C439.619,104.537,443.644,106.459,443.644,106.459z"/>
					<g>
						<path style="fill:#0D142D;" d="M421.024,108.325c0,0-0.108,1.712,0.935,2.081c1.152,0.408,1.154-1.141,1.154-1.141
							S421.787,109.366,421.024,108.325z"/>
						<path style="fill:#0D142D;" d="M442.569,109.586c0,0-0.092,1.713-1.171,1.958c-1.192,0.271-1.013-1.268-1.013-1.268
							S441.689,110.531,442.569,109.586z"/>
					</g>
				</g>
				<path style="fill:#FFFFFF;" d="M410.288,112.794c5.509-5.967,8.379-12.544,8.247-19.815c4.814,4.048,16.241,5.525,26.792,0.773
					c-0.617,7.787,2.64,14.728,6.732,21.487c0,0,3.382-7.812,3.349-12.052c-0.112-14.175-13.94-21.721-22.221-22.206
					c-8.281-0.485-24.43,4.162-24.818,19.453C408.187,107.565,410.288,112.794,410.288,112.794z"/>
			</g>
			<g>
				<path style="fill:#1664AB;" d="M399.327,224.621c-24.535,17.805-17.149,118.307-18.109,206.979c0,0,55.814,28.236,124.216-3.695
					c-8.307-79.826-18.755-171.674-40.953-203.284H399.327z"/>
				<path style="fill:#0D142D;" d="M477.294,252.725c-28.43,18.391-39.723,4.651-39.723,4.651
					c-18.73,7.51-43.897-28.651-38.247-32.751h65.16C469.264,231.435,473.504,241.045,477.294,252.725z"/>
			</g>
			<g>
				<path style="fill:#59B3F7;" d="M465.855,231.447c-15.393,11.812-53.964,7.169-67.074-0.581
					c-13.12-7.76-19.366-37.221-9.726-74.251c0.02-0.09,0.05-0.18,0.07-0.27c0.43-1.63,0.87-3.16,1.33-4.61
					c0.02-0.06,0.04-0.12,0.06-0.17c2-5.47,5.21-9.73,10.04-12.09c8.08-3.94,12.98-7.19,15.9-9.79c0,0,3.11,12.87,15.45,13.12
					c12.34,0.26,12.96-9.65,12.96-9.65h0.01c3.07,2.01,7.51,4.15,13.9,6.32c7.48,2.54,11.15,10.64,12.52,21.11
					c0.01,0.07,0.02,0.14,0.03,0.22C471.994,164.865,477.445,222.553,465.855,231.447z"/>
				<path style="fill:#FFFFFF;" d="M453.604,137.555c-4.78,14.46-21.37,19.61-32.58,13.23c-7.4-4.21-10.74-10.97-12.24-15.7
					c3.44-2.04,5.91-3.84,7.67-5.4c0,0,3.11,12.87,15.45,13.12c12.34,0.26,12.96-9.65,12.96-9.65h0.01
					C447.034,134.575,449.874,136.055,453.604,137.555z"/>
				<path style="fill:#FFFFFF;" d="M438.912,162.791c0,1.532-1.242,2.773-2.773,2.773c-1.532,0-2.773-1.242-2.773-2.773
					c0-1.532,1.242-2.773,2.773-2.773C437.671,160.018,438.912,161.26,438.912,162.791z"/>
				<path style="fill:#FFFFFF;" d="M438.912,189.848c0,1.532-1.242,2.773-2.773,2.773c-1.532,0-2.773-1.242-2.773-2.773
					c0-1.532,1.242-2.773,2.773-2.773C437.671,187.075,438.912,188.316,438.912,189.848z"/>
				<path style="fill:#FFFFFF;" d="M438.912,216.962c0,1.532-1.242,2.773-2.773,2.773c-1.532,0-2.773-1.242-2.773-2.773
					c0-1.532,1.242-2.773,2.773-2.773C437.671,214.188,438.912,215.43,438.912,216.962z"/>
			</g>
			<g>
				<path style="fill:#59B3F7;" d="M370.5,194.44c0,0,6.629,57.72,33.746,55.987c27.391-1.75,14.288-29.663,14.288-29.663
					s-19.898-24.127-30.825-30.148C376.783,184.595,370.5,194.44,370.5,194.44z"/>
				<path style="fill:#FFFFFF;" d="M404.244,250.425c-13.251,0.002-15.897-7.106-15.897-7.106
					c-4.685-15.4,10.297-28.634,24.737-28.904c3.29,3.73,5.45,6.35,5.45,6.35S431.69,250.422,404.244,250.425z"/>
				<path style="fill:none;stroke:#0D142D;stroke-width:1.5;stroke-linecap:round;stroke-linejoin:round;stroke-miterlimit:10;" d="
					M421.447,237.52c0,0,2.782-10.13-2.912-16.756c-5.694-6.625-25.439-29.354-33.167-31.224"/>
				
					<linearGradient id="SVGID_00000067915639053587297720000012410232585023739580_" gradientUnits="userSpaceOnUse" x1="407.189" y1="222.352" x2="425.0542" y2="248.7376">
					<stop  offset="0" style="stop-color:#FFB69C"/>
					<stop  offset="1" style="stop-color:#FF6161"/>
				</linearGradient>
				<path style="fill:url(#SVGID_00000067915639053587297720000012410232585023739580_);" d="M402.443,235.616
					c-4.734,4.956,5.559,14.127,14.449,10.537c4.707-1.901,7.191-0.71,8.487,0.831c1.35,1.606,3.583,2.148,5.537,1.383l8.116-3.176
					c0,0-2.882-10.015-10.252-14.325C423.627,227.851,412.937,224.632,402.443,235.616z"/>
				<path style="fill:none;stroke:#0D142D;stroke-width:1.5;stroke-linecap:round;stroke-linejoin:round;stroke-miterlimit:10;" d="
					M393.204,194.44c0,0-8.229-5.253-5.49-23.979"/>
				<path style="fill:none;stroke:#0D142D;stroke-width:1.5;stroke-linecap:round;stroke-linejoin:round;stroke-miterlimit:10;" d="
					M403.747,243.184c0,0-5.224-4.096-1.304-7.568s11.789-12.253,26.338-4.75"/>
				<path style="fill:none;stroke:#0D142D;stroke-width:1.5;stroke-linecap:round;stroke-linejoin:round;stroke-miterlimit:10;" d="
					M425.49,241.424c0,0,3.42,1.255,5.427,6.942"/>
				<path style="fill:none;stroke:#0D142D;stroke-width:1.5;stroke-linecap:round;stroke-linejoin:round;stroke-miterlimit:10;" d="
					M428.203,238.239c0,0,4.365,2.674,5.612,8.994"/>
				<path style="fill:none;stroke:#0D142D;stroke-width:1.5;stroke-linecap:round;stroke-linejoin:round;stroke-miterlimit:10;" d="
					M430.285,235.551c0,0,3.53,1.317,6.826,10.391"/>
			</g>
			<g>
				<path style="fill:#59B3F7;" d="M489.674,194.44c0,0-6.629,57.72-33.746,55.987c-27.391-1.75-14.288-29.663-14.288-29.663
					s19.898-24.127,30.825-30.148C483.391,184.595,489.674,194.44,489.674,194.44z"/>
				<path style="fill:#FFFFFF;" d="M469.994,239.055c0,2.46-0.4,4.83-1.16,7.06c-3.67,2.95-7.95,4.63-12.91,4.31
					c-27.39-1.75-14.28-29.66-14.28-29.66s1.68-2.04,4.33-5.08C459.324,216.135,469.994,226.425,469.994,239.055z"/>
				<path style="fill:none;stroke:#0D142D;stroke-width:1.5;stroke-linecap:round;stroke-linejoin:round;stroke-miterlimit:10;" d="
					M438.728,237.52c0,0-2.782-10.13,2.912-16.756c5.694-6.625,25.439-29.354,33.167-31.224"/>
				
					<linearGradient id="SVGID_00000034789421031156475730000010289313084027082633_" gradientUnits="userSpaceOnUse" x1="372.4307" y1="249.1789" x2="341.0925" y2="215.0685" gradientTransform="matrix(-1 0 0 1 804.7756 0)">
					<stop  offset="0" style="stop-color:#FFB69C"/>
					<stop  offset="1" style="stop-color:#FF6161"/>
				</linearGradient>
				<path style="fill:url(#SVGID_00000034789421031156475730000010289313084027082633_);" d="M457.731,235.616
					c4.734,4.956-5.559,14.127-14.449,10.537c-4.707-1.901-7.191-0.71-8.487,0.831c-1.35,1.606-3.583,2.148-5.537,1.383
					l-8.116-3.176c0,0,2.882-10.015,10.252-14.325C436.548,227.851,447.237,224.632,457.731,235.616z"/>
				<path style="fill:none;stroke:#0D142D;stroke-width:1.5;stroke-linecap:round;stroke-linejoin:round;stroke-miterlimit:10;" d="
					M466.971,194.44c0,0,8.229-5.253,5.489-23.979"/>
				<path style="fill:none;stroke:#0D142D;stroke-width:1.5;stroke-linecap:round;stroke-linejoin:round;stroke-miterlimit:10;" d="
					M423.514,245.795c0,0,0.31-4.2,5.268-9.495"/>
				<path style="fill:none;stroke:#0D142D;stroke-width:1.5;stroke-linecap:round;stroke-linejoin:round;stroke-miterlimit:10;" d="
					M425.49,246.892c0,0,2.931-5.663,5.404-7.417"/>
				<path style="fill:none;stroke:#0D142D;stroke-width:1.5;stroke-linecap:round;stroke-linejoin:round;stroke-miterlimit:10;" d="
					M428.191,247.95c0,0,2.542-3.689,5.174-5.524"/>
				<path style="fill:none;stroke:#0D142D;stroke-width:1.5;stroke-linecap:round;stroke-linejoin:round;stroke-miterlimit:10;" d="
					M440.51,245.329c3.219-0.057,5.726,4.494,13.716-0.278c7.99-4.772,3.505-9.435,3.505-9.435s-10.863-11.856-23.916-5.961"/>
			</g>
		</g>
		<g>
			<g>
				<g>
					<polygon style="fill:#0D142D;" points="205.132,440.074 202.592,458.466 171.596,474.429 224.988,474.429 226.079,440.074 
											"/>
					<polygon style="fill:#0D142D;" points="278.076,440.195 280.616,458.587 311.612,474.55 258.22,474.55 257.129,440.195 					
						"/>
					<polygon style="fill:#0D142D;" points="278.577,207.118 286.787,449.557 247.812,449.557 241.57,280.841 233.523,449.557 
						197.626,449.557 204.562,207.118 					"/>
				</g>
				<g>
					<g>
						
							<linearGradient id="SVGID_00000176747308439444188730000001861083606893617330_" gradientUnits="userSpaceOnUse" x1="291.0229" y1="264.8266" x2="294.7989" y2="194.457" gradientTransform="matrix(0.9884 0.1518 -0.1518 0.9884 28.3555 -81.033)">
							<stop  offset="0" style="stop-color:#FFB69C"/>
							<stop  offset="1" style="stop-color:#FF6161"/>
						</linearGradient>
						<path style="fill:url(#SVGID_00000176747308439444188730000001861083606893617330_);" d="M275.921,118.478
							c0,0,28.16,20.676,10.426,130.235c0,0,18.362,32.061-16.807,32.614l3.554-34.029
							C273.094,247.298,255.019,166.72,275.921,118.478z"/>
						<path style="fill:#1664AB;" d="M276.346,118.242c0,0,16.45,4.913,20.764,62.831c4.314,57.917-7.265,57.309-7.265,57.309
							l-19.195,2.903C270.65,241.285,245.705,147.15,276.346,118.242z"/>
					</g>
					<g>
						
							<linearGradient id="SVGID_00000037665053942860762090000009538584229285051820_" gradientUnits="userSpaceOnUse" x1="234.7745" y1="132.9462" x2="229.4275" y2="104.9528">
							<stop  offset="0" style="stop-color:#FFB69C"/>
							<stop  offset="1" style="stop-color:#FF6161"/>
						</linearGradient>
						<path style="fill:url(#SVGID_00000037665053942860762090000009538584229285051820_);" d="M220.859,102.234
							c0,0,2.527,15.959-6.54,17.615c-8.877,1.621-21.213,2.542-21.213,2.542l11.456,84.728h74.015l-2.231-88.876
							c0,0-16.103-1.091-25.266-2.024c-6.517-0.664-6.99-16.282-6.99-16.282S232.785,75.098,220.859,102.234z"/>
						<path style="fill:#0D142D;" d="M245.044,107.405c-15.348,10.717-23.828-4.502-24.182-5.148
							c-0.007-0.014-0.007-0.02-0.007-0.02c11.928-27.14,23.236-2.299,23.236-2.299S244.201,103.57,245.044,107.405z"/>
					</g>
					<g>
						<path style="fill:#1664AB;" d="M193.107,122.391c0,0-3.114,47.365,0,64.661c3.114,17.296,11.456,30.501,11.456,30.501h75.91
							c0,0,5.376-20.384,6.241-33.788s-10.368-65.522-10.368-65.522l-29.701-2.217l-11.187,7.046l-15.555-5.1L193.107,122.391z"/>
						<path style="fill:#FFFFFF;" d="M220.151,114.245l15.306,8.827c0,0-19.371,16.077-22.357,8.116
							C210.114,123.228,220.151,114.245,220.151,114.245z"/>
						<path style="fill:#FFFFFF;" d="M235.457,123.072l10.901-11.404c0,0,14.358,11.708,8.865,17.781
							C251.233,133.86,235.457,123.072,235.457,123.072z"/>
					</g>
					
						<path style="fill:none;stroke:#0D142D;stroke-width:1.5;stroke-linecap:round;stroke-linejoin:round;stroke-miterlimit:10;" d="
						M280.473,217.552c0,0,6.727-24.11,6.241-33.788c-0.486-9.678-5.939-43.556-5.939-43.556"/>
					
						<line style="fill:none;stroke:#0D142D;stroke-width:1.5;stroke-linecap:round;stroke-linejoin:round;stroke-miterlimit:10;" x1="286.761" y1="146.734" x2="283.123" y2="155.396"/>
					<g>
						<path style="fill:#1664AB;" d="M193.107,122.391c-17.17,8.495-33.753,34.398-35.184,65.837
							c0.848,10.204,13.332,25.469,23.484,24.323l40.668-1.309c11.361-1.678,20.492-10.221,22.921-21.445l0,0
							c0.114-11.478-8.995-13.256-12.545-13.871l-40.916,0.368L193.107,122.391z"/>
						
							<path style="fill:none;stroke:#0D142D;stroke-width:1.5;stroke-linecap:round;stroke-linejoin:round;stroke-miterlimit:10;" d="
							M186.574,188.228c0.242-9.716,4.961-11.933,4.961-11.933l37.059,0.109"/>
						
							<path style="fill:none;stroke:#0D142D;stroke-width:1.5;stroke-linecap:round;stroke-linejoin:round;stroke-miterlimit:10;" d="
							M181.407,179.848c0,0,4.428-2.913,10.128-3.554l1.572-22.089"/>
						
							<line style="fill:none;stroke:#0D142D;stroke-width:1.5;stroke-linecap:round;stroke-linejoin:round;stroke-miterlimit:10;" x1="222.074" y1="211.242" x2="181.407" y2="212.551"/>
					</g>
				</g>
				<g>
					<g>
						
							<ellipse transform="matrix(0.5911 -0.8066 0.8066 0.5911 33.9792 237.9372)" style="fill:#FF6161;" cx="251.655" cy="85.457" rx="8.952" ry="8.952"/>
						<path style="fill:#FF6161;" d="M220.106,90.323c0.754,4.886-2.597,9.458-7.483,10.212c-4.886,0.754-9.458-2.597-10.212-7.483
							s2.596-9.458,7.483-10.212C214.78,82.086,219.352,85.436,220.106,90.323z"/>
						
							<line style="fill:none;stroke:#0D142D;stroke-width:1.5;stroke-linecap:round;stroke-linejoin:round;stroke-miterlimit:10;" x1="205.508" y1="89.959" x2="212.374" y2="95.076"/>
						
							<line style="fill:none;stroke:#0D142D;stroke-width:1.5;stroke-linecap:round;stroke-linejoin:round;stroke-miterlimit:10;" x1="207.863" y1="96.14" x2="209.178" y2="92.694"/>
						
							<line style="fill:none;stroke:#0D142D;stroke-width:1.5;stroke-linecap:round;stroke-linejoin:round;stroke-miterlimit:10;" x1="256.617" y1="82.076" x2="251.612" y2="89.024"/>
						
							<line style="fill:none;stroke:#0D142D;stroke-width:1.5;stroke-linecap:round;stroke-linejoin:round;stroke-miterlimit:10;" x1="256.233" y1="88.68" x2="253.942" y2="85.79"/>
					</g>
					<g>
						
							<linearGradient id="SVGID_00000148658922803100791210000005782825148405954946_" gradientUnits="userSpaceOnUse" x1="243.4862" y1="104.1608" x2="243.4862" y2="48.8934" gradientTransform="matrix(0.9883 -0.1524 0.1524 0.9883 -22.1366 41.6649)">
							<stop  offset="0" style="stop-color:#FFB69C"/>
							<stop  offset="1" style="stop-color:#FF6161"/>
						</linearGradient>
						<path style="fill:url(#SVGID_00000148658922803100791210000005782825148405954946_);" d="M253.607,73.144
							c2.041,13.233-5.998,32.315-19.231,34.356c-13.233,2.041-26.648-13.732-28.689-26.965
							c-2.041-13.233,7.032-25.615,20.265-27.655C239.184,50.838,251.566,59.911,253.607,73.144z"/>
						<path style="opacity:0.5;fill:#FFFFFF;" d="M253.473,82.883c-1.778,11.337-8.898,23.042-19.097,24.615
							c-10.199,1.573-20.515-7.442-25.626-17.717c5.72,8.893,15.435,15.964,25.125,14.469
							C243.565,102.755,250.698,93.086,253.473,82.883z"/>
						<path style="fill:#FF6161;" d="M253.606,73.142c0.414,2.686,0.41,5.619,0.029,8.601c-4.646-8.976-14.99-16.575-25.537-14.949
							c-10.547,1.627-18.121,11.989-19.847,21.948c-1.261-2.729-2.149-5.524-2.563-8.21c-2.041-13.233,7.031-25.613,20.264-27.654
							C239.185,50.837,251.565,59.909,253.606,73.142z"/>
						<g style="opacity:0.5;">
							<path style="fill:#FFFFFF;" d="M221.778,89.076c-0.136,1.369-2.148,2.289-4.492,2.055c-2.345-0.234-4.135-1.533-3.998-2.901
								c0.136-1.368,2.148-2.288,4.492-2.055C220.124,86.409,221.914,87.707,221.778,89.076z"/>
							<path style="fill:#FFFFFF;" d="M241.046,86.104c0.542,1.264,2.737,1.535,4.902,0.606c2.165-0.929,3.48-2.707,2.938-3.971
								c-0.542-1.264-2.737-1.535-4.902-0.606C241.819,83.062,240.504,84.84,241.046,86.104z"/>
						</g>
					</g>
					<path style="fill:#0D142D;" d="M210.246,92.518l-2.383-12.835c0,0,4.07-0.765,3.357-5.663c0,0,2.528-8.956,15.293-11.304
						c13.264-2.439,17.405,3.822,17.405,3.822c1.336,1.871,2.444,4.785,6.167,4.13l2.851,15.146c0,0,2.607-10.01,0.982-19.365
						c0,0,3.152-12.032,0.023-16.324l-2.287,0.494c0,0,0.062-7.348-5.084-10.645c0,0-11.106-2.013-18.501,3.957l-1.856-1.594
						c0,0-22.654,10.481-22.031,22.331c0,0-4.633,0.374-4.811,5.666C199.193,75.625,210.246,92.518,210.246,92.518z"/>
					<g>
						<path style="fill:#0D142D;" d="M223.238,82.437c0.195,1.121-0.331,2.149-1.175,2.296c-0.844,0.147-1.686-0.643-1.881-1.764
							c-0.195-1.121,0.331-2.149,1.175-2.295C222.201,80.526,223.043,81.316,223.238,82.437z"/>
						<path style="fill:#0D142D;" d="M240.612,79.417c0.195,1.121-0.331,2.149-1.175,2.296c-0.844,0.147-1.686-0.643-1.881-1.764
							c-0.195-1.121,0.331-2.149,1.175-2.295C239.575,77.506,240.417,78.296,240.612,79.417z"/>
						
							<line style="fill:none;stroke:#0D142D;stroke-width:1.5;stroke-linecap:round;stroke-linejoin:round;stroke-miterlimit:10;" x1="231.531" y1="82.513" x2="231.84" y2="85.813"/>
						<path style="fill:#FFFFFF;" d="M238.344,92.974c0,0-0.333,3.784-4.751,4.528c-3.827,0.644-6-2.659-6-2.659L238.344,92.974z"/>
						<path style="fill:#0D142D;" d="M216.489,75.442l6.739-0.287c0.695-0.121,1.11-0.745,0.883-1.3
							c-0.28-0.684-0.815-1.405-1.809-1.233C220.493,72.937,216.489,75.442,216.489,75.442z"/>
						<path style="fill:#0D142D;" d="M241.549,71.087l-6.441,2.004c-0.695,0.121-1.297-0.327-1.27-0.926
							c0.033-0.739,0.293-1.598,1.287-1.771C236.934,70.079,241.549,71.087,241.549,71.087z"/>
						
							<path style="fill:none;stroke:#0D142D;stroke-width:1.5;stroke-linecap:round;stroke-linejoin:round;stroke-miterlimit:10;" d="
							M230.59,86.558c0,0,3.652-2.661,4.661-0.443c0.808,1.776-3.732,4.079-3.732,4.079"/>
					</g>
				</g>
			</g>
			<g>
				<path style="fill:#0D142D;" d="M314.933,69.348c0,0-4.252,21.974-11.695,31.365c-7.443,9.39-35.451,44.278,25.925,47.87
					s43.161-31.531,40.465-37.135c-2.697-5.604-8.288-16.181-7.236-34.156L314.933,69.348z"/>
				<g>
					
						<linearGradient id="SVGID_00000055665287860724672910000005780970295728337585_" gradientUnits="userSpaceOnUse" x1="384.5284" y1="210.373" x2="387.8053" y2="127.4662">
						<stop  offset="0" style="stop-color:#FFB69C"/>
						<stop  offset="1" style="stop-color:#FF6161"/>
					</linearGradient>
					<path style="fill:url(#SVGID_00000055665287860724672910000005780970295728337585_);" d="M393.19,207.095
						c-7.91-0.82-21.36-15.33-25.7-41.53c-1.95-11.67-0.71-24.49,1.29-41.47c0.04-0.38,0.08-0.76,0.13-1.15c0,0,0.22,0.16,0.62,0.49
						c2.19,1.82,9.9,8.91,18.83,25.04c4.4,7.93,9.08,18.03,13.55,30.77C412.18,208.495,397.39,207.525,393.19,207.095z"/>
					<path style="fill:#59B3F7;" d="M388.36,148.475c-0.94,6.51-4.65,18.28-19.16,18.56c-1.95-11.67-2.42-25.96-0.42-42.94
						c0.28-0.24-0.09-0.95,0.13-1.15c0.8-0.68,1.89-0.57,1.89-0.57s16.26,14.05,17.88,21.87
						C388.68,144.245,388.73,145.975,388.36,148.475z"/>
				</g>
				<g>
					<g>
						
							<linearGradient id="SVGID_00000058571314973875468010000017600141388845349275_" gradientUnits="userSpaceOnUse" x1="346.0161" y1="456.4432" x2="346.5696" y2="425.723">
							<stop  offset="0" style="stop-color:#FFB69C"/>
							<stop  offset="1" style="stop-color:#FF6161"/>
						</linearGradient>
						<polygon style="fill:url(#SVGID_00000058571314973875468010000017600141388845349275_);" points="304.129,205.394 
							317.197,462.445 286.082,474.429 343.12,474.429 336.684,259.258 348.264,474.429 405.302,474.429 374.187,462.445 
							370.318,205.394 						"/>
						<path style="fill:#1664AB;" d="M309.022,467.09c1.587,3.519,17.607,3.138,33.964,2.161l0.135,5.178h-57.038l19.81-8.727
							C307.141,465.152,308.461,465.847,309.022,467.09z"/>
						<path style="fill:#1664AB;" d="M384.498,466.518c-1.575,3.447-18.735,3.646-36.699,2.639l0.465,5.272h57.038l-17.742-8.838
							C386.455,465.041,385.011,465.395,384.498,466.518z"/>
					</g>
					
						<path style="fill:none;stroke:#0D142D;stroke-width:1.5;stroke-linecap:round;stroke-linejoin:round;stroke-miterlimit:10;" d="
						M313.496,356.651c0,0,7.881,5.333,18.003,0"/>
					
						<path style="fill:none;stroke:#0D142D;stroke-width:1.5;stroke-linecap:round;stroke-linejoin:round;stroke-miterlimit:10;" d="
						M348.304,356.651c0,0,7.881,5.333,18.003,0"/>
					<polygon style="fill:#0D142D;" points="347.01,451.285 336.68,259.255 342.43,451.285 316.63,451.285 304.13,205.395 
						370.32,205.395 374.02,451.285 					"/>
				</g>
				<g>
					
						<linearGradient id="SVGID_00000098919498891429415310000010220657034990908311_" gradientUnits="userSpaceOnUse" x1="268.03" y1="213.7404" x2="271.5938" y2="123.5758">
						<stop  offset="0" style="stop-color:#FFB69C"/>
						<stop  offset="1" style="stop-color:#FF6161"/>
					</linearGradient>
					<path style="fill:url(#SVGID_00000098919498891429415310000010220657034990908311_);" d="M305.966,120.83
						c0,0-9.34,1.542-27.389,49.897l-32.007,14.099c0,0-13.803,5.515-18.309,16.592c-4.506,11.077,19.428,6.064,19.428,6.064
						l30.981,0.017c7.154,2.317,14.934-0.864,18.405-7.535C305.254,184.244,318.771,154.111,305.966,120.83z"/>
					
						<polyline style="fill:none;stroke:#0D142D;stroke-width:1.5;stroke-linecap:round;stroke-linejoin:round;stroke-miterlimit:10;" points="
						278.577,177.706 278.577,170.726 282.477,177.706 					"/>
					<path style="fill:#59B3F7;" d="M305.97,120.825c0,0-10.017,4.426-19.888,23.877c-0.065,3.802,4.04,17.088,22.269,19.316
						C326.58,166.245,323.588,129.562,305.97,120.825z"/>
				</g>
				<g>
					<g>
						
							<linearGradient id="SVGID_00000183933726614845421370000006849192009208232867_" gradientUnits="userSpaceOnUse" x1="338.3076" y1="133.1071" x2="340.5562" y2="102.9107">
							<stop  offset="0" style="stop-color:#FFB69C"/>
							<stop  offset="1" style="stop-color:#FF6161"/>
						</linearGradient>
						<path style="fill:url(#SVGID_00000183933726614845421370000006849192009208232867_);" d="M370.32,205.395
							c0,16.33-66.19,16.33-66.19,0c0,0,5.46-19.32,3.36-39.83c-2.15-21.11-11.3-43.43-2.17-44.69c0.21-0.03,0.43-0.04,0.65-0.05
							c0.83-0.02,1.62-0.06,2.39-0.12c0.5-0.03,0.98-0.08,1.45-0.13c0.08,0,0.16-0.01,0.24-0.02c24.88-2.68,15.47-22.58,15.47-22.58
							h20.78c0,0-10.05,21.29,18.09,22.79c0.48,0.03,0.96,0.05,1.46,0.06c0.3,0.01,0.58,0.03,0.87,0.06
							c1.7,0.16,3.02,0.66,4.02,1.45c0.01,0,0.01,0.01,0.01,0.01c6.53,5.26-0.67,23.35-3.26,43.22
							C365.16,183.465,370.32,205.395,370.32,205.395z"/>
						<path style="fill:#0D142D;" d="M346.48,113.205c-11.403,5.13-19.107-4.169-19.459-4.55c0.976-5.458-1.523-10.681-1.523-10.681
							h20.786C346.285,97.975,342.233,106.557,346.48,113.205z"/>
					</g>
					<path style="fill:#59B3F7;" d="M367.037,170.463c15.56-8.867,6.373-39.954,6.373-39.954s-0.001,0.002-0.001,0.002
						c0.054-3.718-0.653-6.549-2.659-8.165c0,0,0-0.01-0.01-0.01c-1.17-0.79-2.51-1.28-4.02-1.45c-0.29-0.03-0.57-0.05-0.87-0.06
						c-0.5-0.01-0.98-0.03-1.46-0.06c-1.3,7.86,16.12,21.64-25.96,21.61c-44.52-0.03-28.54-13.93-28.38-21.82
						c-0.08,0.01-0.16,0.02-0.24,0.02c-0.47,0.05-0.95,0.1-1.45,0.13c-0.77,0.06-1.56,0.1-2.39,0.12c-0.22,0.01-0.44,0.02-0.65,0.05
						c-2.875,0.397-3.936,2.885-3.974,6.764c0,0,0-0.001,0-0.001c0,0-7.557,32.515,6.506,42.823
						c0.894,18.584-3.721,34.934-3.721,34.934c0,16.33,66.19,16.33,66.19,0C370.32,205.395,366.047,187.225,367.037,170.463z"/>
					
						<path style="fill:none;stroke:#0D142D;stroke-width:1.5;stroke-linecap:round;stroke-linejoin:round;stroke-miterlimit:10;" d="
						M307.851,170.461c0,0-11.699-6.431-8.302-30.252"/>
					
						<path style="fill:none;stroke:#0D142D;stroke-width:1.5;stroke-linecap:round;stroke-linejoin:round;stroke-miterlimit:10;" d="
						M367.037,170.463c0,0,10.903-5.271,8.836-26.216"/>
					
						<line style="fill:none;stroke:#0D142D;stroke-width:1.5;stroke-linecap:round;stroke-linejoin:round;stroke-miterlimit:10;" x1="380.509" y1="150.054" x2="375.75" y2="155.123"/>
					
						<line style="fill:none;stroke:#0D142D;stroke-width:1.5;stroke-linecap:round;stroke-linejoin:round;stroke-miterlimit:10;" x1="295.487" y1="143.2" x2="298.937" y2="148.925"/>
				</g>
				<g>
					<g>
						
							<ellipse transform="matrix(0.1904 -0.9817 0.9817 0.1904 197.5504 424.9399)" style="fill:#FF6161;" cx="356.402" cy="92.702" rx="8.39" ry="8.39"/>
						<circle style="fill:#FF6161;" cx="318.16" cy="90.464" r="8.39"/>
						
							<line style="fill:none;stroke:#0D142D;stroke-width:1.5;stroke-linecap:round;stroke-linejoin:round;stroke-miterlimit:10;" x1="313.231" y1="87.749" x2="318.515" y2="93.789"/>
						
							<line style="fill:none;stroke:#0D142D;stroke-width:1.5;stroke-linecap:round;stroke-linejoin:round;stroke-miterlimit:10;" x1="314.173" y1="93.876" x2="316.055" y2="90.977"/>
						
							<line style="fill:none;stroke:#0D142D;stroke-width:1.5;stroke-linecap:round;stroke-linejoin:round;stroke-miterlimit:10;" x1="361.614" y1="90.58" x2="355.661" y2="95.963"/>
						
							<line style="fill:none;stroke:#0D142D;stroke-width:1.5;stroke-linecap:round;stroke-linejoin:round;stroke-miterlimit:10;" x1="359.964" y1="96.556" x2="358.432" y2="93.457"/>
					</g>
					<g>
						
							<linearGradient id="SVGID_00000109713056003951737440000000413570832325252011_" gradientUnits="userSpaceOnUse" x1="334.6067" y1="110.7672" x2="334.6067" y2="58.971" gradientTransform="matrix(0.9983 0.0584 -0.0584 0.9983 8.6639 -20.6188)">
							<stop  offset="0" style="stop-color:#FFB69C"/>
							<stop  offset="1" style="stop-color:#FF6161"/>
						</linearGradient>
						<path style="fill:url(#SVGID_00000109713056003951737440000000413570832325252011_);" d="M360.613,81.803
							c-0.733,12.527-11.854,28.431-24.381,27.698s-21.717-17.826-20.984-30.353c0.733-12.527,11.483-22.088,24.01-21.355
							S361.347,69.276,360.613,81.803z"/>
						<path style="opacity:0.5;fill:#FFFFFF;" d="M358.575,90.701c-3.859,10.039-12.687,19.364-22.342,18.799
							c-9.656-0.565-17.335-10.856-19.997-21.276c3.492,9.274,11.003,17.665,20.177,18.201
							C345.586,106.961,354.025,99.504,358.575,90.701z"/>
						<path style="fill:#FF6161;" d="M360.613,81.801c-0.149,2.543-0.73,5.23-1.665,7.887c-2.491-9.139-10.213-22.61-20.198-23.194
							c-9.985-0.584-19.226,11.894-22.766,20.68c-0.619-2.749-0.883-5.485-0.734-8.028c0.733-12.528,11.481-22.087,24.009-21.354
							C351.786,58.525,361.346,69.273,360.613,81.801z"/>
						<g style="opacity:0.5;">
							<path style="fill:#FFFFFF;" d="M328.272,90.324c-0.394,1.227-2.418,1.675-4.52,0.999c-2.102-0.675-3.487-2.218-3.093-3.445
								c0.394-1.227,2.418-1.675,4.52-0.999C327.282,87.554,328.667,89.097,328.272,90.324z"/>
							<path style="fill:#FFFFFF;" d="M346.513,91.392c0.248,1.265,2.206,1.945,4.373,1.52c2.167-0.425,3.722-1.796,3.474-3.061
								c-0.248-1.265-2.206-1.945-4.373-1.52S346.265,90.127,346.513,91.392z"/>
						</g>
					</g>
					<g>
						<path style="fill:#0D142D;" d="M330.61,84.792c-0.065,1.103-0.79,1.958-1.621,1.909s-1.452-0.982-1.387-2.085
							c0.065-1.103,0.79-1.958,1.621-1.909S330.675,83.689,330.61,84.792z"/>
						<path style="fill:#0D142D;" d="M347.706,85.793c-0.064,1.103-0.79,1.958-1.62,1.909c-0.831-0.049-1.452-0.982-1.387-2.085
							c0.064-1.103,0.79-1.958,1.621-1.909S347.77,84.689,347.706,85.793z"/>
						<g>
							
								<path style="fill:none;stroke:#0D142D;stroke-width:1.5;stroke-linecap:round;stroke-linejoin:round;stroke-miterlimit:10;" d="
								M336.646,90.32c0,0,4.043-1.705,4.505,0.616c0.37,1.858-4.433,3.028-4.433,3.028"/>
							
								<line style="fill:none;stroke:#0D142D;stroke-width:1.5;stroke-linecap:round;stroke-linejoin:round;stroke-miterlimit:10;" x1="338.434" y1="86.705" x2="337.993" y2="89.893"/>
						</g>
						<path style="fill:#FFFFFF;" d="M341.92,97.608c0,0-1.324,3.392-5.177,3.167c-3.389-0.198-4.772-3.749-4.772-3.749
							L341.92,97.608z"/>
						<path style="fill:#0D142D;" d="M325.633,79.216l6.435,1.224c0.684,0.04,1.215-0.458,1.124-1.033
							c-0.113-0.709-0.459-1.51-1.437-1.567C329.975,77.736,325.633,79.216,325.633,79.216z"/>
						<path style="fill:#0D142D;" d="M350.292,80.659l-6.534,0.465c-0.684-0.04-1.154-0.597-0.995-1.157
							c0.195-0.691,0.632-1.446,1.61-1.388C346.152,78.682,350.292,80.659,350.292,80.659z"/>
						<g>
							<path style="fill:#0D142D;" d="M327.026,82.578c0,0-0.111,1.761,0.962,2.141c1.185,0.42,1.187-1.174,1.187-1.174
								S327.811,83.649,327.026,82.578z"/>
							<path style="fill:#0D142D;" d="M349.187,83.875c0,0-0.095,1.762-1.205,2.014c-1.226,0.279-1.042-1.304-1.042-1.304
								S348.281,84.847,349.187,83.875z"/>
						</g>
					</g>
					<path style="fill:#0D142D;" d="M316.366,92.494l22.384-26.008l18.569,29.574c0,0,4.221-4.212,5.073-18.768
						c0.852-14.556-14.339-22.342-22.856-22.841c-8.517-0.498-24.608,4.303-25.527,20.009
						C313.089,90.167,316.366,92.494,316.366,92.494z"/>
				</g>
				<path style="fill:#FFFFFF;" d="M357.19,146.065c-18.59,2.65-19.19,2.64-42.24-1.36c-16.87-2.93-12.86-16.67-9.49-23.84
					c0.17-0.02,0.34-0.03,0.51-0.04c0.83-0.02,1.62-0.06,2.39-0.12c0.5-0.03,0.98-0.08,1.45-0.13c0.08,0,0.16-0.01,0.24-0.02
					c-0.16,7.89-16.14,21.79,28.38,21.82c42.08,0.03,24.66-13.75,25.96-21.61c0.48,0.03,0.96,0.05,1.46,0.06
					c0.3,0.01,0.58,0.03,0.87,0.06c0.01,0,0.03,0,0.04,0.01C373.86,133.145,373.63,143.715,357.19,146.065z"/>
			</g>
			<g>
				<path style="fill:#0D142D;" d="M317.427,158.376c0,0-2.437,16.748-8.089,22.423c-6.501,6.527-14.736,26.933,23.692,32.095
					c38.428,5.162,30.674-15.769,26.885-22.28c-3.181-5.466,3.651-27.317,3.651-27.317L317.427,158.376z"/>
				<g>
					
						<linearGradient id="SVGID_00000068643632837521723050000005133534932654920126_" gradientUnits="userSpaceOnUse" x1="383.998" y1="261.5591" x2="374.0238" y2="186.5031">
						<stop  offset="0" style="stop-color:#FFB69C"/>
						<stop  offset="1" style="stop-color:#FF6161"/>
					</linearGradient>
					<path style="fill:url(#SVGID_00000068643632837521723050000005133534932654920126_);" d="M355.88,192.186
						c0,0,35.842,8.505,43.464,33.548c4.439,14.587-13.914,25.41-13.914,25.41l6.79,8.181c0,0-7.791,8.197-15.95-1.967
						c-8.159-10.164-2.283-31.149-2.283-31.149S350.509,203.837,355.88,192.186z"/>
					
						<path style="fill:none;stroke:#0D142D;stroke-width:1.5;stroke-linecap:round;stroke-linejoin:round;stroke-miterlimit:10;" d="
						M388.68,228.352c0,0-8.437-3.29-14.691-2.144c0,0,6.024-3.882,12.008-2.947"/>
					<path style="fill:#1664AB;" d="M384.159,201.793c0,0,3.06,10.723-10.17,24.416c0,0-29.071-14.564-18.108-34.022
						C355.88,192.186,372.269,194.837,384.159,201.793z"/>
				</g>
				<g>
					
						<linearGradient id="SVGID_00000093172824936133811270000002067007926096867510_" gradientUnits="userSpaceOnUse" x1="281.8458" y1="258.3669" x2="272.4525" y2="187.6821" gradientTransform="matrix(-0.9537 0.3007 0.3007 0.9537 497.4249 -63.9731)">
						<stop  offset="0" style="stop-color:#FFB69C"/>
						<stop  offset="1" style="stop-color:#FF6161"/>
					</linearGradient>
					<path style="fill:url(#SVGID_00000093172824936133811270000002067007926096867510_);" d="M313.031,196.719
						c0,0-31.627,18.888-31.366,45.064c0.152,15.247,15.83,15.834,15.83,15.834l-4.016,9.844c0,0,13.616,6.045,18.341-6.102
						c4.725-12.147-5.83-26.748-5.83-26.748S321.656,206.216,313.031,196.719z"/>
					
						<path style="fill:none;stroke:#0D142D;stroke-width:1.5;stroke-linecap:round;stroke-linejoin:round;stroke-miterlimit:10;" d="
						M292.623,241.074c0,0,7.058-5.675,13.367-6.462c0,0-6.912-1.891-12.339,0.8"/>
					<path style="fill:#1664AB;" d="M288.949,214.384c0,0,0.306,11.147,17.041,20.228c0,0,23.347-22.631,7.041-37.893
						C313.031,196.719,298.198,204.175,288.949,214.384z"/>
				</g>
				<g>
					<g>
						
							<linearGradient id="SVGID_00000158715811928779292700000006355592436920460693_" gradientUnits="userSpaceOnUse" x1="352.9848" y1="387.7006" x2="348.107" y2="332.012">
							<stop  offset="0" style="stop-color:#FFB69C"/>
							<stop  offset="1" style="stop-color:#FF6161"/>
						</linearGradient>
						<polygon style="fill:url(#SVGID_00000158715811928779292700000006355592436920460693_);" points="311.389,268.876 
							326.557,463.884 349.367,474.429 343.703,285.096 353.893,474.429 376.703,463.884 375.199,263.41 						"/>
						<polygon style="fill:#0D142D;" points="326.557,463.884 349.248,469.873 349.367,474.429 299.178,474.429 						"/>
						<polygon style="fill:#0D142D;" points="376.703,463.884 353.484,469.79 353.893,474.429 404.082,474.429 						"/>
					</g>
					
						<path style="fill:none;stroke:#0D142D;stroke-width:1.5;stroke-linecap:round;stroke-linejoin:round;stroke-miterlimit:10;" d="
						M323.3,370.794c0,0,6.934,4.692,15.841,0"/>
					
						<path style="fill:none;stroke:#0D142D;stroke-width:1.5;stroke-linecap:round;stroke-linejoin:round;stroke-miterlimit:10;" d="
						M353.928,370.794c0,0,6.935,4.692,15.841,0"/>
					
						<line style="fill:none;stroke:#0D142D;stroke-width:1.5;stroke-linecap:round;stroke-linejoin:round;stroke-miterlimit:10;" x1="349.3" y1="472.189" x2="344.997" y2="328.338"/>
				</g>
				<g>
					<g>
						<g>
							
								<linearGradient id="SVGID_00000078027243487911299530000007205467371422902204_" gradientUnits="userSpaceOnUse" x1="338.8815" y1="206.2178" x2="337.3232" y2="185.337">
								<stop  offset="0" style="stop-color:#FFB69C"/>
								<stop  offset="1" style="stop-color:#FF6161"/>
							</linearGradient>
							<path style="fill:url(#SVGID_00000078027243487911299530000007205467371422902204_);" d="M378.335,254.343
								c0.869,17.573-70.323,24.324-71.193,5.478c0,0-7.087-62.725,9.291-64.6c2.494-0.287,4.543-0.752,6.222-1.364
								c11.551-4.158,5.497-14.678,5.497-14.678l13.692-1.054c0,0-4.431,11.612,7.927,13.763c1.698,0.294,3.718,0.416,6.108,0.298
								C372.341,191.388,378.335,254.343,378.335,254.343z"/>
							<path style="fill:#0D142D;" d="M342.742,188.152c-7.25,3.957-12.795-1.777-13.046-2.01c0.366-3.644-1.544-6.958-1.544-6.958
								l13.69-1.053C341.842,178.13,339.608,183.988,342.742,188.152z"/>
						</g>
						<path style="fill:#1664AB;" d="M378.338,254.339c0.866,17.582-70.327,24.326-71.193,5.478c0,0-7.091-62.716,9.289-64.6
							c2.49-0.282,4.547-0.747,6.225-1.364c1.299-0.466,2.382-1.018,3.27-1.624c0.206,0.346,4.645,7.806,11.032,6.875
							c6.431-0.953,8.715-8.26,8.791-8.488c1.083,0.552,2.403,0.996,4.017,1.277c1.7,0.292,3.724,0.411,6.117,0.292
							C372.34,191.385,378.338,254.339,378.338,254.339z"/>
					</g>
					<path style="fill:#0D142D;" d="M317.113,195.137c0,0-1.153,33.844-11.483,38.793l-10.143,106.502
						c0,0,54.903,13.653,103.857-5.566c0,0-15.077-64.587-25.355-108.657c0,0-16.009-17.898-18.108-34.022l-6.108-0.298
						l12.039,35.977l-44.172,2.954l5.016-36.962L317.113,195.137z"/>
					
						<path style="fill:none;stroke:#FFFFFF;stroke-width:1.5;stroke-linecap:round;stroke-linejoin:round;stroke-miterlimit:10;" d="
						M313.699,262.54c0,0,11.73-3.214,11.445-19.301l32.701-2.325c0,0,2.433,17.766,11.924,18.412"/>
					<path style="fill:#FFFFFF;" d="M332.306,248.622c0,0.997-0.808,1.805-1.805,1.805c-0.997,0-1.805-0.808-1.805-1.805
						c0-0.997,0.808-1.805,1.805-1.805C331.498,246.816,332.306,247.625,332.306,248.622z"/>
					<path style="fill:#FFFFFF;" d="M355.214,246.856c0,0.997-0.808,1.805-1.805,1.805c-0.997,0-1.805-0.808-1.805-1.805
						s0.808-1.805,1.805-1.805C354.406,245.051,355.214,245.859,355.214,246.856z"/>
					
						<line style="fill:none;stroke:#0D142D;stroke-width:1.5;stroke-linecap:round;stroke-linejoin:round;stroke-miterlimit:10;" x1="369.126" y1="208.25" x2="376.483" y2="238.239"/>
				</g>
				<g>
					<g>
						<path style="fill:#FFFFFF;" d="M355.315,139.914c0,0-9.221-4.804-0.003-15.94
							C355.312,123.974,365.291,133.115,355.315,139.914z"/>
						<path style="fill:#FFFFFF;" d="M354.955,140.991c0,0,8.09,6.532,14.612-6.369C369.568,134.622,357.2,129.129,354.955,140.991z
							"/>
					</g>
					<path style="fill:#FFFFFF;" d="M358.111,172.554c0,0,6.645-6.275,6.84-13.794c5.602-26.399-41.114-36.174-46.716-9.775
						c0,0-3.058,8.995,0.227,15.227l2.699-13.25c3.882-22.569,44.296-15.617,40.414,6.952L358.111,172.554z"/>
					<g>
						<path style="fill:#FF6161;" d="M364.34,173.733c-0.772,4.077-4.93,6.713-9.288,5.888c-4.358-0.825-7.265-4.799-6.493-8.876
							c0.772-4.077,4.93-6.713,9.288-5.888C362.205,165.682,365.112,169.656,364.34,173.733z"/>
						<path style="fill:#FF6161;" d="M328.313,166.913c-0.772,4.077-4.93,6.713-9.288,5.888c-4.358-0.825-7.265-4.799-6.493-8.875
							c0.772-4.077,4.93-6.713,9.288-5.888C326.177,158.863,329.084,162.837,328.313,166.913z"/>
						
							<line style="fill:none;stroke:#0D142D;stroke-width:1.5;stroke-linecap:round;stroke-linejoin:round;stroke-miterlimit:10;" x1="316.049" y1="162.385" x2="320.389" y2="168.42"/>
						
							<line style="fill:none;stroke:#0D142D;stroke-width:1.5;stroke-linecap:round;stroke-linejoin:round;stroke-miterlimit:10;" x1="316.26" y1="167.949" x2="318.369" y2="165.611"/>
						
							<line style="fill:none;stroke:#0D142D;stroke-width:1.5;stroke-linecap:round;stroke-linejoin:round;stroke-miterlimit:10;" x1="361.629" y1="171.012" x2="355.383" y2="175.044"/>
						
							<line style="fill:none;stroke:#0D142D;stroke-width:1.5;stroke-linecap:round;stroke-linejoin:round;stroke-miterlimit:10;" x1="359.399" y1="176.115" x2="358.291" y2="173.167"/>
					</g>
					<g>
						
							<linearGradient id="SVGID_00000071523031783149031020000016150479660938267792_" gradientUnits="userSpaceOnUse" x1="334.704" y1="189.415" x2="334.704" y2="147.1712" gradientTransform="matrix(0.9826 0.186 -0.186 0.9826 41.7973 -63.752)">
							<stop  offset="0" style="stop-color:#FFB69C"/>
							<stop  offset="1" style="stop-color:#FF6161"/>
						</linearGradient>
						<path style="fill:url(#SVGID_00000071523031783149031020000016150479660938267792_);" d="M361.657,163.085
							c-2.09,11.041-14.409,23.771-26.211,21.537c-11.802-2.234-18.616-18.586-16.526-29.627
							c2.09-11.041,12.582-14.116,24.383-11.882C355.105,145.347,363.747,152.044,361.657,163.085z"/>
						<path style="opacity:0.5;fill:#FFFFFF;" d="M358.733,170.736c-4.779,8.435-14.19,15.607-23.286,13.885
							c-9.096-1.722-15.235-11.837-16.6-21.435c2.28,8.683,8.471,17.089,17.113,18.725
							C344.602,183.547,353.437,177.985,358.733,170.736z"/>
						<g style="opacity:0.5;">
							<path style="fill:#FFFFFF;" d="M330.089,166.415c-0.51,1.041-2.48,1.183-4.399,0.317c-1.919-0.866-3.061-2.411-2.55-3.452
								c0.51-1.041,2.48-1.183,4.399-0.317C329.458,163.829,330.6,165.374,330.089,166.415z"/>
							<path style="fill:#FFFFFF;" d="M347.274,169.668c0.095,1.156,1.876,2.008,3.979,1.903c2.103-0.104,3.73-1.126,3.636-2.281
								c-0.095-1.156-1.876-2.008-3.979-1.903C348.806,167.491,347.179,168.512,347.274,169.668z"/>
						</g>
					</g>
					<g>
						<path style="fill:#0D142D;" d="M333.602,161.323c-0.262,1.382-1.375,2.332-2.488,2.121c-1.112-0.211-1.802-1.502-1.54-2.884
							c0.262-1.382,1.375-2.332,2.488-2.121C333.173,158.65,333.863,159.941,333.602,161.323z"/>
						<path style="fill:#0D142D;" d="M349.707,164.371c-0.262,1.382-1.375,2.332-2.488,2.121c-1.112-0.21-1.802-1.501-1.54-2.884
							c0.262-1.382,1.375-2.332,2.487-2.121C349.279,161.698,349.969,162.989,349.707,164.371z"/>
						
							<line style="fill:none;stroke:#0D142D;stroke-width:1.5;stroke-linecap:round;stroke-linejoin:round;stroke-miterlimit:10;" x1="340.072" y1="164.64" x2="339.299" y2="167.418"/>
						
							<path style="fill:none;stroke:#0D142D;stroke-width:1.5;stroke-linecap:round;stroke-linejoin:round;stroke-miterlimit:10;" d="
							M332.824,173.904c0,0,2.557,1.497,4.305,1.828c1.748,0.331,4.675-0.128,4.675-0.128"/>
						<path style="fill:#0D142D;" d="M329.151,154.898l6.109,1.156c0.644,0.122,1.204-0.254,1.181-0.777
							c-0.028-0.645-0.295-1.291-1.189-1.574C330.972,152.348,327.604,154.281,329.151,154.898z"/>
						<path style="fill:#0D142D;" d="M352.157,159.253l-6.109-1.156c-0.644-0.122-1.028-0.676-0.815-1.154
							c0.262-0.59,0.746-1.094,1.682-1.031C351.393,156.214,353.822,159.244,352.157,159.253z"/>
						
							<path style="fill:none;stroke:#0D142D;stroke-width:1.5;stroke-linecap:round;stroke-linejoin:round;stroke-miterlimit:10;" d="
							M337.974,167.627c0,0,4.025-1.005,4.205,1.116c0.144,1.698-4.542,2.132-4.542,2.132"/>
						<path style="fill:#0D142D;" d="M328.843,157.83c0,0-0.381,1.967,0.771,2.551c1.274,0.645,1.508-1.149,1.508-1.149
							S329.572,159.15,328.843,157.83z"/>
						<path style="fill:#0D142D;" d="M351.466,162.112c0,0-0.364,1.97-1.65,2.092c-1.421,0.135-0.983-1.62-0.983-1.62
							S350.306,163.075,351.466,162.112z"/>
					</g>
					<path style="fill:#0D142D;" d="M356.466,174.191c0,0,6.295-6.341,6.568-13.846c5.563-26.406-38.032-35.591-43.595-9.184
						c0,0-2.971,9.011,0.027,15.189l3.611-14.95c0.079-0.355,0.179-0.694,0.288-1.026c0,0,0,0,0,0c0,0,18.499,2.587,20.413-7.11
						c-1.71,9.432,15.321,13.81,16.352,14.066L356.466,174.191z"/>
				</g>
			</g>
			<g>
				<g>
					
						<linearGradient id="SVGID_00000095296420236960630100000009983994409618420384_" gradientUnits="userSpaceOnUse" x1="223.4928" y1="270.224" x2="226.5772" y2="212.7433">
						<stop  offset="0" style="stop-color:#FFB69C"/>
						<stop  offset="1" style="stop-color:#FF6161"/>
					</linearGradient>
					<path style="fill:url(#SVGID_00000095296420236960630100000009983994409618420384_);" d="M237.123,185.721
						c0,0-17.083,3.081-20.148,36.792c-3.065,33.711-2.507,66.029-2.507,66.029s-4.819,18.583,2.186,24.434
						c7.005,5.851,13.655,2.794,13.655,2.794l0.746-25.211l-5.611-5.354C225.445,285.205,237.123,226.381,237.123,185.721z"/>
					<path style="fill:#59B3F7;" d="M237.123,185.721c0,0-20.32,5.001-28.829,43.324c-8.509,38.323,0.886,46.237,6.165,46.872
						h12.713C227.173,275.918,248.258,215.127,237.123,185.721z"/>
					<path style="fill:#FFFFFF;" d="M205.132,260.682c6.745,1.104,15.525,2.133,25.961,2.501
						c-2.198,7.773-3.919,12.732-3.919,12.732h-12.71C211.173,275.524,206.29,272.309,205.132,260.682z"/>
				</g>
				<g>
					
						<linearGradient id="SVGID_00000010992853428746265640000005016292311232149437_" gradientUnits="userSpaceOnUse" x1="297.9922" y1="267.6313" x2="301.0031" y2="211.52">
						<stop  offset="0" style="stop-color:#FFB69C"/>
						<stop  offset="1" style="stop-color:#FF6161"/>
					</linearGradient>
					<path style="fill:url(#SVGID_00000010992853428746265640000005016292311232149437_);" d="M281.733,183.555
						c0,0,30.973,12.907,30.076,101.54c0,0,23.017,23.082-11.661,27.782l-1.653-27.292
						C298.494,285.584,268.397,224.17,281.733,183.555z"/>
					<path style="fill:#59B3F7;" d="M281.733,183.555c0,0,15.5-0.237,28.557,44.958c13.056,45.195,1.519,46.119,1.519,46.119
						l-18.532,4.619C293.276,279.25,246.037,219.948,281.733,183.555z"/>
					<path style="fill:#FFFFFF;" d="M311.813,274.637l-18.535,4.612c0,0-6.268-7.86-12.504-19.617
						c8.398,3.741,35.524-2.255,35.524-2.255C317.71,274.158,311.813,274.637,311.813,274.637z"/>
				</g>
				<g>
					<g>
						
							<linearGradient id="SVGID_00000041259482038871606850000001726181143070018456_" gradientUnits="userSpaceOnUse" x1="260.3321" y1="197.0933" x2="258.7208" y2="175.5021">
							<stop  offset="0" style="stop-color:#FFB69C"/>
							<stop  offset="1" style="stop-color:#FF6161"/>
						</linearGradient>
						<path style="fill:url(#SVGID_00000041259482038871606850000001726181143070018456_);" d="M301.128,246.856
							c0.898,18.171-72.715,25.151-73.614,5.665c0,0-7.329-64.859,9.607-66.797c2.579-0.297,4.697-0.777,6.434-1.41
							c11.944-4.3,5.684-15.178,5.684-15.178l14.158-1.089c0,0-4.582,12.007,8.197,14.231c1.755,0.304,3.845,0.43,6.316,0.308
							C294.93,181.759,301.128,246.856,301.128,246.856z"/>
						<path style="fill:#0D142D;" d="M264.324,178.413c-7.496,4.091-13.231-1.838-13.49-2.079c0.379-3.768-1.597-7.194-1.597-7.194
							l14.156-1.089C263.393,168.05,261.083,174.107,264.324,178.413z"/>
					</g>
					<g>
						<g>
							<path style="fill:#FF6161;" d="M283.413,162.866c-0.375,4.001-4.146,6.918-8.422,6.517c-4.276-0.401-7.438-3.97-7.063-7.97
								c0.376-4,4.146-6.918,8.423-6.517C280.627,155.297,283.789,158.865,283.413,162.866z"/>
							<path style="fill:#FF6161;" d="M248.061,159.548c-0.375,4-4.146,6.918-8.423,6.517c-4.276-0.401-7.438-3.97-7.063-7.97
								c0.376-4.001,4.146-6.918,8.423-6.517C245.275,151.979,248.437,155.547,248.061,159.548z"/>
							
								<line style="fill:none;stroke:#0D142D;stroke-width:1.5;stroke-linecap:round;stroke-linejoin:round;stroke-miterlimit:10;" x1="235.828" y1="156.29" x2="240.558" y2="161.716"/>
							
								<line style="fill:none;stroke:#0D142D;stroke-width:1.5;stroke-linecap:round;stroke-linejoin:round;stroke-miterlimit:10;" x1="236.535" y1="161.636" x2="238.356" y2="159.19"/>
							
								<line style="fill:none;stroke:#0D142D;stroke-width:1.5;stroke-linecap:round;stroke-linejoin:round;stroke-miterlimit:10;" x1="280.554" y1="160.488" x2="274.896" y2="164.939"/>
							
								<line style="fill:none;stroke:#0D142D;stroke-width:1.5;stroke-linecap:round;stroke-linejoin:round;stroke-miterlimit:10;" x1="278.865" y1="165.609" x2="277.53" y2="162.867"/>
						</g>
						<g>
							
								<linearGradient id="SVGID_00000083071438425798238510000009343766637512336001_" gradientUnits="userSpaceOnUse" x1="252.8296" y1="179.6803" x2="252.8296" y2="138.7692" gradientTransform="matrix(0.9956 0.0934 -0.0934 0.9956 21.6064 -26.5273)">
								<stop  offset="0" style="stop-color:#FFB69C"/>
								<stop  offset="1" style="stop-color:#FF6161"/>
							</linearGradient>
							<path style="fill:url(#SVGID_00000083071438425798238510000009343766637512336001_);" d="M279.865,152.842
								c-1.017,10.834-11.744,24.221-23.324,23.134c-11.58-1.087-19.629-16.236-18.612-27.07s10.855-14.747,22.435-13.66
								C271.944,136.333,280.881,142.008,279.865,152.842z"/>
							<path style="opacity:0.5;fill:#FFFFFF;" d="M277.736,160.483c-3.845,8.564-12.27,16.33-21.196,15.492
								c-8.926-0.838-15.759-10.036-17.943-19.166c2.983,8.166,9.712,15.711,18.193,16.507
								C265.271,174.112,273.286,167.951,277.736,160.483z"/>
							<g style="opacity:0.5;">
								<path style="fill:#FFFFFF;" d="M249.729,158.906c-0.398,1.05-2.284,1.365-4.213,0.703c-1.929-0.661-3.169-2.048-2.771-3.098
									c0.398-1.05,2.284-1.365,4.213-0.703C248.887,156.47,250.127,157.857,249.729,158.906z"/>
								<path style="fill:#FFFFFF;" d="M266.591,160.489c0.196,1.105,1.991,1.766,4.008,1.475c2.018-0.291,3.495-1.423,3.299-2.528
									s-1.991-1.766-4.008-1.475C267.873,158.252,266.396,159.384,266.591,160.489z"/>
							</g>
						</g>
						<g>
							<path style="fill:#0D142D;" d="M252.655,153.679c-0.127,1.356-1.115,2.372-2.207,2.27s-1.873-1.285-1.746-2.641
								c0.127-1.356,1.115-2.372,2.207-2.27C252.001,151.141,252.782,152.323,252.655,153.679z"/>
							<path style="fill:#0D142D;" d="M268.459,155.163c-0.127,1.356-1.115,2.372-2.207,2.27c-1.091-0.102-1.873-1.285-1.746-2.641
								c0.127-1.356,1.115-2.372,2.207-2.27C267.804,152.624,268.586,153.807,268.459,155.163z"/>
							
								<line style="fill:none;stroke:#0D142D;stroke-width:1.5;stroke-linecap:round;stroke-linejoin:round;stroke-miterlimit:10;" x1="259.194" y1="156.292" x2="258.7" y2="159.041"/>
							
								<path style="fill:none;stroke:#0D142D;stroke-width:1.5;stroke-linecap:round;stroke-linejoin:round;stroke-miterlimit:10;" d="
								M253.043,165.88c0,0,2.6,1.212,4.316,1.373c1.716,0.161,4.496-0.546,4.496-0.546"/>
							<path style="fill:#0D142D;" d="M247.783,147.887l5.994,0.563c0.632,0.059,1.138-0.353,1.068-0.855
								c-0.086-0.619-0.401-1.218-1.288-1.41C249.308,145.264,246.236,147.432,247.783,147.887z"/>
							<path style="fill:#0D142D;" d="M270.358,150.006l-5.994-0.563c-0.632-0.059-1.052-0.559-0.89-1.039
								c0.199-0.592,0.62-1.122,1.528-1.146C269.347,147.145,271.963,149.847,270.358,150.006z"/>
							<path style="fill:#0D142D;" d="M238.081,145.162c0,0-3.236,10.752,1.399,14.642l2.13-14.74
								c1.466-11.745,37.691-7.222,36.225,4.523l-1.972,14.433c0,0,5.496-6.683,5.081-13.943
								C284.014,123.299,241.151,118.385,238.081,145.162z"/>
							
								<path style="fill:none;stroke:#0D142D;stroke-width:1.5;stroke-linecap:round;stroke-linejoin:round;stroke-miterlimit:10;" d="
								M257.441,159.362c0,0,3.79-1.333,4.155,0.696c0.292,1.624-4.187,2.466-4.187,2.466"/>
						</g>
					</g>
				</g>
				<g>
					<g>
						
							<linearGradient id="SVGID_00000132806569744360144560000014869134048147802798_" gradientUnits="userSpaceOnUse" x1="267.1493" y1="421.8991" x2="254.744" y2="275.0354">
							<stop  offset="0" style="stop-color:#FFB69C"/>
							<stop  offset="1" style="stop-color:#FF6161"/>
						</linearGradient>
						<polygon style="fill:url(#SVGID_00000132806569744360144560000014869134048147802798_);" points="231.905,261.883 
							225.936,463.526 249.237,463.526 265.318,278.655 282.797,463.526 306.164,463.526 297.885,256.231 						"/>
						
							<path style="fill:none;stroke:#0D142D;stroke-width:1.5;stroke-linecap:round;stroke-linejoin:round;stroke-miterlimit:10;" d="
							M228.782,367.363c0,0,7.038,6.426,18.889,1.69"/>
						
							<path style="fill:none;stroke:#0D142D;stroke-width:1.5;stroke-linecap:round;stroke-linejoin:round;stroke-miterlimit:10;" d="
							M284.492,367.363c0,0,9.98,6.238,17.832,0"/>
						<path style="fill:#0D142D;" d="M225.936,463.526l-28.31,10.904h51.896l-0.284-10.904
							C231.301,456.534,224.254,457.03,225.936,463.526z"/>
						<path style="fill:#0D142D;" d="M306.164,463.526l28.31,10.904h-51.896l0.285-10.904
							C299.769,455.896,308.511,455.082,306.164,463.526z"/>
						<polygon style="fill:#1664AB;" points="225.936,463.526 249.399,469.718 249.522,474.429 197.626,474.429 						"/>
						<polygon style="fill:#1664AB;" points="306.164,463.526 282.578,469.525 282.578,474.429 334.474,474.429 						"/>
						<path style="fill:#0D142D;" d="M230.5,309.345l-0.148,4.99c10.578,3.681,21.156,4.171,31.734,1.472L230.5,309.345z"/>
						<path style="fill:#0D142D;" d="M268.818,315.672c10.755,2.06,21.319,2.728,31.452,0.277l-0.264-6.618L268.818,315.672z"/>
					</g>
					<g>
						<polygon style="fill:#1664AB;" points="227.513,252.52 224.001,308.015 262.109,315.541 265.318,278.655 268.818,315.672 
							310.29,307.269 301.128,246.856 						"/>
						
							<path style="fill:none;stroke:#0D142D;stroke-width:1.5;stroke-linecap:round;stroke-linejoin:round;stroke-miterlimit:10;" d="
							M259.411,277.14c7.448,5.494,12.88,4.843,12.88,4.843"/>
						<path style="fill:#0D142D;" d="M303.986,265.727c-50.244,14.464-77.213-1.472-77.213-1.472v-0.011l0.736-11.725l73.618-5.662
							L303.986,265.727z"/>
						
							<polyline style="fill:none;stroke:#0D142D;stroke-width:1.5;stroke-linecap:round;stroke-linejoin:round;stroke-miterlimit:10;" points="
							262.629,309.567 265.16,280.469 268.125,308.341 						"/>
						<polygon style="fill:#59B3F7;" points="224.001,308.015 264.016,316.201 264.802,308.675 221.276,294.199 						"/>
						<polygon style="fill:#59B3F7;" points="266.315,308.618 267.008,315.949 310.29,307.269 311.809,297.301 						"/>
					</g>
				</g>
				<g>
					<path style="fill:#59B3F7;" d="M303.986,248.621c0.899,18.166-81.792,28.224-82.691,8.737c0,0-1.115-69.699,15.828-71.637
						c0.758-0.087,1.472-0.184,2.144-0.314c1.645-0.271,3.064-0.65,4.287-1.093c0.455-0.162,7.784,8.12,14.659,8.12
						c6.637,0,13.24-10.155,13.381-10.155c1.516,0.26,3.291,0.401,5.337,0.346c0.314-0.011,0.639-0.022,0.974-0.043
						C294.935,181.758,303.986,248.621,303.986,248.621z"/>
					<path style="fill:#FFFFFF;" d="M303.986,248.621c0.899,18.166-81.792,28.224-82.691,8.737c0,0-0.26-16.478,1.418-33.637
						c8.802,2.522,20.559,4.081,35.499,2.49c17.419-1.862,30.01-7.373,38.585-12.905
						C301.539,230.552,303.986,248.621,303.986,248.621z"/>
					
						<path style="fill:none;stroke:#0D142D;stroke-width:1.5;stroke-linecap:round;stroke-linejoin:round;stroke-miterlimit:10;" d="
						M221.291,257.358c0,0-0.164-33.512,2.71-44.117"/>
					
						<line style="fill:none;stroke:#0D142D;stroke-width:1.5;stroke-linecap:round;stroke-linejoin:round;stroke-miterlimit:10;" x1="219.277" y1="216.583" x2="222.238" y2="226.209"/>
					
						<path style="fill:none;stroke:#0D142D;stroke-width:1.5;stroke-linecap:round;stroke-linejoin:round;stroke-miterlimit:10;" d="
						M292.999,201.34c0,0,4.057,6.962,10.991,47.281"/>
					
						<line style="fill:none;stroke:#0D142D;stroke-width:1.5;stroke-linecap:round;stroke-linejoin:round;stroke-miterlimit:10;" x1="298.473" y1="204.537" x2="296.972" y2="213.949"/>
					<path style="fill:#FFFFFF;" d="M276.931,182.624c-2.317,4.818-8.141,14.334-18.036,15.016
						c-9.051,0.617-16.066-7.178-19.628-12.234c1.645-0.271,3.064-0.65,4.287-1.093c0.455-0.162,7.784,8.12,14.659,8.12
						c6.637,0,13.24-10.155,13.381-10.155C273.11,182.538,274.885,182.679,276.931,182.624z"/>
				</g>
			</g>
			<g>
				
					<linearGradient id="SVGID_00000070089643701938168400000013930546233503371934_" gradientUnits="userSpaceOnUse" x1="238.5561" y1="180.8583" x2="243.3679" y2="209.1016" gradientTransform="matrix(0.9615 -0.2749 0.2749 0.9615 -50.055 81.7959)">
					<stop  offset="0" style="stop-color:#FFB69C"/>
					<stop  offset="1" style="stop-color:#FF6161"/>
				</linearGradient>
				<path style="fill:url(#SVGID_00000070089643701938168400000013930546233503371934_);" d="M219.714,199.767l8.862,9.777
					l19.852-10.595c0,0-5.224-20.928-22.475-21.238C205.926,177.351,215.289,198.599,219.714,199.767z"/>
				
					<line style="fill:none;stroke:#0D142D;stroke-width:1.5;stroke-linecap:round;stroke-linejoin:round;stroke-miterlimit:10;" x1="224.508" y1="196.63" x2="233.425" y2="206.956"/>
				
					<line style="fill:none;stroke:#0D142D;stroke-width:1.5;stroke-linecap:round;stroke-linejoin:round;stroke-miterlimit:10;" x1="232.167" y1="194.44" x2="239.413" y2="203.76"/>
				
					<line style="fill:none;stroke:#0D142D;stroke-width:1.5;stroke-linecap:round;stroke-linejoin:round;stroke-miterlimit:10;" x1="238.665" y1="191.068" x2="245.252" y2="200.644"/>
			</g>
			<g>
				
					<linearGradient id="SVGID_00000054255456991389059790000008140897802933144712_" gradientUnits="userSpaceOnUse" x1="388.7367" y1="216.8106" x2="384.3198" y2="183.5735">
					<stop  offset="0" style="stop-color:#FFB69C"/>
					<stop  offset="1" style="stop-color:#FF6161"/>
				</linearGradient>
				<path style="fill:url(#SVGID_00000054255456991389059790000008140897802933144712_);" d="M373.988,194.44l-8.423,12.516
					l16.056,11.29l9.008-7.004c0,0,13.268-4.868,14.68-7.482C412.164,191.068,403.791,170.694,373.988,194.44z"/>
				
					<line style="fill:none;stroke:#0D142D;stroke-width:1.5;stroke-linecap:round;stroke-linejoin:round;stroke-miterlimit:10;" x1="376.483" y1="199.796" x2="368.572" y2="209.544"/>
				
					<line style="fill:none;stroke:#0D142D;stroke-width:1.5;stroke-linecap:round;stroke-linejoin:round;stroke-miterlimit:10;" x1="380.509" y1="204.537" x2="373.523" y2="212.551"/>
				
					<line style="fill:none;stroke:#0D142D;stroke-width:1.5;stroke-linecap:round;stroke-linejoin:round;stroke-miterlimit:10;" x1="377.952" y1="215.665" x2="383.458" y2="210.069"/>
				<path style="fill:none;stroke:#0D142D;stroke-width:1.5;stroke-linecap:round;stroke-linejoin:round;stroke-miterlimit:10;" d="
					M373.988,194.44c0,0,11.235-9.459,20.195-10.718"/>
			</g>
		</g>
	</g>
</g>
</svg>
