<?xml version="1.0" encoding="utf-8"?>
<!-- Generator: Adobe Illustrator 27.5.0, SVG Export Plug-In . SVG Version: 6.00 Build 0)  -->
<svg version="1.1" xmlns="http://www.w3.org/2000/svg" xmlns:xlink="http://www.w3.org/1999/xlink" x="0px" y="0px"
	 viewBox="0 0 500 500" style="enable-background:new 0 0 500 500;" xml:space="preserve">
<g id="BACKGROUND">
	<rect style="opacity:0.25;fill:#FFFFFF;" width="500" height="500"/>
</g>
<g id="OBJECTS">
	<g>
		<path style="fill:#A96CFF;" d="M431.91,300.25c-0.17,3.94-0.52,7.87-1.08,11.76c-5.72,40.02-33.56,76.13-116.07,78.42
			c-6,0.17-11.61,0.16-16.88,0c-58.82-1.73-75.16-21.51-113.18-16.28c-30.49,4.2-64.71,11.03-91.26-7.87
			c-0.66-0.47-1.31-0.95-1.96-1.46c-8.74-6.73-16.59-16.42-23.13-30.12c-3.79-7.93-5.99-15.49-6.86-22.69
			c-1.42-11.74,0.7-22.54,5.24-32.52c12.22-26.85,41.96-47.72,67.25-64.82c40.45-27.36,0.9-78.62,88.31-101.91
			c87.42-23.28,114.1,51.33,159.84,81.63c38.27,25.34,48.68,51.28,49.94,85.1C432.32,286.09,432.22,292.99,431.91,300.25z"/>
		<path style="fill:#8558DD;" d="M431.91,300.25c-0.17,3.94-0.52,7.87-1.08,11.76c-5.72,40.02-33.56,76.13-116.07,78.42
			c-6,0.17-11.61,0.16-16.88,0c-58.82-1.73-75.16-21.51-113.18-16.28c-30.49,4.2-64.71,11.03-91.26-7.87
			c-0.66-0.47-1.31-0.95-1.96-1.46c-8.74-6.73-16.59-16.42-23.13-30.12c-3.79-7.93-5.99-15.49-6.86-22.69
			c-1.42-11.74,0.7-22.54,5.24-32.52h365.34C432.32,286.09,432.22,292.99,431.91,300.25z"/>
		<g>
			<g>
				<path style="fill:#AF7DFF;" d="M123.602,254.887h-17.861c-1.247,0-2.257-1.011-2.257-2.257v-5.228
					c0-1.247,1.011-2.258,2.257-2.258h17.861c1.247,0,2.257,1.011,2.257,2.258v5.228
					C125.859,253.877,124.849,254.887,123.602,254.887z"/>
				<path style="fill:#AF7DFF;" d="M136.85,268.135h-17.861c-1.247,0-2.257-1.011-2.257-2.257v-5.228
					c0-1.247,1.011-2.257,2.257-2.257h17.861c1.247,0,2.257,1.011,2.257,2.257v5.228
					C139.107,267.124,138.096,268.135,136.85,268.135z"/>
			</g>
			<g>
				<path style="fill:#AF7DFF;" d="M237.497,247.69h-17.861c-1.247,0-2.257-1.011-2.257-2.257v-5.228
					c0-1.247,1.011-2.257,2.257-2.257h17.861c1.247,0,2.257,1.011,2.257,2.257v5.228C239.754,246.679,238.743,247.69,237.497,247.69
					z"/>
				<path style="fill:#AF7DFF;" d="M250.744,260.937h-17.861c-1.247,0-2.257-1.011-2.257-2.257v-5.228
					c0-1.247,1.011-2.257,2.257-2.257h17.861c1.247,0,2.257,1.011,2.257,2.257v5.228
					C253.002,259.927,251.991,260.937,250.744,260.937z"/>
			</g>
			<g>
				<path style="fill:#AF7DFF;" d="M400.442,234.475h-17.861c-1.247,0-2.258-1.011-2.258-2.257v-5.228
					c0-1.247,1.011-2.258,2.258-2.258h17.861c1.247,0,2.257,1.011,2.257,2.258v5.228
					C402.699,233.465,401.688,234.475,400.442,234.475z"/>
				<path style="fill:#AF7DFF;" d="M413.689,247.723h-17.861c-1.247,0-2.257-1.011-2.257-2.257v-5.228
					c0-1.247,1.011-2.257,2.257-2.257h17.861c1.247,0,2.258,1.011,2.258,2.257v5.228
					C415.947,246.712,414.936,247.723,413.689,247.723z"/>
			</g>
			<g>
				<path style="fill:#AF7DFF;" d="M294.921,142.703H277.06c-1.247,0-2.257-1.011-2.257-2.258v-5.228
					c0-1.247,1.011-2.257,2.257-2.257h17.861c1.247,0,2.257,1.011,2.257,2.257v5.228
					C297.178,141.692,296.167,142.703,294.921,142.703z"/>
				<path style="fill:#AF7DFF;" d="M308.168,155.951h-17.861c-1.247,0-2.257-1.011-2.257-2.257v-5.228
					c0-1.247,1.011-2.257,2.257-2.257h17.861c1.247,0,2.257,1.011,2.257,2.257v5.228
					C310.426,154.94,309.415,155.951,308.168,155.951z"/>
			</g>
		</g>
		<g>
			<g>
				<g>
					<path style="fill:#8558DD;" d="M227.612,205.549L227.612,205.549c-2.493,0-4.515-2.021-4.515-4.515v-7.416
						c0-2.493,2.021-4.515,4.515-4.515l0,0c2.493,0,4.515,2.021,4.515,4.515v7.416C232.127,203.528,230.105,205.549,227.612,205.549
						z"/>
					<path style="fill:#8558DD;" d="M280.008,205.549L280.008,205.549c-2.493,0-4.515-2.021-4.515-4.515v-7.416
						c0-2.493,2.021-4.515,4.515-4.515l0,0c2.493,0,4.515,2.021,4.515,4.515v7.416C284.523,203.528,282.501,205.549,280.008,205.549
						z"/>
				</g>
				<path style="fill:#C199FF;" d="M300.249,197.327h-92.878c-2.175,0-3.937-1.763-3.937-3.937v-4.153
					c0-2.174,1.763-3.937,3.937-3.937h92.878c2.174,0,3.937,1.763,3.937,3.937v4.153
					C304.186,195.564,302.423,197.327,300.249,197.327z"/>
			</g>
			<g>
				<path style="fill:#8558DD;" d="M233.858,159.849v22.48c0,1.449-1.179,2.628-2.634,2.628h-9.956
					c-1.455,0-2.634-1.179-2.634-2.628v-22.48H233.858z"/>
				<rect x="218.634" y="166.32" style="fill:#C199FF;" width="15.224" height="10.812"/>
				<polygon style="fill:#8558DD;" points="228.338,148.825 224.154,148.825 218.635,159.85 233.857,159.85 				"/>
				<rect x="223.321" y="147.693" style="fill:#C199FF;" width="5.85" height="1.837"/>
			</g>
			<g>
				<g>
					<circle style="fill:#C199FF;" cx="252.148" cy="169.036" r="15.921"/>
					
						<ellipse transform="matrix(0.1606 -0.987 0.987 0.1606 44.8017 390.7559)" style="fill:#C199FF;" cx="252.148" cy="169.036" rx="9.188" ry="9.188"/>
				</g>
				<g>
					<circle style="fill:#CDB3FF;" cx="258.882" cy="169.036" r="15.921"/>
					
						<ellipse transform="matrix(0.7071 -0.7071 0.7071 0.7071 -43.7022 232.5665)" style="fill:#C199FF;" cx="258.882" cy="169.036" rx="9.188" ry="9.188"/>
				</g>
			</g>
		</g>
	</g>
	<g>
		<g>
			<linearGradient id="SVGID_1_" gradientUnits="userSpaceOnUse" x1="413.5938" y1="195.7166" x2="405.5145" y2="346.8456">
				<stop  offset="0" style="stop-color:#52ECE3"/>
				<stop  offset="1" style="stop-color:#2790AC"/>
			</linearGradient>
			<path style="fill:url(#SVGID_1_);" d="M400.484,314.459c-10.536-52.671,17.78-90.719,17.78-90.719s3.293,18.512,2.634,32.561
				c-0.658,14.049-11.201,55.755-11.201,55.755"/>
			
				<linearGradient id="SVGID_00000117657388624436054920000005264716894288241798_" gradientUnits="userSpaceOnUse" x1="470.3446" y1="199.5215" x2="426.1465" y2="276.5118">
				<stop  offset="0" style="stop-color:#52ECE3"/>
				<stop  offset="1" style="stop-color:#2790AC"/>
			</linearGradient>
			<path style="fill:url(#SVGID_00000117657388624436054920000005264716894288241798_);" d="M409.624,308.072
				c3.757-46.701,36.608-71.844,36.608-71.844s-1.665,16.315-5.577,27.942c-3.912,11.627-22.728,44.09-22.728,44.09"/>
			
				<linearGradient id="SVGID_00000117637547389933513160000018097372291307930525_" gradientUnits="userSpaceOnUse" x1="463.0605" y1="250.6034" x2="416.2487" y2="319.0391">
				<stop  offset="0" style="stop-color:#52ECE3"/>
				<stop  offset="1" style="stop-color:#2790AC"/>
			</linearGradient>
			<path style="fill:url(#SVGID_00000117637547389933513160000018097372291307930525_);" d="M397.149,329.155
				c22.168-48.927,67.363-63.312,67.363-63.312s-8.125,16.957-16.855,27.983c-8.73,11.026-41.623,38.751-41.623,38.751"/>
		</g>
		<g>
			
				<linearGradient id="SVGID_00000079461816317400919510000015950666363752652686_" gradientUnits="userSpaceOnUse" x1="86.9851" y1="230.9475" x2="93.1635" y2="345.4824">
				<stop  offset="0" style="stop-color:#52ECE3"/>
				<stop  offset="1" style="stop-color:#2790AC"/>
			</linearGradient>
			<path style="fill:url(#SVGID_00000079461816317400919510000015950666363752652686_);" d="M88.424,319.945
				c23.174-48.458,5.092-92.305,5.092-92.305s-7.747,17.132-10.566,30.911s-2.864,56.797-2.864,56.797"/>
			
				<linearGradient id="SVGID_00000060001851631610699340000006383189823253721507_" gradientUnits="userSpaceOnUse" x1="46.1091" y1="212.2395" x2="74.6239" y2="283.5267">
				<stop  offset="0" style="stop-color:#52ECE3"/>
				<stop  offset="1" style="stop-color:#2790AC"/>
			</linearGradient>
			<path style="fill:url(#SVGID_00000060001851631610699340000006383189823253721507_);" d="M81.138,311.505
				c7.851-46.189-17.802-78.644-17.802-78.644s-2.401,16.223-1.471,28.455c0.93,12.232,11.179,48.327,11.179,48.327"/>
			
				<linearGradient id="SVGID_00000111896813488720507420000016607920335588050837_" gradientUnits="userSpaceOnUse" x1="36.0835" y1="248.8528" x2="82.1825" y2="330.1203">
				<stop  offset="0" style="stop-color:#52ECE3"/>
				<stop  offset="1" style="stop-color:#2790AC"/>
			</linearGradient>
			<path style="fill:url(#SVGID_00000111896813488720507420000016607920335588050837_);" d="M88.041,335.009
				c-9.446-52.877-49.71-77.942-49.71-77.942s3.702,18.434,9.45,31.27c5.748,12.836,30.806,47.803,30.806,47.803"/>
		</g>
	</g>
	<g>
		<g>
			
				<linearGradient id="SVGID_00000069374254532553578990000005450489403886856855_" gradientUnits="userSpaceOnUse" x1="107.0811" y1="333.3194" x2="251.556" y2="156.0525">
				<stop  offset="0" style="stop-color:#FFB8B8"/>
				<stop  offset="1" style="stop-color:#F46C8A"/>
			</linearGradient>
			<polygon style="fill:url(#SVGID_00000069374254532553578990000005450489403886856855_);" points="113.38,301.14 112.752,318.337 
				139.22,318.337 139.22,302.03 			"/>
			<g>
				
					<linearGradient id="SVGID_00000011022689951643233510000005033549639954442390_" gradientUnits="userSpaceOnUse" x1="267.6349" y1="258.2762" x2="252.6645" y2="282.5139">
					<stop  offset="0" style="stop-color:#FFB8B8"/>
					<stop  offset="1" style="stop-color:#F46C8A"/>
				</linearGradient>
				<polyline style="fill:url(#SVGID_00000011022689951643233510000005033549639954442390_);" points="257.82,281.89 
					271.277,273.515 265.931,258.812 248.911,267.455 252.297,278.74 				"/>
				<g>
					
						<linearGradient id="SVGID_00000181065151624216127500000014784470534137473727_" gradientUnits="userSpaceOnUse" x1="272.2531" y1="259.6671" x2="389.6394" y2="315.0336">
						<stop  offset="0" style="stop-color:#F5F8FF"/>
						<stop  offset="1" style="stop-color:#BCBFF7"/>
					</linearGradient>
					<path style="fill:url(#SVGID_00000181065151624216127500000014784470534137473727_);" d="M279.24,236.8v37.55
						c0,2.42-1.97,4.39-4.4,4.39h-16.63c-2.43,0-4.4-1.97-4.4-4.39V236.8H279.24z"/>
					<rect x="253.81" y="247.61" style="fill:#2FD1FF;" width="25.43" height="18.06"/>
					
						<linearGradient id="SVGID_00000145743263767682851330000012336837139925136016_" gradientUnits="userSpaceOnUse" x1="279.7453" y1="227.9621" x2="435.1508" y2="231.17">
						<stop  offset="0" style="stop-color:#F5F8FF"/>
						<stop  offset="1" style="stop-color:#BCBFF7"/>
					</linearGradient>
					<polygon style="fill:url(#SVGID_00000145743263767682851330000012336837139925136016_);" points="270.019,218.386 
						263.031,218.386 253.812,236.802 279.238,236.802 					"/>
					<rect x="261.639" y="216.496" style="fill:#382742;" width="9.772" height="3.068"/>
				</g>
				
					<linearGradient id="SVGID_00000012450590161812020290000002025606867027346095_" gradientUnits="userSpaceOnUse" x1="246.725" y1="282.2773" x2="92.2766" y2="250.4371">
					<stop  offset="0" style="stop-color:#FFB8B8"/>
					<stop  offset="1" style="stop-color:#F46C8A"/>
				</linearGradient>
				<path style="fill:url(#SVGID_00000012450590161812020290000002025606867027346095_);" d="M254.52,278.59l3.3,3.3l-17.28,23.01
					c-4.4,5.85-13.3,5.51-17.23-0.66l-12.09-18.96l19.07-13.19l2.53,5.94l2.37,5.55c0,0,9.89-6.95,10.16-8.64
					c0.26-1.69,0.17-11.23,1.33-13.63c1.16-2.41,10.61-8.74,11.94-6.24c1.34,2.49-4.1,7.93-4.1,7.93V278.59z"/>
				
					<linearGradient id="SVGID_00000059283742173798047440000013314312782897851524_" gradientUnits="userSpaceOnUse" x1="224.1142" y1="241.5623" x2="232.6686" y2="290.394">
					<stop  offset="0" style="stop-color:#FFB8B8"/>
					<stop  offset="1" style="stop-color:#F46C8A"/>
				</linearGradient>
				<polygon style="fill:url(#SVGID_00000059283742173798047440000013314312782897851524_);" points="235.19,283.58 228.62,288.49 
					232.82,278.03 				"/>
			</g>
			<path style="fill:#F5F8FF;" d="M216.01,281.97l-4.79,3.31l0.32,7.84l1.1,27.44h-73.42v-18.53l-5.24-0.18l-20.6-0.71
				c0,0,3.03-50.44,9.62-59.35c3.77-5.1,15.93-11.52,25.66-16.08c1.45-0.68,2.85-1.32,4.16-1.91c5.24-2.36,9.03-3.88,9.03-3.88h14.9
				c0,0,9.17,1.34,18.52,3.82c1.45,0.38,2.91,0.8,4.34,1.23c5.9,1.83,11.3,4.1,13.84,6.77c7.09,7.49,16.84,40.35,16.84,40.35
				L216.01,281.97z"/>
			
				<linearGradient id="SVGID_00000114753384935896930450000000165977479168522885_" gradientUnits="userSpaceOnUse" x1="170.8219" y1="249.7111" x2="177.9505" y2="339.0576">
				<stop  offset="0" style="stop-color:#F56DA2"/>
				<stop  offset="1" style="stop-color:#F5366D"/>
			</linearGradient>
			<path style="fill:url(#SVGID_00000114753384935896930450000000165977479168522885_);" d="M212.64,320.56h-73.42v-18.53
				c0,0,12.12-34.04,12.12-43.13c0-7.29-1.92-26.06-2.68-33.19c1.45-0.68,2.85-1.32,4.16-1.91l4.22,34.57l37.43-1.07l0.8-33.56
				c1.45,0.38,2.91,0.8,4.34,1.23c-0.35,9.19-0.98,28.35-0.44,35.16c0.58,7.45,9.25,26.38,12.37,32.99L212.64,320.56z"/>
			<path style="fill:#CDDDF7;" d="M216.01,281.97l-4.79,3.31c-0.42-16.4-1.96-31.13-1.96-31.13L216.01,281.97z"/>
			<path style="fill:#CDDDF7;" d="M139.22,264v38.03l-5.24-0.18C135.53,286.27,139.22,264,139.22,264z"/>
			<path style="fill:#382742;" d="M155.495,249.739l-4.509,0.564c-0.684,0.086-1.307-0.399-1.393-1.083l-0.111-0.884
				c-0.086-0.684,0.399-1.307,1.083-1.393l4.509-0.564c0.684-0.086,1.307,0.399,1.393,1.083l0.111,0.884
				C156.663,249.03,156.178,249.654,155.495,249.739z"/>
			<path style="fill:#382742;" d="M198.899,248.063l-4.544-0.001c-0.689,0-1.247-0.559-1.247-1.248l0-0.891
				c0-0.689,0.559-1.247,1.248-1.247l4.545,0.001c0.689,0,1.247,0.559,1.247,1.248l0,0.891
				C200.147,247.505,199.588,248.063,198.899,248.063z"/>
			
				<linearGradient id="SVGID_00000018208860950229978500000017191162284421784209_" gradientUnits="userSpaceOnUse" x1="168.1184" y1="195.7392" x2="180.0002" y2="306.0019" gradientTransform="matrix(0.9982 0.0594 -0.0594 0.9982 16.8212 -10.5556)">
				<stop  offset="0" style="stop-color:#F56DA2"/>
				<stop  offset="1" style="stop-color:#F5366D"/>
			</linearGradient>
			<path style="fill:url(#SVGID_00000018208860950229978500000017191162284421784209_);" d="M177.636,305.561L177.636,305.561
				c-7.48,0.106-13.629-5.872-13.734-13.352l-0.191-13.543l27.086-0.382l0.191,13.543
				C191.094,299.306,185.116,305.455,177.636,305.561z"/>
		</g>
		<g>
			
				<linearGradient id="SVGID_00000123424941028685279890000012646238182155378332_" gradientUnits="userSpaceOnUse" x1="194.6844" y1="189.061" x2="182.1621" y2="198.2839">
				<stop  offset="0" style="stop-color:#FFB8B8"/>
				<stop  offset="1" style="stop-color:#F46C8A"/>
			</linearGradient>
			<path style="fill:url(#SVGID_00000123424941028685279890000012646238182155378332_);" d="M188.406,190.19
				c1.693-2.606,4.507-2.02,4.659,1.173c0.153,3.193-3.59,6.32-5.818,5.148"/>
			<path style="fill:#382742;" d="M153.228,204.231c-3.851-4.023-10.267-23.95-9.792-28.541c0.475-4.591,5.703-4.472,5.703-4.472
				s-1.565-6.772,4.089-12.356c5.654-5.584,30.01-5.941,35-1.426c4.99,4.515,1.703,12,1.703,12s4.831,3.058,3.406,9.846
				c-1.426,6.788-3.635,18.364-3.635,18.364l-19.89-1.12"/>
			
				<linearGradient id="SVGID_00000098902747924112894270000000068881417296870535_" gradientUnits="userSpaceOnUse" x1="166.8597" y1="199.6197" x2="178.4438" y2="81.9961">
				<stop  offset="0" style="stop-color:#FFB8B8"/>
				<stop  offset="1" style="stop-color:#F46C8A"/>
			</linearGradient>
			<path style="fill:url(#SVGID_00000098902747924112894270000000068881417296870535_);" d="M182.63,210.82
				c-2.38,2.15-5.37,3.65-9.02,3.82c-6.76,0.32-11.92-1.88-15.28-4.23c-2.4-1.67-3.88-3.42-4.38-4.38
				c-1.19-2.32-2.17-7.54-2.17-7.54s-1.33,1.87-4.54,0.89c-3.21-0.98-3.74-8.51,0.4-9.05c4.14-0.53,4.32,4.32,4.32,4.32l4.54-17.15
				c13-0.04,28.59-1.81,28.59-1.81l4.47,12.01c0,0,0.09,2.05,0.36,7.22C190.11,198.46,187.82,206.16,182.63,210.82z"/>
			
				<linearGradient id="SVGID_00000082334506169584006720000002550557756323002553_" gradientUnits="userSpaceOnUse" x1="166.1303" y1="261.3995" x2="175.9322" y2="165.8748">
				<stop  offset="0" style="stop-color:#FFB8B8"/>
				<stop  offset="1" style="stop-color:#F46C8A"/>
			</linearGradient>
			<path style="fill:url(#SVGID_00000082334506169584006720000002550557756323002553_);" d="M183.15,222.54c0,0-0.36,4.73-9.27,6.6
				c-8.91,1.87-14.88-5.62-14.88-5.62s-0.07-7.52-0.53-11.91c-0.04-0.43-0.09-0.84-0.14-1.2c3.36,2.35,8.52,4.55,15.28,4.23
				c3.65-0.17,6.64-1.67,9.02-3.82c-0.32,3.28-0.07,6.85,0.19,9.18C182.98,221.54,183.15,222.54,183.15,222.54z"/>
			
				<linearGradient id="SVGID_00000007396429737109956170000012917717077453719996_" gradientUnits="userSpaceOnUse" x1="166.0863" y1="239.8096" x2="169.2943" y2="222.2253">
				<stop  offset="0" style="stop-color:#FFB8B8"/>
				<stop  offset="1" style="stop-color:#F46C8A"/>
			</linearGradient>
			<path style="fill:url(#SVGID_00000007396429737109956170000012917717077453719996_);" d="M182.82,220
				c-7.34,0.71-18.23-4.14-24.35-8.39c-0.04-0.43-0.09-0.84-0.14-1.2c3.36,2.35,8.52,4.55,15.28,4.23c3.65-0.17,6.64-1.67,9.02-3.82
				C182.31,214.1,182.56,217.67,182.82,220z"/>
			<path style="fill:none;stroke:#F46C8A;stroke-linecap:round;stroke-linejoin:round;stroke-miterlimit:10;" d="M174.198,191
				l2.352,5.395c0.384,0.881,0.033,1.91-0.81,2.373l-1.542,0.847"/>
			<path style="fill:none;stroke:#F46C8A;stroke-linecap:round;stroke-linejoin:round;stroke-miterlimit:10;" d="M146.762,194.445
				c0.416-2.554,3.802-1.604,3.089,2.614"/>
			<circle style="fill:#382742;" cx="165.297" cy="193.038" r="1.349"/>
			<circle style="fill:#382742;" cx="183.15" cy="191.689" r="1.349"/>
			<path style="fill:none;stroke:#382742;stroke-linecap:round;stroke-linejoin:round;stroke-miterlimit:10;" d="M161.139,187.555
				c0,0,3.386-1.545,6.891-0.772"/>
			<path style="fill:none;stroke:#382742;stroke-linecap:round;stroke-linejoin:round;stroke-miterlimit:10;" d="M179.042,186.566
				c0,0,3.502-1.259,6.931-0.2"/>
			<path style="fill:none;stroke:#D63861;stroke-linecap:round;stroke-linejoin:round;stroke-miterlimit:10;" d="M168.505,205.152
				c0,0,3.766,2.239,8.247,0.114"/>
		</g>
	</g>
	<g>
		<g>
			
				<linearGradient id="SVGID_00000139275985878980238140000003452133223543905417_" gradientUnits="userSpaceOnUse" x1="246.6114" y1="301.5999" x2="241.6819" y2="387.4692" gradientTransform="matrix(1 -0.001 0.001 1 -0.1917 0.0929)">
				<stop  offset="0" style="stop-color:#FFBF94"/>
				<stop  offset="1" style="stop-color:#FF954D"/>
			</linearGradient>
			<path style="fill:url(#SVGID_00000139275985878980238140000003452133223543905417_);" d="M430.795,311.829
				c-5.681,40.026-33.485,76.163-115.993,78.534l-16.88,0.017c-58.822-1.672-75.181-21.436-113.196-16.169
				c-30.486,4.23-64.699,11.094-91.268-7.78c-0.66-0.469-1.311-0.949-1.961-1.458c-8.747-6.721-16.606-16.404-23.16-30.097
				c-3.798-7.926-6.005-15.484-6.882-22.683L430.795,311.829z"/>
			<g>
				<defs>
					<path id="SVGID_00000054252492717573627670000017844336415505536948_" d="M430.795,311.829
						c-5.681,40.026-33.485,76.163-115.993,78.534l-16.88,0.017c-58.822-1.672-75.181-21.436-113.196-16.169
						c-30.486,4.23-64.699,11.094-91.268-7.78c-0.66-0.469-1.311-0.949-1.961-1.458c-8.747-6.721-16.606-16.404-23.16-30.097
						c-3.798-7.926-6.005-15.484-6.882-22.683L430.795,311.829z"/>
				</defs>
				<clipPath id="SVGID_00000125583710059256508230000010413927506231605402_">
					<use xlink:href="#SVGID_00000054252492717573627670000017844336415505536948_"  style="overflow:visible;"/>
				</clipPath>
				<g style="opacity:0.25;clip-path:url(#SVGID_00000125583710059256508230000010413927506231605402_);">
					<path style="fill:#FFFFFF;" d="M309.326,405.89c-6.712,7.062-16.636,7.946-25.859,8.016c-9.764,0.074-19.538-0.599-29.19-2.083
						c-18.357-2.823-36.398-8.765-52.216-18.608c-16.316-10.153-28.824-25.213-45.274-35.173
						c-15.339-9.287-32.787-14.766-50.517-17.069c-22.937-2.98-46.155-0.633-68.684,4.112c-0.472,0.099-0.272,0.822,0.2,0.723
						c41.119-8.659,86.875-8.692,122.977,15.666c16.348,11.03,29.209,26.194,46.664,35.743c15.468,8.462,32.65,13.48,50.078,15.825
						c10.261,1.381,20.829,2.082,31.178,1.464c7.818-0.467,15.607-2.23,21.173-8.086C310.189,406.07,309.659,405.54,309.326,405.89z
						"/>
					<path style="fill:#FFFFFF;" d="M516.712,345.874c-7.485-6.553-17.585-6.385-26.984-6.093
						c-12.754,0.396-25.515,1.165-38.165,2.882c-13.169,1.787-26.199,4.64-38.717,9.148c-12.632,4.55-24.773,10.449-38.035,13.039
						c-13.661,2.668-27.814,2.774-41.688,2.745c-14.791-0.031-29.619-0.813-44.237-3.163c-24.405-3.923-49.636-14.372-74.606-8.698
						c-3.6,0.818-8.509,2.149-9.944,6.053c-1.337,3.64,1.393,6.984,3.462,9.693c6.92,9.061,17.003,17.647,29.153,13.895
						c0.46-0.142,0.263-0.866-0.2-0.723c-6.393,1.974-12.805,0.414-18.233-3.343c-2.431-1.683-4.573-3.746-6.546-5.936
						c-1.912-2.123-5.437-5.378-6.243-8.182c-0.758-2.636-0.064-6.947,2.283-8.426c1.049-0.661,2.289-1.147,3.464-1.534
						c2.667-0.879,5.539-1.32,8.311-1.69c5.961-0.797,11.974-0.764,17.957-0.218c12.26,1.117,24.21,4.293,36.195,6.949
						c10.606,2.351,21.287,4.068,32.114,4.989c12.218,1.039,24.495,1.222,36.751,1.002c10.767-0.193,21.613-0.604,32.207-2.69
						c11.148-2.196,21.54-6.669,32.071-10.783c10.641-4.156,21.538-7.347,32.764-9.48c13.383-2.542,26.982-3.758,40.577-4.413
						c11.568-0.557,26.312-2.763,35.758,5.508C516.544,346.722,517.076,346.193,516.712,345.874z"/>
					<path style="fill:#FFFFFF;" d="M325.263,349.213c7.002,5.213,18.908,4.917,27.116,4.55c11.379-0.51,22.81-2.048,34.109-3.451
						c11.716-1.455,23.41-3.269,34.884-6.084c11.375-2.791,23.033-6.198,32.674-13.07c0.39-0.278,0.015-0.928-0.379-0.647
						c-15.333,10.929-36.125,14.443-54.367,17.279c-9.784,1.521-19.63,2.61-29.475,3.655c-10.157,1.078-20.461,2.435-30.665,1.184
						c-3.713-0.455-12.305-1.326-14.457-4.84c-0.001-1.219-0.001-2.438-0.002-3.656c-0.965-2.557-0.281-4.305,2.051-5.246
						c0.974-0.585,2.133-0.961,3.208-1.299c2.991-0.94,6.257-0.978,9.365-1.054c6.386-0.156,13.714,0.184,18.912-4.224
						c3.803-3.225,5.747-8.698,2.869-13.158c-3.17-4.912-9.576-5.874-14.735-7.28c-1.028-0.28-2.063-0.549-3.065-0.914
						c-0.929-0.405-1.859-0.81-2.788-1.215c-2.695-0.857-3.515-2.686-2.458-5.486c0.032-3.953-0.498-3.508,2.051-5.281
						c1.185-0.824,2.445-1.568,3.681-2.312c4.222-2.541,8.611-4.799,13.132-6.761c10.606-4.603,21.853-7.436,33.339-8.651
						c0.475-0.05,0.479-0.801-0.001-0.75c-9.854,1.043-19.521,3.235-28.795,6.753c-4.365,1.656-8.631,3.581-12.758,5.766
						c-3.873,2.05-8.567,4.181-11.605,7.415c-4.453,4.74,0.665,9.142,5.268,10.96c4.339,1.713,9.208,1.967,13.359,4.19
						c8.301,4.447,7.057,14.092-0.991,17.999c-8.826,4.284-19.87-0.419-28.366,4.656
						C321.892,340.916,320.848,345.926,325.263,349.213z"/>
					<path style="fill:#FFFFFF;" d="M379.911,316.141c-0.441,2.926-0.475,5.901-0.41,8.852c0.034,1.547-0.384,4.422,0.551,5.846
						c1.803,2.744,8.045,2.452,10.931,2.653c29.166,2.039,55.393-15.797,84.499-14.96c0.483,0.014,0.482-0.736-0.001-0.75
						c-22.888-0.658-43.662,9.902-65.821,13.771c-6.143,1.073-12.444,1.659-18.678,1.189c-3.107-0.235-9.243-0.087-10.581-3.721
						c-0.686-1.865-0.204-5.347-0.165-7.273c0.128-6.3,1.367-12.348,5.585-17.237c3.44-3.987,8.264-6.588,12.808-9.104
						c0.422-0.234,0.044-0.882-0.379-0.647C389.215,299.764,381.548,305.283,379.911,316.141z"/>
					<path style="fill:#FFFFFF;" d="M54.233,328.406c23.724-1.983,47.496-0.849,71.222,0.479c23.466,1.313,47.43,3.332,70.901,1.145
						c6.033-0.562,16.59-1.183,19.678-7.625c2.856-5.96-2.971-11.142-8.245-12.541c-4.226-1.121-8.787-1.065-13.12-1.31
						c-6.126-0.347-12.255-0.636-18.385-0.9c-11.945-0.514-23.894-0.926-35.838-1.471c-27.012-1.233-54.025-3.211-80.603-8.397
						c-0.472-0.092-0.673,0.631-0.199,0.723c40.352,7.873,81.522,8.262,122.45,10.153c4.838,0.224,9.675,0.468,14.509,0.753
						c5.88,0.346,13.865-0.026,17.64,5.353c9.537,13.589-19.534,14.75-26.26,15.005c-20.855,0.793-41.713-0.474-62.529-1.639
						c-23.726-1.328-47.499-2.462-71.222-0.479C53.755,327.696,53.751,328.446,54.233,328.406z"/>
					<path style="fill:#FFFFFF;" d="M238.305,323.319c4.568,0.415,9.143,0.773,13.72,1.079c8.827,0.591,17.668,0.984,26.513,1.18
						c8.234,0.182,17.178,1.051,25.354-0.098c3.712-0.522,7.029-2.439,6.636-6.629c-0.475-5.068-5.99-7.899-9.687-10.478
						c-3.67-2.56-7.34-5.121-11.009-7.681c-3.32-2.316-14.323-8.22-8.082-13.287c0.375-0.304-0.159-0.832-0.531-0.53
						c-7.583,6.155,7.771,14.141,11.38,16.659c4.371,3.05,24.042,13.731,14.925,20.095c-2.863,1.998-7.957,1.3-11.295,1.326
						c-3.932,0.03-7.864,0.022-11.796-0.026c-7.536-0.092-15.07-0.327-22.597-0.705c-3.927-0.197-7.852-0.435-11.775-0.71
						c-3.385-0.238-7.521,0.021-10.779-0.858c-13.021-3.513,5.733-13.956,10.001-16.183c3.324-1.735,7.391-3.555,7.803-7.692
						c0.048-0.48-0.702-0.476-0.75,0.001c-0.653,6.546-13.888,9.472-18.294,13.615c-1.942,1.826-6.12,6.697-4.251,9.646
						C234.614,323.338,237.045,323.204,238.305,323.319z"/>
					<path style="fill:#FFFFFF;" d="M116.849,362.839c-6.35,0.419-12.732,0.412-19.082-0.01c-6.389-0.425-15.552-0.166-20.769-4.446
						c-0.37-0.304-0.903,0.224-0.53,0.531c5.01,4.11,13.195,4.031,19.395,4.526c9.533,0.76,19.095,0.534,28.592-0.551
						c3.085-0.352,6.717-1.484,9.021,1.855c2.882,4.178-0.586,8.905-4.291,10.576c-4.505,2.032-10.287,2.328-15.117,2.706
						c-10.097,0.789-20.204,0.203-30.178-1.521c-0.472-0.082-0.674,0.641-0.199,0.723c11.773,2.035,23.836,2.565,35.705,1.002
						c6.26-0.824,16.508-2.077,15.693-10.604C134.211,358.441,122.83,362.444,116.849,362.839z"/>
					<path style="fill:#FFFFFF;" d="M242.545,341.886c-0.601,2.86,2.374,3.587,4.518,3.911c5.592,0.845,11.557,0.906,17.2,0.792
						c5.584-0.112,11.563-0.551,16.906-2.303c2.328-0.763,4.664-1.922,4.608-4.705c-0.182-9.029-15.862-4.994-20.363-3.677
						c-0.454,0.133-0.27,0.827,0.176,0.725c-5.479,1.91-11.82,1.511-17.487,2.172C246.092,339.036,243.071,339.384,242.545,341.886z
						 M255.003,338.953c4.759-0.413,9.505-0.552,13.774-2.91c0.131-0.072,0.178-0.184,0.178-0.297
						c2.676-0.628,5.409-1.049,8.152-1.037c2.52,0.012,5.635,0.73,7.311,2.906c3.62,4.701-4.807,6.359-6.925,6.813
						c-7,1.503-14.213,1.612-21.337,1.272c-2.242-0.107-8.474,0.474-10.21-0.807c-1.82-3.464-1.501-5.183,0.958-5.156
						c0.967-0.177,1.942-0.289,2.925-0.336C251.55,339.226,253.279,339.102,255.003,338.953z"/>
				</g>
			</g>
		</g>
		<g>
			<path style="opacity:0.25;" d="M233.989,336.052c-15.895,5.386-38.757,3.218-54.554-4.076
				c-15.797-7.294-8.702-12.401-31.105-14.81c-19.132-2.051-34.811-1.406-42.545-5.018l143.25-0.141
				c-9.876,4.36-26.168,12.126-18.767,12.968C240.609,326.155,249.874,330.656,233.989,336.052z"/>
			<path style="opacity:0.25;" d="M262.887,333.38c-8.019,1.077-10.005,4.996-1.256,6.415c8.749,1.419,46.635,1.917,50.056-0.76
				c3.421-2.677-11.132-6.583-11.132-6.583s19.881-14.698,21.122-21.439c1.241-6.741-25.665-1.976-25.665-1.976l-13.176,12.77
				l-11.007,5.268"/>
		</g>
		<g>
			<g>
				<g>
					<path style="opacity:0.25;" d="M192.279,356.023c-0.099,0.64-0.379,1.14-0.799,1.531c-3.267,2.933-15.081-1.015-17.5,0.027
						c-2.729,1.193-8.068,12.368-8.068,12.368l-72.453-3.519c-0.66-0.469-1.311-0.949-1.961-1.458l1.369-0.771l3.178-1.783
						l10.549-1.19l0.01,0l30.907-3.49l8.265-5.018c0.01,0.01,0.01,0,0.01,0l3.468-2.103l3.138-1.903l1.729-1.042l1.979-1.202
						l0.66-0.401l1.589-0.961l1.999-1.212l1.729-1.052l1.119-0.671l3.758-2.284l16.99-0.017l-2.363,6.622l-1.027,2.871l-0.05,0.14
						c0,0,7.541,0.563,10.573,3.4C191.966,353.733,192.467,354.763,192.279,356.023z"/>
					<path style="fill:#ED594A;" d="M194.28,348.833l-18.445,0.716l6.206-10.21l-0.005-4.753l-2.017,1.548l-10.117,2.857
						l-50.034-1.433l-20.681,21.403l-6.322,1.785l0.005,4.753l71.592,2.487l7.848-12.461c0,0,6.706-0.699,10.673,0.841
						c3.88,1.506,10.728,2.909,11.254-1.94l0.049,0L194.28,348.833z"/>
					<path style="fill:#FFBF94;" d="M92.865,360.747l26.999-27.941l62.173,1.78l-7.014,11.539c0,0,2.831,0.794,7.213,0.296
						c4.382-0.499,12.279-2.323,12.04,2.93c-0.239,5.253-7.33,3.802-11.297,2.262c-3.967-1.54-10.673-0.841-10.673-0.841
						l-7.848,12.461L92.865,360.747z"/>
					<path style="opacity:0.25;" d="M162.744,348.805c0.002,2.215-9.828,4.02-21.957,4.031s-21.962-1.774-21.964-3.988
						s9.828-4.02,21.956-4.031C152.908,344.804,162.742,346.59,162.744,348.805z"/>
				</g>
				<g>
					<path style="fill:#57B8AB;" d="M118.776,341.125c-3.599-3.469-8.732,0.603-8.732,0.603s-0.288,1.01,3.333,2.135
						c3.621,1.125,4.986-0.005,4.986-0.005s-2.373,3.685-1.953,7.131c6.356-0.779,4.685-8.44,4.685-8.44L118.776,341.125z"/>
					
						<ellipse transform="matrix(0.3426 -0.9395 0.9395 0.3426 -230.8545 344.2287)" style="fill:#F53D56;" cx="130.545" cy="337.074" rx="13.01" ry="13.01"/>
					<path style="fill:#FF6982;" d="M141.154,331.237c2.643,4.795,1.885,10.281-1.694,12.255c-3.579,1.973-8.623-0.314-11.267-5.109
						c-2.643-4.795-1.885-10.281,1.694-12.254C133.467,324.155,138.511,326.443,141.154,331.237z"/>
					<g>
						<path style="fill:#F53D56;" d="M154.471,339.518c5.471-0.226,10.016,2.265,10.152,5.563c0.136,3.298-4.188,6.155-9.659,6.381
							c-5.471,0.226-10.016-2.265-10.152-5.563C144.677,342.601,149.001,339.744,154.471,339.518z"/>
						<path style="fill:#FF6982;" d="M154.358,340.138c4.403-0.182,8.052,1.612,8.151,4.007c0.099,2.395-3.39,4.483-7.793,4.665
							c-4.403,0.182-8.052-1.612-8.151-4.007C146.466,342.409,149.955,340.32,154.358,340.138z"/>
						<path style="opacity:0.25;fill:#FFFFFF;" d="M154.406,341.285c3.238-0.134,5.922,1.186,5.995,2.947
							c0.073,1.761-2.493,3.297-5.732,3.431c-3.238,0.134-5.922-1.186-5.995-2.947C148.601,342.955,151.167,341.419,154.406,341.285
							z"/>
						<path style="fill:#FF6982;" d="M154.446,342.27c2.238-0.092,4.093,0.819,4.143,2.037c0.05,1.217-1.723,2.279-3.961,2.371
							c-2.238,0.092-4.093-0.819-4.143-2.037C150.435,343.424,152.208,342.363,154.446,342.27z"/>
						<path style="opacity:0.25;" d="M154.483,343.159c1.335-0.055,2.442,0.489,2.472,1.215s-1.028,1.36-2.363,1.415
							c-1.335,0.055-2.442-0.489-2.472-1.215C152.089,343.848,153.148,343.214,154.483,343.159z"/>
					</g>
					<path style="opacity:0.25;fill:#FFFFFF;" d="M139.536,332.129c1.983,3.598,1.414,7.715-1.271,9.195
						c-2.685,1.48-6.47-0.236-8.454-3.834c-1.983-3.598-1.414-7.715,1.271-9.195C133.768,326.815,137.553,328.532,139.536,332.129z"
						/>
					<path style="fill:#FF6982;" d="M138.107,332.917c1.4,2.54,0.999,5.447-0.898,6.492c-1.896,1.046-4.569-0.167-5.969-2.707
						c-1.4-2.54-0.999-5.447,0.897-6.492C134.034,329.165,136.707,330.377,138.107,332.917z"/>
					<path style="opacity:0.25;" d="M136.862,333.604c0.893,1.619,0.636,3.471-0.572,4.138c-1.208,0.666-2.911-0.106-3.804-1.725
						c-0.893-1.619-0.636-3.471,0.572-4.137C134.266,331.213,135.969,331.985,136.862,333.604z"/>
				</g>
			</g>
			<g>
				<path style="fill:#382742;" d="M236.165,312.02c0.013,13.43-5.175,25.905-30.835,25.93c-25.67,0.025-30.882-12.44-30.895-25.87
					l30.872,1.63L236.165,312.02z"/>
				<path style="fill:#382742;" d="M236.313,312.887c0.005,4.951-13.875,8.979-31.001,8.995
					c-17.126,0.017-31.014-3.983-31.019-8.935c-0.005-4.951,13.875-8.979,31.001-8.995
					C222.421,303.935,236.308,307.935,236.313,312.887z"/>
				
					<linearGradient id="SVGID_00000102514563513629901930000007437817431059776654_" gradientUnits="userSpaceOnUse" x1="205.0579" y1="282.1719" x2="205.2714" y2="334.4808" gradientTransform="matrix(1 -0.001 0.001 1 -0.1917 0.0929)">
					<stop  offset="0" style="stop-color:#F5F8FF"/>
					<stop  offset="1" style="stop-color:#BCBFF7"/>
				</linearGradient>
				<path style="fill:url(#SVGID_00000102514563513629901930000007437817431059776654_);" d="M234.197,313.182
					c0,0.19-0.02,0.37-0.079,0.56c-0.189,0.77-0.768,1.511-1.678,2.212c-4.037,3.094-14.665,5.304-27.125,5.317
					c-11.35,0.011-21.172-1.809-25.894-4.465c-1.161-0.649-2.021-1.348-2.512-2.088c-0.32-0.48-0.491-0.969-0.491-1.479
					c-0.004-4.44,12.922-8.063,28.882-8.078C221.249,305.144,234.192,308.742,234.197,313.182z"/>
				
					<linearGradient id="SVGID_00000046299344438623830200000012228628895642132879_" gradientUnits="userSpaceOnUse" x1="205.7178" y1="313.7011" x2="205.9554" y2="321.3045" gradientTransform="matrix(1 -0.001 0.001 1 -0.1917 0.0929)">
					<stop  offset="0" style="stop-color:#FFBF94"/>
					<stop  offset="1" style="stop-color:#FF954D"/>
				</linearGradient>
				<path style="fill:url(#SVGID_00000046299344438623830200000012228628895642132879_);" d="M232.439,315.953
					c-2.188,1.682-6.317,3.096-11.626,4.042c-2.979,0.533-6.339,0.916-9.929,1.12c-1.3,0.071-2.62,0.123-3.98,0.134
					c-0.52,0.021-1.06,0.021-1.59,0.022c-8.09,0.008-15.401-0.915-20.642-2.41c-2.121-0.598-3.891-1.296-5.252-2.055
					c3.967-3.034,11.816-4.022,17.206-3.877c7.49,0.193,9.158-2.309,14.558-1.714c5.401,0.585,5.162,1.605,10.632,1.69
					C226.186,312.96,231.447,313.384,232.439,315.953z"/>
				
					<linearGradient id="SVGID_00000136379635297106161350000011067585614705687958_" gradientUnits="userSpaceOnUse" x1="218.6789" y1="315.8692" x2="217.2531" y2="318.186" gradientTransform="matrix(1 -0.001 0.001 1 -0.1917 0.0929)">
					<stop  offset="0" style="stop-color:#FFBF94"/>
					<stop  offset="1" style="stop-color:#FF954D"/>
				</linearGradient>
				<path style="fill:url(#SVGID_00000136379635297106161350000011067585614705687958_);" d="M220.813,319.995
					c-2.979,0.533-6.339,0.916-9.929,1.12c1.698-1.862,2.395-5.252,6.596-3.556C218.911,318.137,219.992,319.026,220.813,319.995z"
					/>
			</g>
			<g>
				<path style="opacity:0.25;" d="M293.036,363.498c0.004,3.937-16.401,7.145-36.642,7.165c-20.241,0.02-36.652-3.156-36.656-7.093
					c-0.004-3.937,16.401-7.145,36.642-7.165C276.621,356.385,293.032,359.561,293.036,363.498z"/>
				<path style="fill:#91B3E5;" d="M288.129,357.204c0.006,5.888-13.727,10.674-30.673,10.691
					c-16.946,0.017-30.688-4.743-30.694-10.631c-0.006-5.888,13.727-10.674,30.673-10.691
					C274.381,346.556,288.123,351.316,288.129,357.204z"/>
				<path style="fill:#CDDDF7;" d="M293.025,352.684c0.002,2.27-2.476,4.372-6.674,6.097c-6.457,2.626-16.996,4.347-28.896,4.358
					c-11.9,0.012-22.442-1.688-28.904-4.302c-4.212-1.706-6.694-3.813-6.696-6.083c-0.006-5.75,15.92-10.436,35.58-10.455
					C277.085,342.28,293.02,346.934,293.025,352.684z"/>
				<path style="fill:#F5F8FF;" d="M286.441,358.13c0,0.22-0.03,0.44-0.089,0.65c-6.457,2.626-16.996,4.347-28.896,4.358
					c-11.9,0.012-22.442-1.688-28.904-4.302c-0.06-0.21-0.09-0.43-0.091-0.65c-0.005-4.69,12.962-8.503,28.982-8.518
					C273.452,349.653,286.436,353.44,286.441,358.13z"/>
				<path style="fill:#8FA9EA;" d="M282.203,358.214c0.071,1.836-9.546,3.697-21.48,4.156c-11.934,0.459-21.665-0.656-21.736-2.492
					c-0.071-1.836,9.546-3.697,21.48-4.156C272.401,355.262,282.133,356.378,282.203,358.214z"/>
				<path style="fill:#667DC6;" d="M238.187,346.295c7.01-0.244,9.562-2.525,9.562-2.525s1.964,2.205,10.933,2.802
					c8.969,0.597,12.89-0.844,12.89-0.844s0.836,4.098,5.707,4.569l-36.119-0.262L238.187,346.295z"/>
				<path style="fill:#4B5DA0;" d="M285.892,349.641l1.162,2.299c-0.45,0.18-0.95,0.391-1.489,0.611
					c-5.938,2.546-16.972,7.717-30.672,7.93c-7.89,0.118-15.641-0.585-22.232-1.708c0.309-0.87,0.488-1.52,0.488-1.52l-6.062-2.034
					l3.199-0.703l3.629-0.794c0.299-1.3-0.275-4.65-0.275-4.65l-2.82-0.337l2.679-0.803c0,0,0.638-1.641-0.853-3.439
					c4.381,0.716,8.862,1.801,13.412,2.537c12.562,2.038,24.504,3.806,31.991,0.859c1.629-0.642,3.759-1.574,6.187-2.636l0.401,1.29
					l1.79-0.352l-1.489,1.251l0.421,1.58l1.959-0.632L285.892,349.641z"/>
				<path style="fill:#667DC6;" d="M230.287,354.516l-3.199,0.703l6.062,2.034c0,0-0.179,0.65-0.488,1.52
					c-8.531-1.462-15.134-3.615-17.605-5.563c-0.03-0.02-0.06-0.05-0.09-0.07c-4.283-3.426-4.375-4.826-4.375-4.826
					c6.935-5.127,14.345-5.064,22.056-3.822c1.492,1.799,0.853,3.439,0.853,3.439l-2.679,0.803l2.82,0.337
					c0,0,0.573,3.349,0.275,4.65L230.287,354.516z"/>
				<path style="fill:#667DC6;" d="M316.909,356.341c-2.98,0.033-5.71-0.144-8.21-0.462c-10.261-1.28-16.485-4.774-19.065-4.701
					c-0.49,0.01-1.21,0.231-2.139,0.592l-0.01,0c-0.14,0.05-0.28,0.11-0.43,0.17l-1.162-2.299l1.429-1.251l-1.959,0.632l-0.421-1.58
					l1.489-1.251l-1.79,0.352l-0.401-1.29c8.676-3.749,21.151-8.961,28.463-7.408c-2.137,3.152-11.302,8.681-11.302,8.681
					S315.922,349.691,316.909,356.341z"/>
				<path style="fill:#382742;" d="M226.757,344.815c0.014,0.279-0.573,0.534-1.31,0.571c-0.737,0.037-1.346-0.159-1.36-0.438
					c-0.014-0.279,0.573-0.534,1.31-0.571C226.134,344.341,226.743,344.537,226.757,344.815z"/>
				<path style="opacity:0.25;" d="M285.565,352.551c-5.938,2.546-16.972,7.717-30.672,7.93c-7.89,0.118-15.641-0.585-22.232-1.708
					c-8.531-1.462-15.134-3.615-17.605-5.563c-0.03-0.02-0.06-0.05-0.09-0.07c-1.293-2.709,2.837-2.713,8.91-0.389
					c1.551,0.598,3.771,1.196,6.412,1.764c9.052,1.961,23.003,3.477,31.613,2.709C272.509,356.284,284.042,349.473,285.565,352.551z
					"/>
				<path style="opacity:0.25;" d="M308.699,355.879c-10.261-1.28-16.485-4.774-19.065-4.701c-0.49,0.01-1.21,0.231-2.139,0.592
					c4.937-2.915,7.247-2.707,11.709-0.791c4.452,1.906,12.412,1.738,12.953,3.497C312.428,355.355,310.768,355.737,308.699,355.879
					z"/>
			</g>
			<g>
				<path style="fill:#FFFFFF;" d="M307.149,337.851l-46.099,0.045c-2.001,0.002-3.625-1.619-3.627-3.62l-0.005-4.752
					c-0.002-2.001,1.619-3.625,3.62-3.627l46.099-0.045c2.001-0.002,3.625,1.619,3.627,3.62l0.005,4.752
					C310.771,336.225,309.151,337.849,307.149,337.851z"/>
				<path style="fill:#382742;" d="M309.846,331.848c0.003,2.658-0.703,4.813-1.577,4.813c-0.873,0.001-1.583-2.153-1.586-4.81
					s0.703-4.813,1.577-4.813C309.134,327.037,309.844,329.191,309.846,331.848z"/>
			</g>
			<g>
				<path style="opacity:0.25;" d="M368.219,372.815c0.003,3.19-7.752,5.783-17.321,5.793c-9.569,0.009-17.329-2.569-17.333-5.759
					c-0.003-3.19,7.752-5.783,17.321-5.793S368.215,369.626,368.219,372.815z"/>
				<g>
					<polygon style="fill:#F5F8FF;" points="351.913,336.879 351.953,377.307 338.279,371.836 338.083,361.223 337.843,347.968 
						337.569,333.142 					"/>
					<polygon style="fill:#CDDDF7;" points="365.049,371.866 351.953,377.307 351.913,336.879 364.361,331.454 364.602,345.722 
						364.859,360.556 					"/>
					<polygon style="fill:#52C1CC;" points="337.568,333.141 346.831,319.31 357.964,320.896 351.915,336.881 					"/>
					<polygon style="fill:#3094A5;" points="364.357,331.454 357.964,320.896 351.915,336.881 					"/>
					<polygon style="fill:#3094A5;" points="357.964,320.896 358.12,317.286 346.889,315.901 346.831,319.31 					"/>
					<g>
						<path style="fill:#382742;" d="M350.147,327.83c-0.478,1.268-1.713,1.977-2.758,1.583c-1.045-0.394-1.504-1.742-1.025-3.01
							c0.478-1.268,1.713-1.977,2.758-1.583C350.167,325.214,350.626,326.561,350.147,327.83z"/>
						<path style="fill:#664B7A;" d="M349.441,327.564c-0.478,1.268-1.713,1.977-2.758,1.583c-1.045-0.394-1.504-1.742-1.025-3.01
							c0.478-1.268,1.713-1.978,2.758-1.583C349.46,324.947,349.919,326.295,349.441,327.564z"/>
					</g>
					<polygon style="fill:#664B7A;" points="351.928,351.608 351.943,366.718 338.083,361.223 337.843,347.968 					"/>
					<polygon style="fill:#382742;" points="364.859,360.556 351.943,366.718 351.928,351.608 364.602,345.722 					"/>
				</g>
			</g>
		</g>
	</g>
	<g>
		<path style="fill:#382742;" d="M338.301,157.398c-7.174-3.741-16.993,5.948-15.899,17.793c1.093,11.846-4.291,18.256-5.615,28.42
			c-1.323,10.164,4.589,13.958,4.589,13.958l4.186-7.906l-3.781,17.521c0,0,26.703,9.872,45.917,4.251
			c19.214-5.621,11.896-11.203,9.964-17.543c-1.932-6.34-2.652-12.144-2.652-12.144s4.918,15.14,8.03,15.604
			c3.111,0.464,6.148-0.853,6.604-9.791c0.456-8.938-3.616-9.627-6.587-18.05c-2.971-8.423-2.522-23.188-7.911-29.739
			C369.757,153.219,351.159,140.802,338.301,157.398z"/>
		<g>
			
				<linearGradient id="SVGID_00000157292045045346846470000001974195438833673634_" gradientUnits="userSpaceOnUse" x1="381.69" y1="322.2213" x2="503.3534" y2="143.0532">
				<stop  offset="0" style="stop-color:#FFB8B8"/>
				<stop  offset="1" style="stop-color:#F46C8A"/>
			</linearGradient>
			<polyline style="fill:url(#SVGID_00000157292045045346846470000001974195438833673634_);" points="405.119,291.871 
				406.01,312.01 382.13,312.01 382.13,295.97 399.059,288.49 			"/>
			<path style="fill:#F5F8FF;" d="M408.5,294.37l-26.37,1.6v16.04h-65.59l0.39-6.39l0.51-8.22l-9.16-2.14l-15.26-3.57
				c0,0,4.81-25.84,6.77-39.74c1.96-13.9,10.87-22.45,20.5-26.38c1.75-0.71,3.65-1.4,5.6-2.06c1.74-0.58,3.52-1.13,5.25-1.65
				c6.97-2.07,13.15-3.47,13.15-3.47l8.434-2.796c0,0,14.376,1.776,18.616,3.296c1.7,0.61,3.61,1.33,5.61,2.13
				c8.78,3.55,19.39,8.85,22.47,14.71C404.94,246.25,408.5,294.37,408.5,294.37z"/>
			<path style="fill:#CDDDF7;" d="M316.93,305.62l0.51-8.22l-9.16-2.14c0.57-2.85,1.03-6.33,1.14-10.46
				c0.33-12.57-0.71-19.11,5.9-32.13c-1.82,4.77-3.37,14.89-0.56,23.34l16.4,30.65L316.93,305.62z"/>
			<polyline style="fill:#CDDDF7;" points="382.13,295.97 380.584,258.812 370.96,282.663 379.04,298.228 			"/>
			
				<linearGradient id="SVGID_00000060743170915936111400000009745990867380988074_" gradientUnits="userSpaceOnUse" x1="348.07" y1="203.4729" x2="348.7827" y2="360.3048">
				<stop  offset="0" style="stop-color:#F56DA2"/>
				<stop  offset="1" style="stop-color:#F5366D"/>
			</linearGradient>
			<path style="fill:url(#SVGID_00000060743170915936111400000009745990867380988074_);" d="M382.13,295.97v16.04h-65.59l0.9-14.61
				c0,0-0.54-15.21-2.68-21.39c5.91-7.75,11.48-33.39,11.13-52.5c1.74-0.58,3.52-1.13,5.25-1.65c0.7,7.67,1.26,20.51-0.88,33.71
				h36.19c0,0,0.52-23.01,4.89-36.68c1.7,0.61,3.61,1.33,5.61,2.13c-3.38,19.73-2.33,39.56-1.97,44.65
				c0.38,5.35,6.32,13.07,6.32,13.07L382.13,295.97z"/>
			<path style="fill:#382742;" d="M331.203,243.812h-5.941c-0.853,0-1.545-0.691-1.545-1.545l0,0c0-0.853,0.691-1.545,1.545-1.545
				h5.941c0.853,0,1.544,0.692,1.544,1.545l0,0C332.747,243.12,332.056,243.812,331.203,243.812z"/>
			<path style="fill:#382742;" d="M373.931,243.812h-5.941c-0.853,0-1.545-0.691-1.545-1.545l0,0c0-0.853,0.692-1.545,1.545-1.545
				h5.941c0.853,0,1.544,0.692,1.544,1.545l0,0C375.475,243.12,374.784,243.812,373.931,243.812z"/>
			
				<linearGradient id="SVGID_00000094583773603614634790000006958734461435213440_" gradientUnits="userSpaceOnUse" x1="338.1506" y1="182.1821" x2="350.0324" y2="292.4448" gradientTransform="matrix(0.9982 0.0594 -0.0594 0.9982 16.8212 -10.5556)">
				<stop  offset="0" style="stop-color:#F56DA2"/>
				<stop  offset="1" style="stop-color:#F5366D"/>
			</linearGradient>
			<path style="fill:url(#SVGID_00000094583773603614634790000006958734461435213440_);" d="M348.168,302.128L348.168,302.128
				c-7.48,0.106-13.629-5.872-13.734-13.352l-0.191-13.543l27.086-0.382l0.191,13.543
				C361.625,295.873,355.647,302.022,348.168,302.128z"/>
			<path style="fill:#F5F8FF;" d="M316.54,250.35c-0.43,0.8-0.84,1.57-1.22,2.32C315.73,251.6,316.15,250.8,316.54,250.35z"/>
		</g>
		<g>
			
				<linearGradient id="SVGID_00000135654295104475400760000004372553983910208191_" gradientUnits="userSpaceOnUse" x1="349.2654" y1="259.9044" x2="359.0677" y2="164.3765" gradientTransform="matrix(-0.9991 0.0421 0.0421 0.9991 696.1265 -14.3254)">
				<stop  offset="0" style="stop-color:#FFB8B8"/>
				<stop  offset="1" style="stop-color:#F46C8A"/>
			</linearGradient>
			<path style="fill:url(#SVGID_00000135654295104475400760000004372553983910208191_);" d="M339.324,221.962
				c0,0,0.559,4.711,9.539,6.204c8.981,1.494,14.63-6.241,14.63-6.241s-0.246-7.516,0.029-11.922
				c0.022-0.431,0.154-2.298,0.189-2.66c-3.258,2.489-8.421,6.36-15.188,6.324c-3.654-0.016-6.704-1.389-9.173-3.437
				c0.458,3.264,0.358,6.841,0.196,9.18C339.452,220.955,339.324,221.962,339.324,221.962z"/>
			
				<linearGradient id="SVGID_00000014624005351732185600000015057625778656605084_" gradientUnits="userSpaceOnUse" x1="349.1689" y1="238.2915" x2="352.3769" y2="220.707" gradientTransform="matrix(-0.9991 0.0421 0.0421 0.9991 696.1265 -14.3254)">
				<stop  offset="0" style="stop-color:#FFB8B8"/>
				<stop  offset="1" style="stop-color:#F46C8A"/>
			</linearGradient>
			<path style="fill:url(#SVGID_00000014624005351732185600000015057625778656605084_);" d="M339.547,219.41
				c7.363,0.401,18.04-4.903,23.976-9.407c0.022-0.431,0.154-2.298,0.189-2.66c-3.258,2.489-8.421,6.36-15.188,6.324
				c-3.654-0.016-6.704-1.389-9.173-3.437C339.808,213.494,339.709,217.071,339.547,219.41z"/>
			
				<linearGradient id="SVGID_00000020377961843428967730000005798454238681844123_" gradientUnits="userSpaceOnUse" x1="379.2541" y1="187.8465" x2="366.732" y2="197.0693" gradientTransform="matrix(-0.9991 0.0421 0.0421 0.9991 696.1265 -14.3254)">
				<stop  offset="0" style="stop-color:#FFB8B8"/>
				<stop  offset="1" style="stop-color:#F46C8A"/>
			</linearGradient>
			<path style="fill:url(#SVGID_00000020377961843428967730000005798454238681844123_);" d="M331.443,190.182
				c-1.801-2.533-4.587-1.829-4.606,1.368c-0.018,3.196,3.853,6.164,6.029,4.898"/>
			
				<linearGradient id="SVGID_00000114776425722420951910000002827739020567651461_" gradientUnits="userSpaceOnUse" x1="351.6078" y1="196.5923" x2="364.6407" y2="64.2581" gradientTransform="matrix(-0.9991 0.0421 0.0421 0.9991 696.1265 -14.3254)">
				<stop  offset="0" style="stop-color:#FFB8B8"/>
				<stop  offset="1" style="stop-color:#F46C8A"/>
			</linearGradient>
			<path style="fill:url(#SVGID_00000114776425722420951910000002827739020567651461_);" d="M338.081,210.551
				c2.468,2.048,5.519,3.421,9.173,3.437c6.767,0.035,11.83-2.38,15.089-4.869c2.328-1.769,3.786-5.109,4.245-6.089
				c1.091-2.368,1.798-6.096,1.798-6.096s1.408,1.812,4.573,0.698c3.166-1.114,3.379-8.66-0.78-9.025
				c-4.159-0.355-4.134,4.498-4.134,4.498l-4.827-12.23c-12.99,0.507-23.895-11.124-23.895-11.124l-9.137,17.992
				c0,0-0.004,2.052-0.056,7.229C330.088,198.517,332.7,206.113,338.081,210.551z"/>
			<path style="fill:none;stroke:#F46C8A;stroke-linecap:round;stroke-linejoin:round;stroke-miterlimit:10;" d="M345.672,190.394
				l-2.122,5.489c-0.347,0.897,0.047,1.91,0.909,2.337l1.576,0.781"/>
			<path style="fill:none;stroke:#F46C8A;stroke-linecap:round;stroke-linejoin:round;stroke-miterlimit:10;" d="M373.228,192.683
				c-0.523-2.535-3.866-1.443-2.976,2.742"/>
			<path style="fill:#382742;" d="M353.303,192.112c0.031,0.744,0.66,1.322,1.404,1.291c0.744-0.031,1.322-0.66,1.291-1.404
				c-0.031-0.744-0.66-1.322-1.404-1.291C353.85,190.739,353.272,191.368,353.303,192.112z"/>
			<path style="fill:#382742;" d="M335.409,191.516c0.031,0.744,0.66,1.322,1.404,1.291c0.744-0.031,1.322-0.66,1.291-1.404
				c-0.031-0.744-0.66-1.322-1.404-1.291C335.956,190.143,335.378,190.771,335.409,191.516z"/>
			<path style="fill:none;stroke:#382742;stroke-linecap:round;stroke-linejoin:round;stroke-miterlimit:10;" d="M358.575,186.402
				c0,0-3.448-1.401-6.918-0.482"/>
			<path style="fill:none;stroke:#382742;stroke-linecap:round;stroke-linejoin:round;stroke-miterlimit:10;" d="M340.645,186.168
				c0,0-3.552-1.111-6.934,0.092"/>
			<path style="fill:#FFFFFF;" d="M352.582,202.692c0.434,1.819-0.689,3.646-2.508,4.08c-1.819,0.434-3.646-0.689-4.08-2.508"/>
		</g>
		<g>
			
				<linearGradient id="SVGID_00000034796628187241284740000012918567593650483882_" gradientUnits="userSpaceOnUse" x1="297.153" y1="314.0267" x2="559.4898" y2="254.1454">
				<stop  offset="0" style="stop-color:#FFB8B8"/>
				<stop  offset="1" style="stop-color:#F46C8A"/>
			</linearGradient>
			<path style="fill:url(#SVGID_00000034796628187241284740000012918567593650483882_);" d="M293.02,291.69l-0.891,4.993
				c0,0-25.129,24.148-26.287,27.535c-1.158,3.386-1.306,13.188,0.683,14.614c1.99,1.426,3.95,0,3.95,0s0.891,2.139,3.654,1.782
				c2.762-0.357,3.654-1.515,3.654-1.515s2.228,2.486,4.544,1.555c2.317-0.931,2.228-10.555,3.921-12.783
				c1.693-2.228,2.228-2.049,2.228-2.049l5.324,0.089l-2.294-4.01l20.354-11.047c2.065-1.121,3.525-3.102,3.982-5.407l1.599-8.048
				l-2.966-1.494c-6.406-3.226-13.553-4.697-20.712-4.261L293.02,291.69z"/>
			<path style="fill:none;stroke:#F46C8A;stroke-linecap:round;stroke-linejoin:round;stroke-miterlimit:10;" d="M277.782,339.099
				c-0.178-4.366-0.827-10.96,1.458-13.188"/>
			<path style="fill:none;stroke:#F46C8A;stroke-linecap:round;stroke-linejoin:round;stroke-miterlimit:10;" d="M270.475,338.832
				c-0.327-6.089-0.98-11.733,3-14.465"/>
		</g>
	</g>
</g>
</svg>
