<?xml version="1.0" encoding="utf-8"?>
<!-- Generator: Adobe Illustrator 27.5.0, SVG Export Plug-In . SVG Version: 6.00 Build 0)  -->
<svg version="1.1" id="_x2018_лой_x5F_1" xmlns="http://www.w3.org/2000/svg" xmlns:xlink="http://www.w3.org/1999/xlink"
	 x="0px" y="0px" viewBox="0 0 3200 2000" style="enable-background:new 0 0 3200 2000;" xml:space="preserve">
<rect style="fill:#FFFFFF;" width="3200" height="2000"/>
<g>
	<path style="fill:#DCEAFF;" d="M2993.4,1181.34c-0.19,12.48-0.641,24.91-1.33,37.271c-0.25,4.609-0.53,9.2-0.851,13.79
		c-0.67,9.729-1.479,19.41-2.43,29.039c-0.7,7.181-1.48,14.341-2.33,21.461c-5.96,50.05-15.37,98.56-26.96,144.71
		c-18.061,71.87-48.75,137.34-89.15,194.069c-5.01,7.04-10.17,13.95-15.479,20.721c-10.82,13.81-22.24,27.029-34.22,39.64
		c-14.91,15.71-30.681,30.45-47.2,44.16c-91.561,76-206.48,120.29-328.95,120.33l-340.71,0.109l-490.15,0.171l-28.46,0.02
		l-1090.89,0.37c-107.9,0.03-193.53-66.53-234.38-156.34c-16.91-37.15-26.16-78.28-26.16-120.32c0-1.021,0.01-2.05,0.02-3.07
		c0.01-0.909,0.02-1.81,0.04-2.72c0.05-2.17,0.12-4.35,0.21-6.53c0.04-1.03,0.09-2.06,0.15-3.09c0.06-1.09,0.12-2.18,0.19-3.28
		c0.07-0.97,0.13-1.939,0.21-2.899c0.09-1.11,0.18-2.22,0.27-3.33c0.26-3.021,0.58-6.03,0.94-9.05c0.12-0.99,0.24-1.971,0.37-2.95
		c0.3-2.24,0.62-4.48,0.96-6.72c0.14-0.91,0.29-1.82,0.44-2.721c0.34-2.06,0.7-4.13,1.09-6.189c0.35-1.851,0.71-3.7,1.1-5.551
		c0.27-1.289,0.55-2.579,0.83-3.869c0.45-1.971,0.91-3.94,1.39-5.91c0.01-0.04,0.02-0.08,0.03-0.12c0.26-1.03,0.52-2.05,0.78-3.08
		c0.27-1.03,0.54-2.05,0.82-3.08c1.39-5.13,2.93-10.25,4.62-15.35c1.02-3.05,2.09-6.11,3.22-9.15c1.55-4.18,3.2-8.34,4.96-12.49
		c0.44-1.029,0.88-2.069,1.34-3.1c0.45-1.03,0.91-2.07,1.38-3.101c0.47-1.029,0.94-2.06,1.42-3.09c0.48-1.029,0.96-2.05,1.46-3.08
		c0.49-1.029,0.99-2.05,1.5-3.069c0.94-1.89,1.9-3.78,2.89-5.66c0.28-0.55,0.57-1.101,0.87-1.65c1.3-2.439,2.64-4.88,4.02-7.3
		c0.24-0.43,0.49-0.859,0.74-1.29c0.45-0.79,0.9-1.58,1.37-2.36c0.59-1.01,1.18-2.01,1.79-3.01c1.13-1.869,2.26-3.74,3.4-5.619
		c1.1-1.82,2.21-3.65,3.32-5.48c3.88-6.391,7.77-12.8,11.65-19.26c1.34-2.23,2.67-4.46,4.01-6.7c3.76-6.32,7.5-12.7,11.19-19.14
		c0.69-1.2,1.37-2.4,2.05-3.601c0.07-0.12,0.14-0.24,0.21-0.37c1.93-3.39,3.84-6.81,5.72-10.25c0.59-1.07,1.18-2.14,1.75-3.21
		c1.07-1.96,2.12-3.92,3.17-5.89c0.52-0.98,1.04-1.96,1.55-2.94c0.38-0.72,0.76-1.439,1.14-2.17c0.49-0.939,0.98-1.88,1.46-2.83
		c0.69-1.33,1.37-2.67,2.04-4.01c1.25-2.45,2.47-4.91,3.68-7.39c0.78-1.58,1.54-3.17,2.3-4.771c0.63-1.319,1.26-2.64,1.87-3.97
		c1.31-2.8,2.6-5.61,3.85-8.45c0.55-1.22,1.09-2.45,1.62-3.68c1.4-3.19,2.76-6.42,4.09-9.67c0.37-0.9,0.74-1.811,1.1-2.72
		c1.12-2.761,2.21-5.541,3.26-8.351c0.33-0.85,0.65-1.7,0.97-2.56c1.77-4.761,3.47-9.601,5.09-14.5c0.35-1.061,0.7-2.131,1.04-3.2
		c0.66-2.03,1.3-4.08,1.92-6.14c0.11-0.341,0.21-0.681,0.32-1.021c0.32-1.09,0.65-2.19,0.97-3.29c0.34-1.17,0.68-2.35,1.01-3.53
		c0.34-1.18,0.67-2.37,0.99-3.56c0.65-2.38,1.28-4.771,1.88-7.19c0.3-1.21,0.6-2.42,0.89-3.63c0.3-1.22,0.58-2.439,0.87-3.66
		c0.28-1.229,0.56-2.449,0.83-3.689c0.21-0.971,0.43-1.95,0.63-2.93c0.06-0.261,0.12-0.521,0.17-0.78c0.03-0.12,0.06-0.24,0.08-0.37
		c0.21-0.99,0.41-1.98,0.61-2.98c0.18-0.88,0.36-1.77,0.53-2.67c0.12-0.59,0.23-1.18,0.33-1.77c0.23-1.15,0.44-2.301,0.64-3.46
		c0.07-0.351,0.14-0.7,0.19-1.061c0.22-1.18,0.42-2.37,0.61-3.569c0.12-0.681,0.24-1.36,0.34-2.04c0.18-1.061,0.35-2.13,0.5-3.2
		c0.07-0.41,0.14-0.83,0.19-1.25c0.21-1.35,0.41-2.71,0.59-4.07c0.05-0.38,0.11-0.76,0.16-1.15c0.21-1.55,0.41-3.119,0.6-4.689
		c0.22-1.72,0.42-3.439,0.6-5.18c0.01-0.04,0.01-0.07,0.01-0.11c0.4-3.51,0.73-7.05,1.02-10.63c0.3-3.6,0.55-7.23,0.74-10.9
		c0.11-1.83,0.19-3.67,0.26-5.529c0.42-10.141,0.46-20.58,0.11-31.33c-0.06-1.74-0.13-3.5-0.21-5.26
		c-0.05-1.311-0.11-2.621-0.18-3.931c-1.64-30.96-6.59-64.53-15.66-101.29c-29.61-120.08-32.33-229.16-13.98-326.57
		c1.65-8.84,3.49-17.59,5.5-26.23c5.3-22.87,11.79-45.05,19.37-66.56c5.51-15.61,11.6-30.85,18.24-45.74
		c17.11-38.37,37.87-74.33,61.76-107.8c85.26-119.53,210.31-207.41,351.03-260.89c304.37-115.72,682.05-70.51,888.979,163.52
		c180.62,204.24,621.88,19.51,949.641,173.58c63.279,29.74,122.329,72.11,174.46,132.34c8.41,9.72,16.63,19.9,24.67,30.57
		c23.71,31.48,45.76,67.2,65.859,107.73c0.851,1.71,1.711,3.44,2.551,5.17c17.069,35.09,32.71,73.74,46.71,116.28
		c6.01,18.28,11.27,36.6,15.8,54.92c0.91,3.63,1.77,7.25,2.62,10.87c11.21,48.23,17.54,96.42,19.939,144.031
		c0.021,0.409,0.04,0.829,0.061,1.229c0.35,7.2,0.609,14.38,0.8,21.55c0.01,0.17,0.01,0.35,0.01,0.521
		C2993.56,1156.9,2993.6,1169.15,2993.4,1181.34z"/>
	<path style="opacity:0.6;fill:#5AB8FF;" d="M2993.504,1172.312c-0.021,3.012-0.053,6.021-0.104,9.028
		c-0.19,12.48-0.641,24.91-1.33,37.271c-0.25,4.609-0.53,9.2-0.851,13.79c-0.67,9.729-1.479,19.41-2.43,29.039
		c-0.7,7.181-1.48,14.341-2.33,21.461c-5.96,50.05-15.37,98.56-26.96,144.71c-18.061,71.87-48.75,137.34-89.15,194.069
		c-5.01,7.04-10.17,13.95-15.479,20.721c-10.82,13.81-22.24,27.029-34.22,39.64c-14.91,15.71-30.681,30.45-47.2,44.16
		c-91.561,76-206.48,120.29-328.95,120.33l-340.71,0.109l-490.15,0.171l-28.39-0.011l-802.48-0.27
		c-171.01-0.061-327.28-85.761-425.85-223.261l64.35-151.39l84.71-199.3l21.27-50.05l24.22-56.99l18.27-43h2422.71
		c0.359,7.2,0.63,14.38,0.8,21.55c0.01,0.17,0.01,0.35,0.01,0.521c0.08,3.247,0.139,6.492,0.182,9.733
		c0.023,1.74,0.031,3.477,0.046,5.215c0.011,1.37,0.025,2.741,0.029,4.109c0.002,0.624,0.013,1.249,0.014,1.872
		c0,2.097-0.012,4.188-0.025,6.279C2993.504,1171.983,2993.504,1172.147,2993.504,1172.312z"/>
	<path style="opacity:0.9;fill:#F8FCFF;" d="M2214.731,716.434c0,0,26.1-30.639,88.514-27.235c0,0,90.612-51.067,187.24-6.809
		c0,0,102.714-10.967,178.782,9.495c50.717,13.642,67.468,27.953,67.468,27.953L2214.731,716.434z"/>
	<path style="opacity:0.9;fill:#F8FCFF;" d="M1541.675,858.744c0,0,40.892-75.412,138.679-67.033
		c0,0,141.968-125.691,293.358-16.758c0,0,160.927-26.991,280.105,23.37c79.46,33.577,105.705,68.8,105.705,68.8L1541.675,858.744z"
		/>
	<path style="opacity:0.9;fill:#F8FCFF;" d="M1300.219,438.585c0,0,16.074-34.294,54.512-30.484c0,0,55.805-57.159,115.313-7.621
		c0,0,63.257-12.274,110.104,10.628c31.234,15.27,41.55,31.288,41.55,31.288L1300.219,438.585z"/>
	<path style="opacity:0.9;fill:#F8FCFF;" d="M1978.522,615.137c0-22.417,18.172-40.588,40.589-40.588
		c22.416,0,40.588,18.172,40.588,40.588c0,22.416-18.172,40.588-40.588,40.588C1996.694,655.726,1978.522,637.553,1978.522,615.137z
		"/>
	<path style="fill:#FFE0B3;" d="M2820.65,1682.04c-14.91,15.71-30.681,30.45-47.2,44.16c-91.561,76-206.48,120.29-328.95,120.33
		l-340.71,0.109l-490.15,0.171l-28.439,0.01l-1090.91,0.38c-107.9,0.03-193.53-66.53-234.38-156.34
		c-16.91-37.15-26.16-78.28-26.16-120.32c0-1.021,0.01-2.05,0.02-3.07c0.01-0.909,0.02-1.81,0.04-2.72
		c0.05-2.17,0.12-4.35,0.21-6.53c0.04-1.03,0.09-2.06,0.15-3.09c0.06-1.09,0.12-2.18,0.19-3.28c0.07-0.97,0.13-1.939,0.21-2.899
		c0.09-1.11,0.18-2.22,0.27-3.33c0.26-3.01,0.57-6.03,0.94-9.05c0.12-0.99,0.24-1.971,0.37-2.95c0.3-2.24,0.62-4.48,0.96-6.72
		c0.14-0.91,0.29-1.82,0.44-2.721c0.33-2.06,0.7-4.13,1.09-6.189c0.35-1.851,0.71-3.7,1.1-5.551c0.27-1.289,0.55-2.579,0.83-3.869
		c0.45-1.971,0.91-3.94,1.39-5.91c0.01-0.04,0.02-0.08,0.03-0.12c0.26-1.03,0.52-2.05,0.78-3.08c0.27-1.03,0.54-2.05,0.82-3.08
		c1.38-5.13,2.92-10.25,4.62-15.35c0.514-1.537,1.041-3.076,1.581-4.614c0.447-1.273,0.911-2.545,1.378-3.815
		c0.088-0.239,0.171-0.481,0.26-0.721c0.025-0.069,0.054-0.138,0.079-0.207c0.726-1.954,1.473-3.905,2.247-5.854
		c0.033-0.084,0.065-0.169,0.098-0.253c0.821-2.063,1.662-4.122,2.536-6.177c0.44-1.029,0.88-2.069,1.34-3.1
		c0.45-1.03,0.91-2.07,1.38-3.101c0.47-1.029,0.94-2.06,1.42-3.09c0.48-1.029,0.96-2.05,1.46-3.08c0.49-1.029,0.99-2.05,1.5-3.069
		c0.94-1.89,1.9-3.78,2.89-5.66c0.28-0.55,0.57-1.101,0.87-1.65c1.3-2.439,2.64-4.88,4.02-7.3c0.24-0.43,0.49-0.859,0.74-1.29
		c0.45-0.79,0.9-1.58,1.37-2.36c0.59-1.01,1.18-2.01,1.79-3.01c1.13-1.869,2.26-3.74,3.4-5.619c1.1-1.82,2.21-3.65,3.32-5.48
		c3.88-6.391,7.77-12.8,11.65-19.26c1.34-2.23,2.67-4.46,4.01-6.7c3.76-6.32,7.5-12.7,11.19-19.14c0.68-1.2,1.37-2.4,2.05-3.601
		c0.07-0.12,0.14-0.24,0.21-0.37c1.92-3.399,3.83-6.81,5.72-10.25c0.59-1.07,1.17-2.14,1.75-3.21c1.07-1.96,2.12-3.92,3.17-5.89
		c0.52-0.98,1.04-1.96,1.55-2.94c0.38-0.72,0.76-1.439,1.14-2.17c0.49-0.939,0.98-1.89,1.46-2.83c0.69-1.33,1.37-2.67,2.04-4.01
		c1.25-2.45,2.47-4.91,3.68-7.39c0.78-1.58,1.54-3.17,2.3-4.771c0.63-1.319,1.25-2.649,1.87-3.97c1.31-2.8,2.6-5.61,3.85-8.45
		c0.55-1.22,1.09-2.45,1.62-3.68c1.4-3.19,2.76-6.42,4.09-9.67c0.37-0.9,0.74-1.811,1.1-2.72c1.12-2.761,2.21-5.541,3.26-8.351
		c0.33-0.85,0.65-1.7,0.97-2.56c1.77-4.761,3.47-9.601,5.09-14.5c0.35-1.061,0.7-2.131,1.04-3.2c0.66-2.03,1.3-4.08,1.92-6.14
		c0.11-0.341,0.21-0.681,0.32-1.021c0.33-1.09,0.65-2.19,0.97-3.29c0.35-1.17,0.68-2.35,1.01-3.53c0.34-1.18,0.67-2.37,0.99-3.56
		c0.65-2.38,1.28-4.771,1.88-7.19c0.31-1.2,0.61-2.409,0.89-3.63c0.3-1.21,0.59-2.43,0.87-3.66c0.28-1.229,0.56-2.449,0.83-3.689
		c0.22-0.971,0.43-1.95,0.63-2.93c0.06-0.261,0.12-0.521,0.17-0.78c0.03-0.12,0.06-0.24,0.08-0.37c0.21-0.99,0.42-1.98,0.61-2.98
		c0.18-0.89,0.36-1.779,0.53-2.67c0.12-0.59,0.23-1.18,0.33-1.77c0.23-1.15,0.44-2.301,0.64-3.46c0.07-0.351,0.14-0.7,0.19-1.061
		c0.22-1.18,0.42-2.38,0.61-3.569c0.12-0.681,0.23-1.36,0.34-2.04c0.17-1.061,0.34-2.13,0.5-3.2c0.07-0.41,0.14-0.83,0.19-1.25
		c0.21-1.35,0.4-2.71,0.59-4.07c0.05-0.38,0.11-0.76,0.16-1.15c0.21-1.55,0.41-3.119,0.6-4.689c0.21-1.72,0.41-3.439,0.6-5.18
		c0.01-0.04,0.01-0.07,0.01-0.11c0.39-3.51,0.72-7.05,1.02-10.63c0.29-3.6,0.54-7.23,0.74-10.9c0.1-1.83,0.18-3.68,0.26-5.529
		c0.41-10.141,0.46-20.57,0.11-31.33c-0.06-1.74-0.13-3.5-0.21-5.26h851.08c0,0,1.92,0,5.4,0.02c3.26,0.03,7.88,0.08,13.59,0.18
		c2.83,0.051,5.93,0.11,9.26,0.18c8.11,0.181,17.58,0.45,27.93,0.851c10.37,0.399,21.62,0.93,33.22,1.63
		c13.12,0.79,26.69,1.8,39.98,3.09c2.62,0.26,5.22,0.521,7.81,0.801c1.97,0.209,3.92,0.42,5.86,0.64c2.7,0.31,5.37,0.63,8.01,0.97
		c65.851,8.35,113.36,25.01,41,58.311c-7.78,3.58-23.61,7.97-43.439,13.26c-0.83,0.22-1.67,0.449-2.521,0.67
		c-13.09,3.49-27.8,7.35-43.02,11.62c0,0-0.01,0-0.01,0.01c-2.59,0.72-5.19,1.46-7.8,2.21c-6.1,1.75-12.25,3.561-18.39,5.45
		c-10.62,3.25-21.18,6.7-31.33,10.37c-18.22,6.56-35.12,13.79-48.63,21.729c-26.68,15.66-40.18,34.101-24.61,55.66
		c0.15,0.21,0.32,0.43,0.51,0.64c7.1,8.25,35.78,15.75,80,22.7c0.81,0.13,1.63,0.261,2.45,0.38c1.92,0.301,3.86,0.59,5.83,0.891
		c24.39,3.64,53.03,7.13,85.03,10.5c2.55,0.27,5.13,0.529,7.74,0.8c80.49,8.28,181.06,15.819,288.13,23.02
		c14.439,0.98,29,1.94,43.65,2.9c0.949,0.07,1.899,0.13,2.859,0.19c0.6,0.039,1.19,0.08,1.79,0.119
		c35.07,2.301,70.61,4.57,106.16,6.83c32.3,2.051,64.6,4.09,96.569,6.131c14.07,0.899,28.08,1.789,41.99,2.699
		c16.29,1.051,32.46,2.101,48.44,3.16c45.84,3.04,90.229,6.09,132.06,9.2c19.48,1.45,38.41,2.91,56.67,4.39
		c10.2,0.82,20.2,1.65,29.961,2.49c19.229,1.65,37.579,3.311,54.899,5c122.979,12.03,194.08,25.38,160.13,41.71
		c-0.45,0.22-0.92,0.44-1.4,0.65c-6.149,2.75-15.26,5.579-27.569,8.5C2095.91,1537.439,2262.33,1641.15,2820.65,1682.04z"/>
	<path style="fill:#FFE6C5;" d="M2103.785,1846.643l-490.147,0.172l-28.457,0.013l-1090.888,0.37
		c-107.901,0.037-193.531-66.53-234.382-156.333c-30.111-66.16-35.926-144.926-8.481-218.987
		c6.185-16.704,14.061-33.173,23.741-49.197c36.16-59.877,75.296-120.654,92.012-200.148h384.913c0,0,23.877-0.012,56.185,1.234
		c89.124,3.433,242.407,16.42,135.876,65.433c-38.024,17.493-267.901,54.309-219.753,120.987
		c48.161,66.667,1502.801,84.827,1215.9,152.901C1688.021,1622.963,1777.934,1768.444,2103.785,1846.643z"/>
	<path style="fill:#FFF0E2;" d="M1693.428,1812.433c-46.186,10.963-82.173,22.519-108.247,34.395l-1090.888,0.37
		c-107.901,0.037-193.531-66.53-234.382-156.333c-30.111-66.16-35.926-144.926-8.481-218.987h253.79c0,0,23.876-0.013,56.185,1.234
		c89.123,3.433,242.408,16.42,135.876,65.432c-38.024,17.494-267.901,54.309-219.753,120.988
		C525.688,1726.197,1980.329,1744.358,1693.428,1812.433z"/>
	<path style="fill:#CCE3FF;" d="M599.17,588.16c-1.9-14.89-7.7-27.49-20.22-33.85c0,0-27.29-14.42-49.45-5.89
		c0,0,2.77,4.1,7.34,10.45c-28.66-18.36-64.1-32.21-105.6-32.02c0,0,10.1,12.21,25.09,28.47c-21.25-4.33-44.06-6.23-67.96-4.33
		c-6.64,14.89-12.73,30.13-18.24,45.74c6.66,3.16,13.69,6.44,21.04,9.78c10.64-7.69,24.31-15.47,36.6-17.31
		c0,0-9.96,11.22-16.32,26.36c8.13,3.5,16.42,6.98,24.83,10.37c-28.52,6.23-57.72,17.81-85.52,37.36
		c-2.01,8.64-3.85,17.39-5.5,26.23c2.16,0.22,4.44,0.46,6.85,0.69c12.7,1.22,28.55,2.66,46.06,3.83c5.14,0.37,10.39,0.64,15.75,0.92
		c4.5,0.3,9.02,0.5,13.57,0.74c0.58-0.85,1.17-1.81,1.77-2.76c5.48-8.33,13.56-19.24,21.74-24.67c0,0-2.56,16.27-3.95,27.66
		c-0.08,0.15-0.04,0.32-0.11,0.47c0.59,0.01,1.18,0.02,1.77,0.03c0.06-0.03,0.06-0.03,0.06-0.03c18.55,0.53,37.18,0.44,54.63-0.39
		c1.02-7.49,2.52-22.14,0.1-27.01c0,0,12.68,7.64,13.71,26.1c3.84-0.33,7.53-0.67,11.08-1.09c0.73-0.07,1.46-0.16,2.18-0.26
		c10.34-1.27,19.54-3.03,27.72-5.16c8.55-2.21,15.97-4.8,22.41-7.59c1.24-0.53,2.42-1.07,3.58-1.62
		C585.75,672.9,603.76,623.96,599.17,588.16z M584.18,679.38c-0.26,1.02-0.1,0.99,0.61-0.28
		C584.59,679.2,584.39,679.29,584.18,679.38z M821.89,783.69c-0.84-2.26-1.7-4.49-2.61-6.69c-6.15-15.23-13.57-29.06-21.91-41.61
		c-3.31-4.99-6.77-9.79-10.36-14.38c-0.64-0.84-1.3-1.67-1.97-2.49c-0.15-0.2-0.31-0.4-0.47-0.6c-0.5-0.62-1-1.23-1.51-1.84
		c-10.01-12.16-20.89-22.9-32.2-32.36c22.05,1.59,37.89,1.89,37.89,1.89c-25.69-32.6-58.59-51.7-90.8-62.68
		c7.81-0.39,12.74-0.77,12.74-0.77c-2.02-6.41-5.74-12-10.03-16.72c-10.86-11.94-25.38-18.29-25.38-18.29
		c-6.96-3.18-13.46-5.49-19.52-7.09c-27.64-7.28-46,0.33-56.59,8.1c-3.19,2.34-5.67,4.68-7.49,6.64
		c-13.34-27.89-148.21,53.31-115.24,52.29c11.54-0.36,45.27-5.29,54.37-6.13c-0.53,7.89,4.17,12.29,12.96,14.33
		c2.35,0.53,4.71,0.83,7.05,0.91c-3.21,4.67-11.37,17.44-22.53,37.81c-22.73,41.47-57.91,114.46-89.12,214.84
		c-25.24,81.16-40.14,175.96-45.18,212.46c-1.23,8.909-1.88,14.35-1.94,15.25c0,0,6.6,6.05,24.63,7.539
		c16.91,1.391,30.55-3.189,30.55-3.189c0.23-3.021,0.92-9.811,2.06-19.6c5.02-43.341,18.7-145.541,39.09-240.46
		c20.62-96.01,51.18-158.5,69.81-192.26c8.55-2.21,15.97-4.8,22.41-7.59c3.74,9.37,8.88,19.68,15.78,30.91
		c1.12,1.86,2.3,3.74,3.54,5.65c1.17,1.82,2.4,3.67,3.66,5.56c15.08-10.67,28.96-5.53,28.96-5.53c-5.31,1.14-15.85,11.45-21.07,16.9
		c10.23,14.19,21.749,28.82,33.72,42.99c0,0,0,0,0,0.08c0.39,0.45,0.76,0.9,1.14,1.35c0.07-0.14,0.22-0.22,0.31-0.37
		c1.77-1.81,3.7-3.81,5.61-5.83c6.79-7.12,13.56-14.49,13.56-14.49c0.83,9.78-2.65,22.89-5.76,32.37c-0.37,1.07-0.76,2.13-1.07,3.11
		c3.04,3.41,5.99,6.82,9.03,10.15c3.55,4.03,7.05,7.97,10.53,11.76c3.98,4.36,7.86,8.55,11.6,12.54c2.29,2.46,4.53,4.85,6.71,7.15
		c4.82,5.08,9.32,9.77,13.38,13.96c3.71,3.81,7.05,7.21,9.92,10.12c3.96,4.03,7.04,7.12,9.03,9.05c1.51,1.52,2.35,2.36,2.35,2.36
		c0.07-0.76,0.15-1.52,0.15-2.2c0.18-2.09,0.34-4.15,0.46-6.2c0.2-3.08,0.33-6.14,0.38-9.19c0.75-34.46-5.84-65.27-16.66-92.41
		c-0.4-1-0.81-1.99-1.22-2.99c-2.04-4.93-4.23-9.74-6.53-14.43c3.67,2.09,7.35,4.14,11.02,6.15c0.61,0.34,1.21,0.68,1.82,1
		c3.59,1.97,7.17,3.91,10.73,5.81c4.71-8.6,7.52-17.34,9.03-22.98c0.11-0.43,0.22-0.84,0.31-1.23c0.79-3.08,1.12-4.97,1.12-4.97
		c0.65,1.14,1.27,2.32,1.84,3.56c0.1,0.22,0.21,0.45,0.31,0.67v0.01c4.64,10.37,6.57,23.7,7.1,35.18c2.13,1.09,4.24,2.16,6.33,3.21
		c3.69,1.86,7.3,3.66,10.83,5.39c4.48,2.22,8.83,4.32,13,6.32c0.22-0.36,0.43-0.73,0.64-1.09c6.89-12.1,6.12-24.52,6.12-24.52
		c6.35,10.53,10.53,25.31,12.87,34.94c2.51,1.13,4.85,2.19,7.05,3.26c2.46,1.12,4.73,2.15,6.78,3.07c8.23,3.71,13.09,5.8,13.09,5.8
		C826.21,796.27,824.16,789.91,821.89,783.69z"/>
	<path style="fill:#ABCEF4;" d="M815.25,188.44c0,0-5.4-2.85-14.09-6.14c-17.82-6.73-49.48-15.26-76.9-4.7c0,0,5.1,7.53,13.5,19.21
		c-52.74-33.79-117.95-59.26-194.33-58.9c0,0,18.59,22.46,46.17,52.39c-67.92-13.86-144.51-14.23-225.36,12.33
		c-11.56,3.85-23.07,8.2-34.84,13.12c0,0,13.38,7.17,35.53,18.43c4.04,1.94,8.26,4.11,12.77,6.41c16.55-7.65,42.61-18.59,65.08-21.5
		c0,0-19.95,13.92-29.16,39.08c17.13,8.3,35.97,17.19,56.08,26.32c19.57-14.15,44.73-28.47,67.35-31.86c0,0-18.33,20.66-30.03,48.51
		c14.95,6.47,30.21,12.86,45.68,19.09c-62.4,13.66-126.58,41.21-186.11,90.74c-7.23,5.93-14.19,12.19-21.2,18.83
		c-0.99,0.79-1.99,1.76-2.99,2.74c0,0,2.15,0.25,6.07,0.69c8.71,1.09,26.07,2.96,49.33,5.31c15.23,1.47,32.93,3.09,52.33,4.65
		c10.37,0.83,21.22,1.64,32.44,2.39c9.46,0.68,19.13,1.18,29,1.71c8.27,0.54,16.57,0.89,24.96,1.34c1.07-1.56,2.16-3.32,3.26-5.08
		c10.08-15.34,24.96-35.39,40-45.39c0,0-4.69,29.94-7.27,50.89c-0.13,0.28-0.07,0.59-0.2,0.87c1.09,0.02,2.18,0.05,3.27,0.07
		c0.11-0.08,0.11-0.08,0.11-0.08c34.13,1,68.4,0.82,100.54-0.69c1.86-13.79,4.63-40.77,0.18-49.72c0,0,23.32,14.07,25.22,48.04
		c7.06-0.61,13.86-1.23,20.4-2c1.35-0.16,2.68-0.32,4.01-0.49c30.89-3.77,107.17-109.84,117.11-186.58
		C847.17,227.43,840.33,201.18,815.25,188.44z M1268.19,627.59c-1.67-5.17-3.42-10.27-5.25-15.31c-0.19-0.57-0.4-1.14-0.61-1.71
		c-2.13-5.74-4.35-11.38-6.67-16.91c-3.32-7.95-6.82-15.68-10.5-23.21c-3.77-7.71-7.71-15.2-11.81-22.48
		c-27.96-49.54-63.51-89.39-101.72-121.39c40.59,2.93,69.74,3.49,69.74,3.49c-47.28-59.98-107.83-95.14-167.11-115.36
		c14.37-0.7,23.44-1.4,23.44-1.4c-13.12-41.71-65.15-64.44-65.15-64.44c-82.03-37.48-129.23-9.33-149.39,9.6
		c-1.67,1.57-3.16,3.08-4.47,4.48c-24.55-51.33-272.76,98.1-212.07,96.22c21.23-0.66,83.32-9.73,100.06-11.26
		c-0.98,14.5,7.67,22.59,23.85,26.36c4.32,0.98,8.65,1.53,12.97,1.67c-5.89,8.6-20.91,32.1-41.46,69.6
		c-18.49,33.73-41.45,78.79-66.28,134.52c-17.97,40.33-36.92,86.24-55.84,137.5c-14.12,38.19-28.22,79.34-41.9,123.36
		c-29.42,94.59-51.2,199.28-65.58,280.391c-7.33,41.359-12.74,76.59-16.25,101.22c-3.13,21.939-4.75,35.46-4.89,37.42
		c0,0,9.52,8.729,34.68,12.63c3.28,0.51,6.83,0.93,10.66,1.25c31.12,2.56,56.21-5.86,56.21-5.86c0.49-6.479,2.14-22.37,4.88-45.439
		c3.04-25.53,7.42-59.86,13.06-99.99c0.05-0.41,0.11-0.82,0.17-1.229c12.98-92.381,32.55-215.15,57.62-331.92
		c1.21-5.62,2.43-11.18,3.67-16.68c14.48-64.04,31.3-119.65,48.41-167.27c47.92-133.35,98.1-204.05,105.53-221.96
		c6,26.08,18.27,57.75,41.15,94.99c4.05,6.7,8.51,13.53,13.25,20.65c27.76-19.67,53.29-10.19,53.29-10.19
		c-9.77,2.1-29.16,21.07-38.78,31.11c2.9,4.02,5.86,8.06,8.87,12.11c13.711,18.47,28.47,37.23,43.771,55.69
		c3.12,3.78,6.26,7.54,9.43,11.29c0,0,0,0,0,0.14c0.7,0.84,1.4,1.68,2.1,2.51c0.13-0.27,0.41-0.41,0.55-0.69
		c14.79-15.07,35.29-37.39,35.29-37.39c1.54,18-4.88,42.13-10.6,59.57c-0.69,1.95-1.39,3.9-1.95,5.72
		c5.58,6.27,11.02,12.55,16.6,18.69c6.56,7.39,12.97,14.65,19.39,21.62c21.76,23.85,41.99,45.06,58.31,61.93
		c16.32,16.74,28.59,29.16,34.87,35.3c2.79,2.79,4.33,4.32,4.33,4.32c0.14-1.39,0.28-2.79,0.28-4.04
		c0.83-9.63,1.39-18.98,1.53-28.32c0.29-13.47-0.03-26.64-0.9-39.5c-0.77-11.39-1.979-22.55-3.58-33.46
		c-6.98-47.59-21.5-90.65-40.44-129.17c14.51,8.23,29.02,16.18,43.39,23.86c14.5-26.51,19.25-53.71,19.25-53.71
		c11.44,19.81,15.9,48.41,17.01,72.54c19.67,10.04,38.36,19.25,55.52,27.48c2.09-3.42,3.83-6.87,5.27-10.27
		c5.99-14.01,7.05-27.08,7.19-33.22c0.04-2.33-0.04-3.66-0.04-3.66c0.37,0.62,0.74,1.25,1.12,1.88
		c6.19,10.75,11.21,23.63,15.17,35.89c1.23,3.83,2.37,7.61,3.4,11.24c1.57,5.53,2.91,10.73,4.02,15.3c4.6,2.09,8.93,4.04,12.97,5.99
		c1.24,0.57,2.45,1.12,3.64,1.66c2.03,0.92,3.98,1.81,5.85,2.65c16.95,7.67,27.06,12.01,27.06,12.01
		C1271.99,639.73,1270.13,633.61,1268.19,627.59z"/>
	<path style="fill:#FFFFFF;" d="M1329.329,1213.49c0,0-197.53,23.868-179.012,43.621c18.519,19.754-28.237,3.636-41.817,23.389
		s54.163,17.353,54.163,33.402c0,16.049-76.543,25.926-48.148,45.679s260.494-8.643,261.728,7.407
		c1.235,16.049-59.259,50.617,28.395,46.913c87.654-3.703,224.691-51.852,216.05-33.333c-8.643,18.519,95.062-9.877,95.062-9.877
		s-59.671,2.47-71.193-13.168c-9.988-13.556,37.859-42.799-55.145-23.046c-15.963,3.391-107.613,18.107-154.732,13.169
		c-45.801-4.8,62.249-30.469,20.576-37.859c-26.893-4.771-148.103,3.186-168.518-2.059c-36.5-9.375,54.321-38.271-6.791-44.444
		C1228.35,1258.072,1329.329,1213.49,1329.329,1213.49z"/>
	<path style="fill:#FFFFFF;" d="M2854.87,1642.4c-10.82,13.81-22.24,27.029-34.22,39.64c-14.91,15.71-30.681,30.45-47.2,44.16
		c-63.16-16.79-40.74-56.07-212.58-45.55c-181.47,11.109-137.03-5.561-105.55-31.48c31.479-25.93-303.681-14.82-318.5-40.74
		c-14.811-25.92,61.109-44.439,48.149-75.92c-3.37-8.18,12.38-17.6,37.55-27.07c12.041-4.55,26.261-9.1,41.561-13.52
		c75.75-21.93,178.279-40.89,178.279-40.89c0.4,0.56,0.73,1.12,0.98,1.68c1.721,3.76,0.29,7.51-3.32,11.25
		c-20.76,21.521-113.399,42.62-90.25,61.14c27.78,22.221,264.811-35.18,190.74,16.67c-74.07,51.851,87.03,57.4,201.84,33.33
		c114.811-24.069,66.66,40.74,107.4,64.811C2851.34,1640.85,2853.05,1641.68,2854.87,1642.4z"/>
	<path style="fill:#FFFFFF;" d="M1751.551,1371.927c0,0,161.209,8.737,146.395,29.106s18.518,24.072,122.216,14.813
		c103.699-9.259,261.431-12.233,247.438,0.936c-13.991,13.169,22.223,22.223,74.897,18.931
		c52.675-3.293,112.487,1.829,99.865,15.317l-2.746,15.135c0,0,48.56-33.745,8.23-41.976s-160.493-18.106-148.147-27.983
		c12.346-9.876-11.523-27.16-74.897-17.284c-63.374,9.877-282.305,16.461-265.021,4.938S1828.917,1360.815,1751.551,1371.927z"/>
	<g>
		<g>
			
				<rect x="1030.347" y="891.299" transform="matrix(0.4155 -0.9096 0.9096 0.4155 -139.2439 1573.0614)" style="fill:#8FB5E2;" width="248.169" height="7.165"/>
		</g>
		<g>
			<path style="fill:#FFB27D;" d="M1140.359,1615.665l-19.665-6.371c0,0-4.08-53.368,4.667-117.326
				c5.538-40.522,15.699-84.409,34.098-119.656c8.328-15.954,18.34-30.136,30.38-41.441c0,0,15.088-35.027,35.068-81.856
				c22.22-52.06,161.258-67.323,81.921,41.739c-16.277,22.378-33.756,61.774-54.707,85.701
				c-35.796,40.896-61.057,88.641-78.403,130.672C1148.928,1567.239,1140.359,1615.665,1140.359,1615.665z"/>
			<path style="fill:#FFB27D;" d="M1095.592,1618.647c-5.96,9.661,6.912,19.12,22.833,28.038s9.328,9.812,29.687,24.971
				c20.359,15.158,32.364,13.488,35.484,11.269c2.773-1.965-5.545-11.323-14.276-21.567c-1.101-1.283-2.195-2.588-3.289-3.892
				c-9.752-11.679-11.197-26.343-15.773-41.545c-4.334-14.399,2.538-50.2,2.538-50.2l-27.178-21.586c0,0-5.521,32.552-8.559,46.11
				c-1.787,7.975-8.305,14.646-13.592,19.563C1100.603,1612.488,1097.688,1615.241,1095.592,1618.647z"/>
		</g>
		<path style="fill:#FFB27D;" d="M1382.456,1150.15c-0.959,7.299-1.704,22.943-6.365,22.092c-3.8-0.695-7.751-21.422-11.894-26.424
			c-6.009-7.255-9.515-20.813-9.886-24.013c-0.762-6.593-2.311-8.217-2.311-8.217l0.013-0.009l-0.022-0.005
			c0,0-37.827-113.894-37.435-141.216c0.112-8.897-0.445-26.891-1.28-47.083c-0.899-21.954-2.107-46.509-3.045-64.911
			c18.729-0.236,38.964,2.159,55.336,4.808c-0.581,22.071-1.596,44.54-2.497,64.067c-1.346,29.039-2.453,51.563-1.524,56.599
			c2.574,13.832,3.479,86.022,9.699,124.55c0.822,3.825,1.222,11.474,4.164,16.271
			C1378.958,1132.447,1383.765,1140.191,1382.456,1150.15z"/>
		<path style="fill:#FFB27D;" d="M1326.311,1029.866c-31.812-101.685,32.222-100.361,28.909-151.246
			c-3.314-50.885-42.709-105.596-42.709-105.596s-1.411-0.143-3.873-0.371c-1.349-0.125-2.514-1.003-2.978-2.276
			c-1.469-4.022-1.898-12.82-1.874-21.995c0.032-14.007,1.106-28.877,1.106-28.877l-47.248-9.356l-2.81-0.553
			c0.085,23.767-4.413,41.634-9.283,51.613c-2.316,4.746-6.836,7.995-12.066,8.728c-10.151,1.422-28.009,4.458-40.048,9.492
			c-5.848,2.44-10.309,5.353-11.868,8.771c-12.975,28.529-25.928,100.529-35.033,151.891c-5.074,28.626-9.874,46.581-10.964,55.554
			c-1.725,14.188,43.181,23.929,48.813-2.816c1.838-8.707,6.342-26.132,11.599-45.653c0.795-2.954,1.607-5.957,2.429-8.984
			c9.282,25.173,14.022,36.824,13.764,47.699c-0.366,15.479-10.861,29.389-32.797,78.585
			C1167.262,1091.658,1358.788,1133.72,1326.311,1029.866z"/>
		<path style="fill:#E8945B;" d="M1304.892,719.506c0,0-1.075,14.87-1.107,28.877c-26.439-0.745-40.415-24.864-46.141-38.233
			L1304.892,719.506z"/>
		<path style="fill:#FFB27D;" d="M1401.01,1640.889l-20.073,4.938c0,0-31.568-43.224-57.808-102.203
			c-16.628-37.366-31.097-80.027-34.014-119.68c-1.32-17.948-0.275-35.277,4.008-51.228c0,0-5.615-37.724-13.286-88.056
			c-8.521-55.958-19.568-127.5-28.226-180.105l5.225-1.551l85.404-49.941c0,0,39.245,89.455,29.22,223.949
			c-2.056,27.595,3.828,70.291-1.386,101.664c-8.9,53.616-5.237,107.508,2.147,152.373
			C1382.797,1595.207,1401.01,1640.889,1401.01,1640.889z"/>
		<path style="fill:#F9DDBF;" d="M1162.535,1110.134c13.792-74.628,50.522-102.504,44.648-107.208
			c-0.059-0.059-0.087-0.088-0.087-0.088c-22.646-16.071-12.857-43.655-11.367-53.532c-6.955,1.87-29.396,6.107-55.08-8.065
			c10.578-51.72,25.655-124.244,40.762-152.967c0.73-1.403,1.987-2.689,3.711-3.916c-0.117-0.117-0.146-0.176-0.146-0.176
			c14.143-10.314,43.042-13.47,43.042-13.47s15.574,38.132,20.337,44.093c30.827,38.512,86.199,21.126,78.661-2.864
			c-2.718-8.737-16.714-36.232-18.409-39.301c-0.088-0.146,3.916,0.38,3.916,0.38c9.292,1.227,15.866,2.162,20.6,2.981
			c9.292,1.578,11.6,2.688,13.909,4.47c8.152,8.153,18.76,28.402,19.607,64.548c0.321,13.441,14.318,161.851-30.974,159.279
			c-1.022-0.059-0.146,2.367,1.812,6.954C1343.875,1025.95,1140.094,1231.485,1162.535,1110.134z"/>
		<path style="fill:#FFB27D;" d="M1364.521,1666.995c0.02,11.352,15.944,12.616,34.174,11.814
			c18.23-0.801,13.096,3.431,38.386,5.599c25.29,2.167,34.617-5.574,36.101-9.104c1.323-3.131-10.677-6.707-23.493-10.818
			c-1.612-0.512-3.229-1.045-4.845-1.578c-14.44-4.794-23.389-16.5-35.284-27.014c-11.267-9.96-24.275-44.016-24.275-44.016
			l-34.471-4.041c0,0,12.445,30.581,17.002,43.708c2.68,7.721,0.651,16.825-1.254,23.788
			C1365.538,1659.121,1364.509,1662.996,1364.521,1666.995z"/>
		<path style="fill:#A0312B;" d="M1380.361,1489.941c-75.534,43.158-260.634-106.19-260.429-110.164
			c1.052-21.126,20.162-148.292,42.603-269.644c13.792-74.628,50.522-102.504,44.648-107.208
			c1.403,1.139,22.704,18.32,61.771,15.982c34.977-2.104,61.917-6.486,68.521-7.655c6.399,14.697,24.545,51.573,29.805,98.881
			C1384.404,1264.036,1380.361,1489.941,1380.361,1489.941z"/>
		<path style="fill:#B5453C;" d="M1325.442,1011.744c0,0-14.734,234.41-49.561,329.515
			c-34.827,95.104-77.69,135.288-125.912,151.362s-191.547,34.826-132.609-66.975c58.938-101.802,92.425-119.215,89.746-194.227
			c-2.679-75.011,97.317-219.951,97.317-219.951l57.729,7.643L1325.442,1011.744z"/>
		<path style="fill:#ED7D2B;" d="M1207.096,1002.838c0,0,61.849,25.811,128.568,1.461l3.387,10.456c0,0-68.636,23.841-134.63-3.286
			L1207.096,1002.838z"/>
		<g>
			<path style="fill:#152847;" d="M1326.212,606.035c0,0-64.756-70.579-94.878-21.956c0,0-23.686,11.198-30.438,52.762
				c-6.889,42.408,18.939,77.609,32.991,69.026c9.012-5.504,19.979,2.43,19.979,2.43L1326.212,606.035z"/>
			<path style="fill:#F4A36C;" d="M1312.328,724.332c0,0-68.489,4.447-70.603-38.247c-2.113-42.694-12.376-70.874,31.264-75.519
				c43.639-4.645,52.948,11.226,57.119,25.305C1334.28,649.95,1330.089,722.075,1312.328,724.332z"/>
			<path style="fill:#FFFFFF;" d="M1297.711,699.634c0,0,1.428,4.974,13.908,3.593c0,0,10.478-1.158,9.889-6.672
				C1321.508,696.555,1311.127,693.113,1297.711,699.634z"/>
			<g>
				<path style="fill:#ED7D2B;" d="M1129.745,647.658c0,0,209.68-94.136,263.624-102.291c53.943-8.154,71.943-10.121,63.407,8.901
					c-8.537,19.022-60.696,97.172-150.679,107.721c-89.983,10.549-124.429,45.256-174.903,42.04s-65.874-17.111-45.966-32.665
					C1105.134,655.811,1129.745,647.658,1129.745,647.658z"/>
				<path style="fill:#F99746;" d="M1193.498,640.755c0,0-4.589-61.556,8.477-79.942c13.066-18.387,41.917-7.846,60.379-21.106
					c18.463-13.26,73.356,51.516,73.356,51.516S1278.47,640.077,1193.498,640.755z"/>
			</g>
		</g>
		<path style="fill:#8FB5E2;" d="M1239.216,1043.995l-3.583-0.597l-91.358,127.781c0,0,55.531,3.582,81.804-10.748
			s25.079-109.719,25.079-109.719L1239.216,1043.995z"/>
		<path style="fill:#AAC9F5;" d="M1099.493,1002.198c0,0,85.984,38.215,139.723,41.797c0,0-23.884,115.839-77.624,125.394
			c-53.74,9.553-109.868-28.662-107.479-58.518C1056.501,1081.016,1099.493,1002.198,1099.493,1002.198z"/>
		<path style="fill:#8FB5E2;" d="M1239.216,1043.995c0,0,10.151-5.149,11.942,6.718
			C1251.158,1050.713,1240.037,1048.474,1239.216,1043.995z"/>
		<g>
			<path style="fill:#8FB5E2;" d="M1244.438,1047.578c-1.926,0-3.517-1.51-3.579-3.425c-0.021-0.636-2.105-64.358-6.787-129.115
				c-8.447-116.869-17.805-135.507-21.437-138.097c-1.604-1.143-1.965-3.354-0.807-4.938c1.159-1.583,3.397-1.939,5.002-0.796
				c6.349,4.527,15.787,24.312,24.39,143.346c4.69,64.895,6.779,128.738,6.799,129.375c0.063,1.952-1.489,3.585-3.467,3.647
				C1244.516,1047.577,1244.477,1047.578,1244.438,1047.578z"/>
		</g>
		<path style="fill:#FFB27D;" d="M1135.468,996.675c0,0,10.897,74.19,37.767,125.243l19.705-4.479l-8.554-124.61
			C1184.386,992.829,1161.397,978.18,1135.468,996.675z"/>
		<path style="fill:#FFB27D;" d="M1190.253,1112.065c0,0,17.018,4.479,22.84,8.509c5.821,4.031,9.404,20.75,3.731,27.616
			c-3.573,4.326-14.479-9.702-21.197-9.702c-6.717,0-20.6-4.031-22.392-16.57
			C1171.444,1109.379,1190.253,1112.065,1190.253,1112.065z"/>
		<path style="fill:#FFB27D;" d="M1191.721,1112.447c0,0,9.067,1.336,20.042,1.05c0,0,1.146,1.909-1.718,2.769
			c-2.863,0.858-9.926,1.622-9.926,1.622l-8.971-5.822L1191.721,1112.447z"/>
	</g>
	<g>
		<path style="fill:#FFB27D;" d="M2268.125,1164.406l-22.238,98.363l11.629,29.895c-81.076,13.078-95.5,53.222-115.917,38.364
			c0,0-1.436-26.152-0.922-36.343c0.512-10.173-1.476-25.55,0.392-40.301l9.881-91.491c0,0-1.666-56.28,20.077-58.341
			c7.89-0.748,19.787-8.658,20.662-16.53c0.14-1.241,3.408-20.352,4.025-33.58l38.417,18.982c0,0-1.874,22.733-1.366,27.87
			c0.045,0.382,0.091,0.764,0.136,1.145c0.658,5.72,6.635,9.387,12.137,11.105C2278.9,1124.127,2268.125,1164.406,2268.125,1164.406
			z"/>
		<path style="fill:#ED975D;" d="M2250.777,1164.724c-0.177,1.378-1.437,2.352-2.813,2.176c-1.378-0.176-2.353-1.436-2.176-2.813
			c0.176-1.378,1.436-2.352,2.813-2.176C2249.979,1162.087,2250.953,1163.346,2250.777,1164.724z"/>
		<path style="fill:#ED975D;" d="M2189.647,1156.908c-0.176,1.378-1.436,2.353-2.813,2.176c-1.377-0.176-2.352-1.436-2.176-2.813
			c0.177-1.377,1.437-2.352,2.814-2.175C2188.85,1154.271,2189.824,1155.531,2189.647,1156.908z"/>
		<path style="fill:#FFB27D;" d="M2249.195,1288.15c0,0,43.022,107.468,33.403,152.46c-9.62,44.992-45.379,100.131-45.379,100.131
			l-20.509-13.266c0,0,23.421-82.193,16.753-104.277c-6.669-22.084-34.948-117.394-34.948-117.394L2249.195,1288.15z"/>
		<path style="fill:#FFB27D;" d="M2239.838,1529.518c0,0,2.576,19.803,12.761,34.599s15.416,24.382,7.704,26.586
			c-7.711,2.205-26.534-14.14-36.113-21.034c-9.58-6.895-30.994-13.497-7.865-46.764L2239.838,1529.518z"/>
		<path style="fill:#FFB27D;" d="M2205.006,1300.43c0,0,4.621,119.365-26.547,153.209c-18.635,20.235-109.877,26.149-109.877,26.149
			l-11.093-18.861c0,0,82.761-37.603,83.359-43.384c2.376-22.945-0.172-122.857-0.172-122.857L2205.006,1300.43z"/>
		<path style="fill:#FFB27D;" d="M2069.273,1479.62c0,0-19.4,4.735-32.988,16.483s-22.541,18-25.579,10.576
			c-3.038-7.422,11.141-27.926,16.941-38.205c5.801-10.278,10.012-32.288,45.617-12.951L2069.273,1479.62z"/>
		<path style="fill:#FFB27D;" d="M2245.037,1113.545c0,0,17.602,2.815,51.1-15.811c27.167-15.106,66.715-90.05,66.715-90.05
			l13.045,6.112c0,0-26.123,88.268-43.509,106.021c-17.386,17.753-64.263,44.588-64.263,44.588L2245.037,1113.545z"/>
		<path style="fill:#FFB27D;" d="M2362.852,1007.685c0,0-0.647-12.623,0.771-14.257c1.419-1.634,4.027,6.364,4.576,5.224
			c0.549-1.14,6.547-15.492,11.451-14.218c6.881,1.788,4.912,9.287,3.927,15.414c-0.985,6.126-7.681,13.95-7.681,13.95
			L2362.852,1007.685z"/>
		<path style="fill:#FFB27D;" d="M2173.05,1104.76c0,0-17.602,2.815-51.1-15.811c-27.167-15.106-66.715-90.05-66.715-90.05
			l-13.045,6.111c0,0,26.123,88.268,43.509,106.022s65.965,49.49,65.965,49.49L2173.05,1104.76z"/>
		<path style="fill:#FFB27D;" d="M2055.235,998.899c0,0,0.647-12.624-0.771-14.257s-4.027,6.364-4.576,5.224
			c-0.549-1.14-6.546-15.492-11.45-14.218c-6.882,1.787-4.913,9.286-3.928,15.413c0.985,6.126,7.681,13.949,7.681,13.949
			L2055.235,998.899z"/>
		<path style="fill:#ED975D;" d="M2194.641,1073.177c0,0,4.056,12.942,38.318,17.323l0.407-6.723L2194.641,1073.177z"/>
		<path style="fill:#FFB27D;" d="M2246.724,1082.661c0,0-56.302,13.877-61.964-27.785c-5.662-41.662,15.246-71.513,31.156-73.053
			c31.727-3.07,38.364,9.625,43.508,23.048C2264.566,1018.294,2272.684,1076.654,2246.724,1082.661z"/>
		<path style="fill:#FFFFFF;" d="M2229.564,1058.697c0,0,4.901,6.599,15.293,4.573c0,0,11.321-1.937,9.599-10.663
			C2254.456,1052.607,2240.424,1052.124,2229.564,1058.697z"/>
		<g>
			<path style="fill:#2C3A64;" d="M2194.031,1074.41c0,0-9.926-7.572-6.913-25.735c0,0-6.605-8.164-1.044-13.806
				c5.415-5.493,11.092,6.891,12.43,4.957c1.336-1.935,0.962-34.491,8.729-31.939c43.565,14.313,66.133-19.731,66.133-19.731
				s-49.058-43.328-91.975-18.845C2131.683,997.669,2155.55,1074.41,2194.031,1074.41z"/>
			<path style="fill:#2C3A64;" d="M2157.425,996.814c0,0-3.243-7.279-1.199-12.986c0,0,0.92,7.426,4.082,10.41
				C2163.471,997.222,2157.425,996.814,2157.425,996.814z"/>
			<path style="fill:#2C3A64;" d="M2157.983,991.394c0,0-6.744-0.009-9.321,5.683c0,0,4.34-3.845,9.455-0.9L2157.983,991.394z"/>
		</g>
		<path style="fill:#F77D48;" d="M2141.603,1331.023l63.403,3.256c0,0,18.21-1.674,34.145-4.384
			c12.669-2.146,23.896-4.957,23.406-8.092c-1.11-7.075-13.465-73.188-13.465-73.188s-54.415,8.888-106.36-9.617
			C2142.731,1238.998,2130.606,1274.343,2141.603,1331.023z"/>
		<path style="fill:#E26337;" d="M2084.127,1090.513c0.009-0.009,0.009-0.009,0.009-0.009h-0.009V1090.513z"/>
		<path style="fill:#E26337;" d="M2205.006,1334.279c0,0,4.458-32.934,13.706-41.615c0,0-4.933,22.051,0,40.132L2205.006,1334.279z"
			/>
	</g>
	<g>
		<path style="fill:#F2A36D;" d="M1905.502,1392.354c0,0,8.44,129.612-5.837,148.42c-14.278,18.807-38.071-4.991-42.007-17.097
			c-3.937-12.105-20.443-114.417-10.619-120.447S1905.502,1392.354,1905.502,1392.354z"/>
		<path style="fill:#F2A36D;" d="M1770.581,1534.477c12.159-1.021,49.696,3.562,79.182,7.599
			c17.496,2.396,32.155,4.604,36.987,5.341c0.116,0.017,0.217,0.031,0.319,0.052c0.652,0.1,1.08,0.164,1.268,0.196
			c0.069,0.009,0.107,0.012,0.107,0.012s18.481-33.988-18.976-48.534c-6.875-2.671-14.591-3.776-22.601-3.792
			c-1.196-0.01-2.398,0.011-3.605,0.063c-34.781,1.236-73.615,21.141-73.615,21.141L1770.581,1534.477z"/>
		<path style="fill:#F2A36D;" d="M1770.581,1534.477c0,0-32.407,23.337-39.369,17.148s14.439-21.144,17.018-27.332
			c2.578-6.188,13.958-14.447,21.418-7.739S1770.581,1534.477,1770.581,1534.477z"/>
		<path style="fill:#2C3A64;" d="M1751.739,1051.616c0,0-27.793-21.66-49.86-11.886c-22.068,9.775-34.989-24.871-61.457-26.074
			c-26.468-1.204-41.105,10.434-34.126,32.786c6.979,22.354,52.115,57.169,71.999,48.446c19.885-8.723,34.621-43.23,46.232-40.848
			c11.611,2.382,27.791,15.361,27.791,15.361L1751.739,1051.616z"/>
		<path style="fill:#FFB27D;" d="M1861.563,1212.064c-23.472-3.701-31.421-33.421-12.986-48.413
			c18.649-15.166,36.183-31.435,40.297-41.833c9.564-24.177,15.358-76.656,15.358-76.656l16.829,5.205
			c0,0,7.123,57.956-1.562,90.535c-6.309,23.668-28.551,51.365-40.248,64.748C1874.85,1210.688,1868.172,1213.106,1861.563,1212.064
			L1861.563,1212.064z"/>
		<path style="fill:#FFB27D;" d="M1921.062,1050.367c0,0-0.893-23.472-8.091-32.296s-12.518-16.543-19.655-12.701
			c-7.139,3.842,3.681,25.32,2.33,26.153s-10.887-7.579-11.127-4.945c-0.24,2.633,11.336,13.951,13.583,15.176
			c2.246,1.225,6.131,3.408,6.131,3.408L1921.062,1050.367z"/>
		<g>
			<path style="fill:#FFB27D;" d="M1836.376,1407.785c0,0,8.441,129.612-5.836,148.419c-14.278,18.807-45.028-4.409-48.964-16.515
				c-3.937-12.105-13.486-114.999-3.662-121.029S1836.376,1407.785,1836.376,1407.785z"/>
			<path style="fill:#FFB27D;" d="M1827.649,1559.257c0,0-79.852,68.116-92.489,84.997l-14.023-11.199
				c0,0,23.645-79.614,59.392-97.963S1827.649,1559.257,1827.649,1559.257z"/>
		</g>
		<path style="fill:#FFB27D;" d="M1759.735,1232.392c22.448-7.792,25.019-38.449,4.223-49.945
			c-21.038-11.631-41.171-24.543-47.059-34.05c-13.688-22.104-28.671-72.732-28.671-72.732l-15.643,8.098
			c0,0,3.236,58.303,17.544,88.834c10.395,22.179,37.183,45.507,51.063,56.61
			C1746.416,1233.386,1753.416,1234.586,1759.735,1232.392L1759.735,1232.392z"/>
		<path style="fill:#FFB27D;" d="M1678.295,1094.889c0,0-14.016-18.848-13.938-30.235s-0.615-20.736,7.354-22.216
			c7.971-1.48,13.002,22.036,14.576,21.839c1.574-0.198,3.733-12.729,5.571-10.828s-0.09,17.976-1.072,20.339
			c-0.982,2.361-2.641,6.498-2.641,6.498L1678.295,1094.889z"/>
		<path style="fill:#F77D48;" d="M1829.445,1164.606c0,0,11.223,0.502,15.724-1.958c14.423-7.88,33.45-26.35,33.45-26.35
			s38.547,40.783,11.586,89.484C1888.828,1228.27,1829.445,1164.606,1829.445,1164.606z"/>
		<path style="fill:#F77D48;" d="M1780.058,1174.026c0,0-29.666-11.631-47.698-11.103c0,0-26.538,68.97,14.92,94.486
			C1788.738,1282.926,1780.058,1174.026,1780.058,1174.026z"/>
		<path style="fill:#2C3A64;" d="M1820.506,1045.488c0,0,29.536-32.7,12.651-51.619c-16.885-18.918,7.475-51.012-24.235-59.586
			c-31.71-8.573-57.943,16.088-50.98,43.965c6.963,27.878,42.893,31.326,47.796,43.712c4.903,12.387,4.692,18.916,4.692,18.916
			L1820.506,1045.488z"/>
		<path style="fill:#E26337;" d="M1922.309,1455.635l4.326,11.737c0,0-4.498,8.021-16.746,6.5
			c-12.246-1.521-22.28,3.145-27.896,6.746c-5.616,3.603-14.096,3.374-23.09,2.058s-8.641,0.31-13.405,0.141
			s-8.053-5.085-13.479-3.362c-5.428,1.722-19.517,1.581-27.49-1.641c-7.973-3.223-26.506-0.317-30.608-4.557s-7.863-9.129-16-9.829
			c-8.137-0.699-13.855-1.893-16.25-7.101c-2.395-5.209-11.519-6.034-14.752-7.678c-3.233-1.645-3.203-6.634-6.649-7.989
			c-3.445-1.355-8.001-4.512-9.237-7.727s-6.655-2.731-7.295-4.574c-0.639-1.843,2.899-4.771,2.899-4.771L1922.309,1455.635z"/>
		<path style="fill:#F77D48;" d="M1922.309,1455.635c-44.478,34.375-159.78,32.919-215.674-32.046
			c-0.756-0.161,28.954-149.464,28.954-149.464s0.145-66.48,7.749-75.616c28.755-34.549,78.561-34.962,101.192-33.478
			C1910.54,1169.361,1926.732,1452.268,1922.309,1455.635z"/>
		<g>
			<path style="fill:#2C3A64;" d="M1843.604,1061.904c-0.432-0.66-18.291-26.81-50.098-31.029
				c-25.769-3.418-49.105,15.525-52.138,41.342c-3.048,25.942,2.17,59.234,44.693,69.791L1843.604,1061.904z"/>
			<path style="fill:#FFB27D;" d="M1817.322,1187.339l-0.089,0.04c-13.966,6.295-31.424,0.029-38.192-13.712l0.042-0.125
				c0,0,6.064-11.931,6.979-31.534c0.379-8.242,0.027-17.757-1.766-28.156l42.061,16.527c0,0-0.587,3.796-0.685,9.321
				c-0.097,5.97,0.389,13.958,2.815,21.351c0.021,0.063,0.042,0.127,0.063,0.189
				C1832.008,1171.578,1827.259,1182.859,1817.322,1187.339z"/>
			<path style="fill:#EA9C68;" d="M1828.488,1161.051c-22.821,1.648-42.426-19.043-42.426-19.043l39.61-2.308
				C1825.576,1145.67,1826.062,1153.658,1828.488,1161.051z"/>
			<path style="fill:#FFB27D;" d="M1838.272,1147.273c0,0-44.215,16.49-63.457-18.061c-20.766-37.287-5.038-67.514,10.19-70.958
				c30.367-6.867,49.389,3.085,56.021,14.941S1862.689,1138.399,1838.272,1147.273z"/>
			<path style="fill:#FFFFFF;" d="M1818.258,1128.733c0,0,2.364,4.494,14.08,0.678c0,0,9.838-3.202,8.172-8.383
				C1840.51,1121.028,1829.85,1119.792,1818.258,1128.733z"/>
			<path style="fill:#2C3A64;" d="M1803.865,1061.771c0,0,5.724,41.822-33.569,58.102c-15.624,6.474-26.131-57.342,6.5-71.311
				s65.794,0.081,70.484,22.32s1.886,27.01,1.886,27.01S1832.176,1055.868,1803.865,1061.771z"/>
			<g>
				<path style="fill:#F99746;" d="M1752.318,1069.402c-1.565-5.597-0.444-7.195,1.349-7.696c1.794-0.502,3.581,0.283,5.146,5.88
					s-0.413,11.042-0.413,11.042S1753.884,1074.999,1752.318,1069.402z"/>
				<path style="fill:#F99746;" d="M1765.347,1069.37c4.504-3.673,6.416-3.285,7.594-1.842c1.177,1.443,1.172,3.395-3.331,7.068
					c-4.504,3.673-10.286,4.037-10.286,4.037S1760.843,1073.043,1765.347,1069.37z"/>
				<path style="fill:#F99746;" d="M1747.84,1074.267c-5.756-0.804-7.189,0.521-7.447,2.365c-0.258,1.844,0.759,3.511,6.515,4.313
					c5.756,0.804,10.888-1.884,10.888-1.884S1753.596,1075.07,1747.84,1074.267z"/>
				<path style="fill:#F99746;" d="M1750.505,1087.129c-2.62,5.188-1.83,6.973-0.168,7.813s3.567,0.416,6.188-4.771
					s1.734-10.913,1.734-10.913S1753.125,1081.941,1750.505,1087.129z"/>
				<path style="fill:#F99746;" d="M1769.501,1081.816c4.931,3.076,5.182,5.012,4.196,6.592s-2.834,2.206-7.766-0.87
					c-4.931-3.075-7.144-8.43-7.144-8.43S1764.569,1078.741,1769.501,1081.816z"/>
			</g>
			<path style="fill:#FFB93E;" d="M1755.853,1078.637c-0.048-1.355,1.013-2.493,2.368-2.541s2.493,1.013,2.541,2.368
				s-1.012,2.493-2.368,2.541C1757.038,1081.053,1755.9,1079.993,1755.853,1078.637z"/>
		</g>
		<path style="fill:#FFB27D;" d="M1735.16,1644.254c0,0,22.352,24.174,16.938,36.55c-5.415,12.377-48.732-14.696-47.959-25.526
			c0.773-10.829,16.998-22.223,16.998-22.223L1735.16,1644.254z"/>
	</g>
	<g>
		<g>
			<path style="fill:#FFB27D;" d="M899.516,709.279c0,0,66.11,13.66,83.102,34.315c16.987,20.649,8.433,145.952,20.066,182.13
				c13.79,42.883,9.76,85.519,9.76,85.519l-92.959-73.944L899.516,709.279z"/>
			<path style="opacity:0.5;fill:#ED985F;" d="M967.352,824.99c0,0,25.292,67.637,12.131,94.428
				c-13.161,26.791-26.051,11.209-26.051,11.209L967.352,824.99z"/>
			<path style="fill:#FFB27D;" d="M768.412,1686.506c0,0-6.913,42.217,1.733,47.324l114.982,8.531c0,0,1.012-13.268-17.229-17.624
				c-18.241-4.356-49.855-17.642-53.509-42.14C810.736,1658.101,768.412,1686.506,768.412,1686.506z"/>
			<path style="fill:#FFB27D;" d="M1029.256,1661.712c0,0-6.914,42.217,1.732,47.324l114.982,8.531c0,0,1.012-13.269-17.229-17.625
				s-54.118-11.662-57.772-36.16C1067.316,1639.285,1029.256,1661.712,1029.256,1661.712z"/>
			<path style="fill:#FFB27D;" d="M911.25,1093.602c0,0-11.744,74.029-25.699,163.03c-18.963,120.899-44.01,222.646-50.031,250.411
				c-20.451,94.314-20.764,177.549-20.764,177.549s-9.006,12.68-46.345,1.914c0,0-15.651-61.745-25.659-220.194
				c-1.542-24.421,7.952-62.188,7.952-64.159c0.235-121.571,2.838-335.371,2.838-335.371L911.25,1093.602z"/>
			<path style="fill:#FFB27D;" d="M811.031,725.252c0,0,76.431,30.648,118.184,14.489c0,0-11.405-12.529-30.453-21.13
				c0.891-8.664,1.533-16.172,1.759-22.518c0.812-14.663,0.249-22.902,0.249-22.902l-30.081-20.504l-28.539-19.638
				C848.41,693.323,811.031,725.252,811.031,725.252z"/>
			<path style="fill:#FFB27D;" d="M757.651,755.733c-0.042,0.232-0.007,101.826,7.086,164.318
				c0.759,6.741,1.263,14.056,1.553,21.761c1.473,39.161-2.598,88.337-6.377,123.638c-2.74,25.56-5.321,43.855-5.53,45.791
				c-0.505,4.521,201.385,28.291,202.786,27.261c0.584-0.362-27.912-96.469-5.391-186.227
				c27.542-109.757,19.546-191.688-4.06-214.698c-9.394-9.166-48.206-28.296-48.206-28.296
				c-14.971,1.774-13.31,19.183-28.304,10.405c-16.431-9.53-38.841-20.528-41.961-18.493
				C805.698,715.802,769.267,709.516,757.651,755.733z"/>
			<path style="opacity:0.5;fill:#ED985F;" d="M843.237,656.185c0,0,21.03,32.809,57.284,39.909
				c0.812-14.663,0.249-22.902,0.249-22.902l-30.081-20.504L843.237,656.185z"/>
			<path style="fill:#FFB27D;" d="M913.72,671.319c0,0-69.798,16.367-79.388-26.575c-9.589-42.941-25.056-69.749,19.103-82.015
				c44.159-12.266,56.506,2.222,63.249,15.781C923.426,592.069,931.629,665.955,913.72,671.319z"/>
			<path style="fill:#2C3A64;" d="M802.837,560.965c-0.692-0.69-2.209-1.183-5.511-1.137c0,0,2.516-1.823,6.026-2.15
				c0.375-4.621,2.256-12.882,9.993-15.388c0,0-4.076,2.544-4.297,7.444c8.478-9.986,27.548-18.136,81.936-17.56
				c71.678,0.759,51.299,48.01,42.44,54.082c-8.858,6.071-33.109-7.26-50.213-4.721c-17.103,2.539-18.677,27.612-24.278,31.42
				c-5.601,3.808-3.719-2.378-11.856-5.407c-8.137-3.029-7.994,10.102-5.134,18.45c2.86,8.349-7.219,20.306-7.219,20.306
				s0,0-11.766-11.055c-11.766-11.055-25.509-60.344-21.254-71.341C802.082,562.938,802.452,561.955,802.837,560.965z"/>
			<path style="fill:#FFB27D;" d="M950.055,1066.691c0,0,96.501,215.43,115.839,310.127s4.913,293.535,4.913,293.535l-41.551-8.642
				c0,0-66.754-163.302-45.563-251.807c10.083-42.112-194.053-154.488-168.314-274.978
				C831.89,1057.641,950.055,1066.691,950.055,1066.691z"/>
			<path style="fill:#ED985F;" d="M895.959,986.033c-0.226,2.965-1.562,5.281-2.983,5.172c-1.421-0.108-2.391-2.6-2.165-5.565
				c0.226-2.965,1.562-5.281,2.983-5.172C895.217,980.577,896.185,983.068,895.959,986.033z"/>
			<path style="fill:#FFFFFF;" d="M1042.696,1277.112c0,0-41.752,23.198-102.31,33.397l-0.012,0.011
				c-10.314,1.736-21.625,3.209-33.989,4.258l-28.404-27.906l-85.101-83.589l-29.552-173.793c0,0,97.883,27.118,192.064,11.072
				C955.394,1040.563,1009.722,1142.613,1042.696,1277.112z"/>
			<path style="fill:#DCEAFF;" d="M940.386,1310.51l-0.012,0.011c-10.314,1.736-21.625,3.209-33.989,4.258l-28.404-27.906
				l26.861-157.577C907.739,1196.849,940.386,1310.51,940.386,1310.51z"/>
			<path style="fill:#FFFFFF;" d="M763.327,1029.49c0,0-15.17,34.636-18.75,81.579c-3.58,46.943-2.053,191.216-2.053,191.216
				s31.853,27.452,133.118,15.255l36.729-238.647L763.327,1029.49z"/>
			<path style="fill:#F77D48;" d="M818.527,706.187c0,0,73.388,31.807,80.984,3.095c0,0,69.727,11.845,83.106,34.313
				c13.379,22.469,18.317,106.934,18.317,106.934s-14.815,9.877-34.568,15.638l13.992,213.168c0,0-56.79,45.268-246.09,4.938
				l27.983-300.411L818.527,706.187z"/>
			<g>
				<path style="fill:#C5DDFF;" d="M936.377,904.351c-11.965,1.825-22.945,6.124-32.503,12.288
					C877.23,933.85,861.688,965.62,866.779,999c6.918,45.358,49.291,76.516,94.649,69.598c38.687-5.9,67.052-37.596,70.238-74.94
					c0.57-6.435,0.377-13.038-0.64-19.708C1024.11,928.604,981.734,897.433,936.377,904.351z"/>
				<path style="fill:#F8FBFF;" d="M936.377,904.351c-11.965,1.825-22.945,6.124-32.503,12.288
					c-4.71,12.005-6.422,25.362-4.339,39.02c6.301,41.315,44.903,69.7,86.23,63.396c18.572-2.832,34.533-12.196,45.9-25.397
					c0.57-6.435,0.377-13.038-0.64-19.708C1024.11,928.604,981.734,897.433,936.377,904.351z"/>
				<g>
					<path style="fill:#163560;" d="M961.428,1068.598L961.428,1068.598c32.419-31.813,37.144-65.04,35.024-87.695
						c-2.293-24.522-12.405-41.796-12.507-41.968l-1.099,0.652c0.101,0.169,10.076,17.223,12.339,41.488
						C997.266,1003.44,993.47,1037.154,961.428,1068.598z"/>
				</g>
				<g>
					<path style="fill:#163560;" d="M865.819,985.896L865.819,985.896c12.414-33.684,41.431-45.743,63.975-49.985
						c24.493-4.61,46.307-1.183,46.524-1.148l0.204-1.261c-0.219-0.036-22.254-3.499-46.965,1.152
						C906.688,938.959,878.44,951.649,865.819,985.896z"/>
				</g>
				<g>
					<path style="fill:#163560;" d="M986.297,932.629l0.333,1.235c0.193-0.052,19.81-5.534,29.71,4.072l0,0
						C1005.915,927.823,987.112,932.411,986.297,932.629z"/>
				</g>
				<g>
					<path style="fill:#163560;" d="M942.407,903.626c20.93,2.256,39.34,29.585,39.521,29.858l1.063-0.71
						c-0.046-0.069-4.693-6.993-11.915-14.103C964.382,912.08,953.681,904.842,942.407,903.626L942.407,903.626z"/>
				</g>
				<path style="fill:#163560;" d="M980.633,927.509c-0.903-0.005-1.732,0.179-2.455,0.514c-2.015,0.934-3.195,3.043-2.82,5.503
					c0.51,3.343,3.698,6.068,7.121,6.087c2.92,0.017,5.068-1.94,5.318-4.591c0.044-0.457,0.032-0.934-0.043-1.426
					C987.245,930.255,984.056,927.528,980.633,927.509z"/>
			</g>
			<path style="fill:#FFB27D;" d="M787.123,717.47c0,0-55.931,8.62-69.343,38.709c-17.83,39.998-43.096,180.873-23.013,209.112
				c20.403,28.69,152.118,46.311,152.118,46.311l12.284-26.357c0,0-111.873-50.018-112.317-54.993s10.112-72.64,25.242-106.731
				C785.314,793.731,787.123,717.47,787.123,717.47z"/>
			<path style="fill:#FFB27D;" d="M859.168,985.245c0,0,15.838-3.354,26.598,1.667c10.759,5.021,28.523,4.213,27.666,9.557
				c-0.857,5.344-29.164,5.278-24.768,9.316c4.396,4.038,42.623,18.893,32.124,30.321c-10.499,11.429-34.752,9.412-42.072,5.12
				c-7.319-4.293-35.101-32.246-35.101-32.246L859.168,985.245z"/>
			<path style="fill:#F77D48;" d="M818.527,706.187c0,0-80.247,19.136-96.296,38.889c-16.049,19.753-36.111,97.839-36.111,97.839
				s35.802,27.161,80.864,20.37c45.062-6.79,54.321-99.382,54.321-101.234C821.305,760.199,818.527,706.187,818.527,706.187z"/>
		</g>
		<path style="fill:#FFFFFF;" d="M918.131,642.552c0,0-1.159,7.53-8.816,8.959c-13.987,2.61-18.506-6.223-18.506-6.223
			S906.713,638.588,918.131,642.552z"/>
	</g>
	<g>
		<g>
			<path style="fill:#E8C7A0;" d="M1884.909,1714.091c0.792,1.371-0.588,3.65-3.081,5.091c-2.494,1.439-5.157,1.494-5.949,0.123
				s0.588-3.65,3.081-5.09C1881.454,1712.774,1884.117,1712.72,1884.909,1714.091z"/>
			<path style="fill:#F4D9B3;" d="M1961.085,1720.157c0.985,1.707-0.731,4.544-3.836,6.336c-3.104,1.793-6.42,1.861-7.406,0.154
				c-0.985-1.708,0.731-4.545,3.836-6.337S1960.099,1718.449,1961.085,1720.157z"/>
			<path style="fill:#FFF0E2;" d="M1907.126,1696.948c-0.772,2.095-4.485,2.656-8.295,1.253c-3.81-1.402-6.272-4.238-5.501-6.334
				c0.772-2.095,4.486-2.656,8.295-1.253C1905.435,1692.018,1907.897,1694.854,1907.126,1696.948z"/>
		</g>
		<g>
			<path style="fill:#E8C7A0;" d="M1939.891,1687.12c0.792,1.371-0.588,3.65-3.081,5.09c-2.494,1.44-5.157,1.495-5.949,0.124
				c-0.792-1.372,0.588-3.65,3.081-5.091C1936.436,1685.804,1939.099,1685.748,1939.891,1687.12z"/>
			<path style="fill:#F4D9B3;" d="M2016.066,1693.186c0.985,1.708-0.732,4.545-3.836,6.337c-3.104,1.792-6.42,1.861-7.406,0.154
				c-0.985-1.708,0.731-4.545,3.836-6.337C2011.765,1691.547,2015.08,1691.479,2016.066,1693.186z"/>
			<path style="fill:#FFF0E2;" d="M1962.107,1669.978c-0.771,2.095-4.485,2.656-8.295,1.253c-3.81-1.402-6.272-4.239-5.5-6.334
				c0.771-2.096,4.485-2.656,8.294-1.253C1960.416,1665.046,1962.879,1667.882,1962.107,1669.978z"/>
		</g>
		<g>
			<path style="fill:#E8C7A0;" d="M1960.336,1706.418c0.454,0.785-0.336,2.091-1.766,2.916c-1.429,0.825-2.954,0.856-3.408,0.07
				c-0.453-0.785,0.337-2.091,1.766-2.916S1959.883,1705.632,1960.336,1706.418z"/>
			<path style="fill:#F4D9B3;" d="M2003.979,1709.893c0.564,0.979-0.42,2.604-2.198,3.631s-3.678,1.066-4.243,0.088
				c-0.564-0.979,0.419-2.604,2.198-3.63C2001.515,1708.954,2003.414,1708.915,2003.979,1709.893z"/>
			<path style="fill:#FFF0E2;" d="M1973.064,1696.596c-0.442,1.201-2.569,1.522-4.752,0.719c-2.183-0.805-3.594-2.429-3.151-3.629
				c0.442-1.201,2.569-1.522,4.752-0.719C1972.096,1693.771,1973.507,1695.396,1973.064,1696.596z"/>
		</g>
	</g>
	<g>
		<g>
			<path style="fill:#E8C7A0;" d="M552.313,1656.906c1.028,1.779-0.763,4.736-3.998,6.604c-3.235,1.868-6.692,1.94-7.719,0.161
				c-1.028-1.78,0.762-4.737,3.998-6.605C547.83,1655.198,551.286,1655.127,552.313,1656.906z"/>
			<path style="fill:#F4D9B3;" d="M651.156,1664.777c1.279,2.215-0.95,5.896-4.978,8.223c-4.028,2.325-8.331,2.414-9.609,0.199
				c-1.279-2.216,0.949-5.896,4.978-8.223C645.574,1662.651,649.876,1662.562,651.156,1664.777z"/>
			<path style="fill:#FFF0E2;" d="M581.141,1634.663c-1.001,2.718-5.82,3.446-10.764,1.626c-4.943-1.821-8.138-5.501-7.137-8.22
				c1.002-2.718,5.82-3.446,10.763-1.626C578.946,1628.264,582.142,1631.944,581.141,1634.663z"/>
		</g>
		<g>
			<path style="fill:#E8C7A0;" d="M623.655,1621.91c1.027,1.779-0.763,4.736-3.999,6.604c-3.236,1.868-6.692,1.94-7.719,0.16
				c-1.027-1.779,0.763-4.736,3.998-6.604C619.172,1620.202,622.628,1620.13,623.655,1621.91z"/>
			<path style="fill:#F4D9B3;" d="M722.498,1629.781c1.279,2.215-0.949,5.896-4.977,8.222c-4.028,2.325-8.331,2.415-9.609,0.199
				c-1.279-2.215,0.949-5.896,4.977-8.222C716.917,1627.654,721.219,1627.565,722.498,1629.781z"/>
			<path style="fill:#FFF0E2;" d="M652.482,1599.666c-1.001,2.719-5.82,3.447-10.763,1.626c-4.943-1.82-8.138-5.5-7.137-8.219
				c1.002-2.719,5.82-3.446,10.764-1.626C650.289,1593.268,653.484,1596.947,652.482,1599.666z"/>
		</g>
		<g>
			<path style="fill:#E8C7A0;" d="M650.185,1646.949c0.589,1.021-0.437,2.714-2.291,3.784c-1.854,1.071-3.834,1.112-4.422,0.092
				c-0.589-1.02,0.437-2.714,2.29-3.784C647.616,1645.971,649.596,1645.93,650.185,1646.949z"/>
			<path style="fill:#F4D9B3;" d="M706.814,1651.459c0.733,1.27-0.544,3.379-2.852,4.711s-4.773,1.384-5.505,0.114
				c-0.733-1.269,0.544-3.378,2.852-4.711C703.616,1650.241,706.081,1650.189,706.814,1651.459z"/>
			<path style="fill:#FFF0E2;" d="M666.701,1634.206c-0.574,1.558-3.335,1.975-6.167,0.932c-2.832-1.043-4.663-3.151-4.089-4.709
				c0.574-1.558,3.335-1.975,6.167-0.932C665.443,1630.54,667.274,1632.648,666.701,1634.206z"/>
		</g>
	</g>
	<g>
		<g>
			<path style="fill:#E8C7A0;" d="M1486.82,1597.503c0.999,1.729-0.741,4.602-3.884,6.416c-3.143,1.814-6.5,1.885-7.499,0.155
				c-0.998-1.729,0.741-4.602,3.884-6.416C1482.465,1595.844,1485.822,1595.774,1486.82,1597.503z"/>
			<path style="fill:#F4D9B3;" d="M1582.838,1605.148c1.242,2.152-0.922,5.729-4.835,7.988c-3.913,2.259-8.092,2.346-9.335,0.193
				c-1.242-2.152,0.922-5.729,4.835-7.987S1581.595,1602.997,1582.838,1605.148z"/>
			<path style="fill:#FFF0E2;" d="M1514.823,1575.895c-0.973,2.642-5.654,3.349-10.456,1.58s-7.906-5.344-6.933-7.984
				s5.654-3.348,10.456-1.579S1515.796,1573.254,1514.823,1575.895z"/>
		</g>
		<g>
			<path style="fill:#E8C7A0;" d="M1556.123,1563.507c0.998,1.729-0.741,4.601-3.884,6.416c-3.144,1.814-6.501,1.885-7.499,0.155
				c-0.998-1.729,0.741-4.602,3.884-6.416S1555.125,1561.777,1556.123,1563.507z"/>
			<path style="fill:#F4D9B3;" d="M1652.141,1571.152c1.243,2.152-0.922,5.729-4.835,7.987c-3.913,2.26-8.092,2.347-9.335,0.194
				c-1.242-2.152,0.923-5.729,4.836-7.987C1646.719,1569.087,1650.898,1569,1652.141,1571.152z"/>
			<path style="fill:#FFF0E2;" d="M1584.127,1541.898c-0.973,2.641-5.654,3.349-10.456,1.58s-7.906-5.344-6.933-7.984
				c0.973-2.641,5.653-3.348,10.455-1.58C1581.995,1535.684,1585.1,1539.258,1584.127,1541.898z"/>
		</g>
		<g>
			<path style="fill:#E8C7A0;" d="M1581.895,1587.831c0.571,0.99-0.425,2.636-2.226,3.676s-3.725,1.08-4.296,0.089
				c-0.572-0.99,0.424-2.636,2.225-3.676C1579.399,1586.88,1581.322,1586.841,1581.895,1587.831z"/>
			<path style="fill:#F4D9B3;" d="M1636.905,1592.212c0.712,1.232-0.528,3.281-2.771,4.575c-2.241,1.295-4.636,1.345-5.348,0.111
				c-0.712-1.232,0.528-3.281,2.771-4.576C1633.799,1591.028,1636.193,1590.979,1636.905,1592.212z"/>
			<path style="fill:#FFF0E2;" d="M1597.938,1575.451c-0.558,1.513-3.239,1.918-5.99,0.905c-2.751-1.014-4.53-3.062-3.973-4.574
				c0.558-1.514,3.239-1.919,5.99-0.905C1596.717,1571.89,1598.496,1573.938,1597.938,1575.451z"/>
		</g>
	</g>
	<g>
		<g>
			<path style="fill:#E8C7A0;" d="M1993.702,1755.71c1.144,1.98-0.848,5.271-4.449,7.35c-3.601,2.079-7.446,2.159-8.589,0.179
				c-1.144-1.98,0.849-5.271,4.449-7.35C1988.714,1753.81,1992.56,1753.729,1993.702,1755.71z"/>
			<path style="fill:#F4D9B3;" d="M2103.689,1764.469c1.424,2.465-1.057,6.562-5.538,9.149c-4.482,2.588-9.27,2.688-10.693,0.222
				c-1.423-2.465,1.057-6.562,5.539-9.149S2102.267,1762.004,2103.689,1764.469z"/>
			<path style="fill:#FFF0E2;" d="M2025.78,1730.959c-1.114,3.025-6.477,3.835-11.977,1.81c-5.501-2.026-9.056-6.121-7.942-9.146
				c1.115-3.024,6.477-3.835,11.977-1.809C2023.339,1723.839,2026.895,1727.934,2025.78,1730.959z"/>
		</g>
		<g>
			<path style="fill:#E8C7A0;" d="M2073.089,1716.768c1.144,1.98-0.849,5.271-4.449,7.35c-3.601,2.079-7.446,2.159-8.59,0.179
				s0.849-5.271,4.449-7.35S2071.945,1714.787,2073.089,1716.768z"/>
			<path style="fill:#F4D9B3;" d="M2183.076,1725.526c1.423,2.465-1.057,6.562-5.539,9.149s-9.27,2.688-10.693,0.222
				c-1.423-2.465,1.057-6.562,5.539-9.149S2181.652,1723.062,2183.076,1725.526z"/>
			<path style="fill:#FFF0E2;" d="M2105.166,1692.017c-1.114,3.025-6.477,3.835-11.977,1.81c-5.5-2.026-9.056-6.121-7.941-9.146
				c1.114-3.024,6.477-3.835,11.977-1.809C2102.725,1684.896,2106.28,1688.991,2105.166,1692.017z"/>
		</g>
		<g>
			<path style="fill:#E8C7A0;" d="M2102.609,1744.631c0.654,1.135-0.486,3.02-2.55,4.211c-2.063,1.191-4.266,1.237-4.921,0.103
				s0.486-3.021,2.549-4.211C2099.751,1743.542,2101.954,1743.496,2102.609,1744.631z"/>
			<path style="fill:#F4D9B3;" d="M2165.624,1749.649c0.815,1.412-0.605,3.759-3.174,5.241c-2.567,1.483-5.311,1.54-6.126,0.128
				c-0.815-1.413,0.605-3.76,3.174-5.242C2162.065,1748.294,2164.809,1748.236,2165.624,1749.649z"/>
			<path style="fill:#FFF0E2;" d="M2120.987,1730.45c-0.638,1.733-3.711,2.197-6.862,1.037c-3.15-1.161-5.188-3.507-4.55-5.24
				c0.639-1.733,3.711-2.197,6.862-1.036C2119.589,1726.371,2121.625,1728.717,2120.987,1730.45z"/>
		</g>
	</g>
	<g>
		<g>
			<path style="fill:#E8C7A0;" d="M2336.915,1809.063c1.143,1.98-0.849,5.271-4.449,7.35c-3.601,2.079-7.446,2.159-8.59,0.179
				s0.849-5.271,4.449-7.35S2335.771,1807.083,2336.915,1809.063z"/>
			<path style="fill:#F4D9B3;" d="M2446.902,1817.821c1.423,2.466-1.057,6.562-5.539,9.149s-9.27,2.688-10.693,0.222
				c-1.423-2.465,1.057-6.562,5.539-9.149S2445.479,1815.356,2446.902,1817.821z"/>
			<path style="fill:#FFF0E2;" d="M2368.992,1784.312c-1.114,3.025-6.477,3.835-11.977,1.81c-5.5-2.026-9.057-6.121-7.941-9.146
				c1.113-3.024,6.476-3.835,11.977-1.809C2366.551,1777.191,2370.106,1781.286,2368.992,1784.312z"/>
		</g>
		<g>
			<path style="fill:#E8C7A0;" d="M2416.301,1770.121c1.143,1.979-0.849,5.271-4.449,7.35c-3.601,2.078-7.446,2.158-8.59,0.178
				c-1.143-1.98,0.849-5.271,4.449-7.35S2415.157,1768.141,2416.301,1770.121z"/>
			<path style="fill:#F4D9B3;" d="M2526.288,1778.879c1.423,2.466-1.057,6.562-5.539,9.149c-4.481,2.588-9.27,2.688-10.692,0.222
				c-1.424-2.465,1.057-6.562,5.539-9.148C2520.077,1776.514,2524.864,1776.414,2526.288,1778.879z"/>
			<path style="fill:#FFF0E2;" d="M2448.379,1745.369c-1.115,3.025-6.477,3.835-11.978,1.81c-5.5-2.026-9.056-6.121-7.941-9.146
				c1.114-3.025,6.477-3.836,11.977-1.81C2445.938,1738.249,2449.492,1742.344,2448.379,1745.369z"/>
		</g>
		<g>
			<path style="fill:#E8C7A0;" d="M2445.821,1797.983c0.655,1.135-0.486,3.021-2.549,4.211c-2.063,1.191-4.267,1.237-4.921,0.103
				c-0.655-1.135,0.485-3.02,2.549-4.211C2442.963,1796.895,2445.166,1796.85,2445.821,1797.983z"/>
			<path style="fill:#F4D9B3;" d="M2508.836,1803.002c0.815,1.412-0.605,3.759-3.173,5.242c-2.568,1.482-5.312,1.539-6.127,0.127
				c-0.815-1.413,0.605-3.76,3.173-5.242C2505.277,1801.646,2508.021,1801.59,2508.836,1803.002z"/>
			<path style="fill:#FFF0E2;" d="M2464.199,1783.803c-0.639,1.733-3.711,2.197-6.861,1.037c-3.151-1.161-5.188-3.507-4.551-5.24
				c0.639-1.733,3.711-2.197,6.862-1.036C2462.801,1779.724,2464.838,1782.069,2464.199,1783.803z"/>
		</g>
	</g>
	<g>
		<path style="fill:#FFFFFF;" d="M1979.363,1190.72h-43.798c-1.104,0-2.006-0.902-2.006-2.006v-0.869
			c0-1.104,0.902-2.006,2.006-2.006h43.798c1.104,0,2.006,0.902,2.006,2.006v0.869
			C1981.369,1189.817,1980.467,1190.72,1979.363,1190.72z"/>
		<path style="fill:#FFFFFF;" d="M2058.924,1190.72h-64.009c-1.103,0-2.006-0.902-2.006-2.006v-0.869
			c0-1.104,0.903-2.006,2.006-2.006h64.009c1.103,0,2.006,0.902,2.006,2.006v0.869
			C2060.93,1189.817,2060.026,1190.72,2058.924,1190.72z"/>
		<path style="fill:#FFFFFF;" d="M2009.051,1178.822h-49.811c-0.977,0-1.776-0.8-1.776-1.777v-1.327c0-0.978,0.8-1.776,1.776-1.776
			h49.811c0.978,0,1.776,0.799,1.776,1.776v1.327C2010.827,1178.022,2010.028,1178.822,2009.051,1178.822z"/>
		<path style="fill:#FFFFFF;" d="M2032.318,1178.822h-12.571c-0.508,0-0.924-0.416-0.924-0.924v-3.034
			c0-0.508,0.416-0.923,0.924-0.923h12.571c0.508,0,0.924,0.415,0.924,0.923v3.034
			C2033.242,1178.406,2032.826,1178.822,2032.318,1178.822z"/>
		<path style="fill:#FFFFFF;" d="M2050.969,1178.822h-12.571c-0.509,0-0.924-0.416-0.924-0.924v-3.034
			c0-0.508,0.415-0.923,0.924-0.923h12.571c0.508,0,0.923,0.415,0.923,0.923v3.034
			C2051.892,1178.406,2051.477,1178.822,2050.969,1178.822z"/>
	</g>
	<g>
		<path style="fill:#FFFFFF;" d="M2469.987,1343.435h-103.413c-1.879,0-3.418-1.538-3.418-3.418l0,0c0-1.88,1.539-3.418,3.418-3.418
			h103.413c1.88,0,3.418,1.538,3.418,3.418l0,0C2473.405,1341.896,2471.867,1343.435,2469.987,1343.435z"/>
		<path style="fill:#FFFFFF;" d="M2537.477,1325.676h-103.412c-1.88,0-3.418-1.538-3.418-3.418l0,0c0-1.88,1.538-3.418,3.418-3.418
			h103.412c1.88,0,3.418,1.538,3.418,3.418l0,0C2540.895,1324.138,2539.356,1325.676,2537.477,1325.676z"/>
		<path style="fill:#FFFFFF;" d="M2653.451,1343.435h-150.017c-1.88,0-3.417-1.538-3.417-3.418l0,0c0-1.88,1.537-3.418,3.417-3.418
			h150.017c1.881,0,3.418,1.538,3.418,3.418l0,0C2656.869,1341.896,2655.332,1343.435,2653.451,1343.435z"/>
	</g>
	<g>
		<path style="fill:#FFFFFF;" d="M2706.097,1166.278h-89.369c-1.625,0-2.954-1.329-2.954-2.954l0,0c0-1.625,1.329-2.954,2.954-2.954
			h89.369c1.624,0,2.953,1.329,2.953,2.954l0,0C2709.05,1164.949,2707.721,1166.278,2706.097,1166.278z"/>
		<path style="fill:#FFFFFF;" d="M2764.421,1150.931h-89.369c-1.624,0-2.954-1.329-2.954-2.954l0,0c0-1.624,1.33-2.953,2.954-2.953
			h89.369c1.624,0,2.953,1.329,2.953,2.953l0,0C2767.374,1149.602,2766.045,1150.931,2764.421,1150.931z"/>
		<path style="fill:#FFFFFF;" d="M2864.646,1166.278h-129.644c-1.625,0-2.954-1.329-2.954-2.954l0,0
			c0-1.625,1.329-2.954,2.954-2.954h129.644c1.625,0,2.954,1.329,2.954,2.954l0,0
			C2867.6,1164.949,2866.271,1166.278,2864.646,1166.278z"/>
	</g>
</g>
</svg>
